<?xml version="1.0" encoding="UTF-8"?><svg id="b" xmlns="http://www.w3.org/2000/svg" width="455.578" height="308.616" viewBox="0 0 455.578 308.616"><defs><style>.d{fill:none;}.d,.e,.f,.g,.h,.i,.j{stroke-width:0px;}.e{fill:#b3b3b3;}.f{fill:#fff;}.g{fill:#d9d9d9;}.h{fill:#3d8dcc;}.i{fill:#211715;}.j{fill:#645d5c;}</style></defs><g id="c"><path class="f" d="M282.612,230.674l-3.692,1.725c6.111,5.831,13.683,13.363,20.554,20.074-.144-1.106-.272-2.14-.416-3.299-.011-.089-.023-.182-.034-.281-.758-.908-1.506-1.826-2.245-2.744-4.259-5.306-8.207-10.856-12.092-16.444l-1.508.704-.568.265Z"/><path class="f" d="M302.436,244.915c-.788-.263-1.589-.241-2.327.201-1.354.81-1.225,2.605-1.085,3.776-.758-.908-1.506-1.826-2.245-2.744-5.17-6.44-9.88-13.24-14.58-20.03-.18-.26-.37-.58-.25-.87.08-.22.3-.35.51-.46,9.66-5.13,19.59-9.76,29.72-13.87.29-.12.59-.24.9-.25,3.97-.12,16.42,2.95,18.12,4.12.71.49,1.25,1.19,1.78,1.87,3.08,3.98,14.06,18.32,14.06,18.32l.577.753c-1.576.082-3.143.311-4.678.677-1.014.242-2.157.674-2.479,1.666-.262.807.136,1.672.583,2.394.359.579.777,1.152,1.368,1.491.974.559,2.192.373,3.286.627,1.812.421,3.107,1.995,4.095,3.571.444.708.864,1.447,1.328,2.147-1.224,4.132-2.287,8.149-3.453,12.427-3.964,1.586-7.947,3.115-11.95,4.579-6.02-1.494-15.567-3.793-17.864-4.19,0,0-2.046-.354-4.694-.819-.361-.715-.753-1.415-1.175-2.096-1.707-2.973-4.497-7.807-6.068-10.246-.893-1.386-2.168-2.61-3.478-3.047Z"/><path class="f" d="M341.181,240.687c.329.502.713.977,1.229,1.273.974.559,2.192.373,3.286.627,1.812.421,3.107,1.995,4.095,3.571.443.708.863,1.446,1.327,2.145,1.347-4.541,2.887-9.222,4.971-14.542-1.042-1.642-2.252-3.207-4.001-3.99-2.075-.929-4.475-.56-6.707-.128-.434.084-.959.259-1.027.696-.048.306.165.585.365.822,1.274,1.509,2.548,3.017,3.823,4.526-1.886.042-3.768.285-5.604.722-1.014.242-2.157.674-2.479,1.666-.262.807.136,1.672.583,2.394.045.073.091.146.139.218Z"/><path class="f" d="M292.895,247.128c-2.216.849-4.796,2.158-5.235,6.004-.177,1.552,1.611,2.777,1.572,4.339-.02.81-.514,1.523-.761,2.295-.52,1.626.199,3.563,1.654,4.456-.965,2.114-.992,4.637-.073,6.772.919,2.135,2.771,3.848,4.97,4.599.796.272,1.627.422,2.454.571,3.945.711,7.89,1.421,11.835,2.132,1.051-4.354,3.33-9.574,5.545-13.794-.687-2.208-1.655-4.329-2.873-6.294-1.707-2.973-4.497-7.807-6.068-10.246-1.431-2.22-3.839-4.022-5.806-2.845-.741.443-1.038,1.181-1.131,1.951h-5.924c-.053.02-.106.04-.159.06Z"/><path class="f" d="M122.472,239.084c2.073.491,3.116,1.648,3.488,2.436.534.026.911.045.911.045,1.746.202,3.504.77,4.074,2.633.324,1.059.057,2.206-.514,3.145.412.153.68.253.68.253,1.376.513,2.418,1.832,2.597,3.29s-.025,2.08-.786,3.377c1.104.708,1.475,1.553,1.825,2.574.586,1.713-.17,3.644-1.228,5.113-1.058,1.469-2.515,2.594-3.951,3.697.966,1.735-.343,3.99-2.107,4.899l2.012,5.811c14.525-2.238,47.521-7.249,57.256-8.721-5.105-8.4-17.948-30.251-21.577-34.9-14.011,2.051-18.772,2.748-32.784,4.799l-9.894,1.55Z"/><path class="f" d="M102.596,267.354c-.367-5.761-1.109-11.497-2.225-17.159h4.307c.493-.778.998-1.552,1.593-2.256,1.596-1.888,3.839-3.22,6.26-3.718l2.542-4.5s.061-.109.139-.245c2.39-.45,4.898-.951,7.26-.392,2.073.491,3.116,1.648,3.488,2.436.534.026.911.045.911.045,1.746.202,3.504.77,4.074,2.633.324,1.059.057,2.206-.514,3.145.412.153.68.253.68.253,1.376.513,2.418,1.832,2.597,3.29s-.025,2.08-.786,3.377c1.104.708,1.475,1.553,1.825,2.574.586,1.713-.17,3.644-1.228,5.113-1.058,1.469-2.515,2.594-3.951,3.697.966,1.735-.343,3.99-2.107,4.899s-8.795,1.969-10.327,2.126c-4.81.491-9.32,1.839-14.284,1.095-.033-2.139-.117-4.277-.253-6.412Z"/><path class="f" d="M77.38,208.61c-.003-.414-.005-.828-.008-1.241-.016-1.606-.025-3.229-.321-4.811l-4.5-2.371c.142-1.489.205-2.475.267-3.355.131-1.855-.836-3.623-2.481-4.491-6.987-3.684-20.785-9.207-26.229-11.092l-.732-.187c.08.736.135,1.421.152,1.993.025.847-.154,2.212-.488,3.754,8.153,5.1,17.274,10.322,24.101,17.973.947,1.063,2.932,4.059,4.454,6.75,1.303,2.303,2.417,5.121,3.415,8.266h2.453c-.03-3.722-.059-7.458-.083-11.189Z"/><path class="f" d="M61.443,152.599c-.737-.536-1.545-.914-2.568-1.043-1.474-.185-2.844.167-3.815,1.073-1.445,1.348-1.879,3.854-1.539,5.831.637,3.704,2.407,6.39,5.183,8.199-.185.728-.314,1.231-.314,1.231-.46,2.584-2.217,6.554-4.097,8.601-1.958,2.132-7.13,3.984-10.417,4.682,5.182,1.769,18.877,7.232,26.078,10.968.559-1.742.974-3.022.974-3.022.938-2.896,2.196-5.271,2.234-5.397.252-.77,1.037-1.245,1.832-1.091,3.315.637,8.299-.216,11.867-1.831,1.82-.824,3.527-2.295,4.742-5.077.574-1.301.967-3.031,1.229-4.799.396-2.684.497-5.469.464-7.055.237-1.18.666-2.288,1.45-3.269,1.184-1.485,3.181-2.722,1.941-5.054-.471-.882-1.296-1.502-2.211-1.913-4.611-2.07-5.294-8.777-5.799-13.611-.082-2.878-.441-5.473-1.032-7.817,0,0-3.693-12.267-17.618-3.609-7.64,4.75-8.583,17.754-8.583,24.004Z"/><path class="j" d="M67.674,110.753c-.551-.177-1.117-.344-1.698-.499-5.403-1.444-11.321-1.983-17.3-.783s-15.606,4.131-23.332,17.546c-3.003,5.214-5.153,12.556-4.823,19.638.598,12.816,7.576,21.542,12.252,25.934,2.614,2.455,7.019,5.581,8.643,9.059,1.292-.247,2.277-.436,2.277-.436,3.274-.667,8.605-2.548,10.599-4.72,1.88-2.047,3.638-6.018,4.097-8.601,0,0,.096-.525.232-1.285-2.729-1.809-4.47-4.478-5.101-8.145-.34-1.977.094-4.483,1.539-5.831.971-.906,2.34-1.258,3.815-1.073.833.105,1.524.375,2.149.762,3.267-1.797,5.928-4.322,8.266-7.172,3.328-.003,6.389-.003,6.389-.003,5.458-3.737,9.574-9.393,11.451-15.736-.716-2.547-1.738-4.578-3.19-7.02-.943-1.588-6.076-8.36-16.267-11.634Z"/><path class="j" d="M340.753,90.099c8.514,2.863,18.769.966,24.329-6.491,4.878-6.542,3.683-13.991,2.558-21.51-.578-3.868-1.431-7.631-1.737-11.731-.451-6.025-1.302-13.553-3.578-18.772-1.705-3.902-5.328-9.969-11.177-12.944-2.211-1.382-3.707-2.317-3.707-2.317l-.806-.504c-4.483-2.055-9.177-3.485-15.936-3.788-11.071-.484-20.449,4.181-25.013,8.17-5.117,4.997-7.364,10.114-10.094,19.825-1.554,5.572-3.15,11.136-4.343,16.8-1.19,5.652-1.939,11.705-.312,17.357,1.594,5.538,5.401,8.993,10.709,10.893l39.107,5.011Z"/><path class="i" d="M351.951,21.44c4.383,2.989,7.638,7.925,9.293,12.926,2.023,6.114,2.136,12.471,2.948,18.792.837,6.517,2.65,13.045,2.436,19.659-.192,5.92-3.117,11.182-8.321,14.113-5.166,2.909-11.471,3.062-17.022,1.241-2.452-.804-3.502,3.057-1.063,3.857,5.712,1.874,12.119,1.836,17.695-.49,6.046-2.521,10.784-7.731,12.175-14.212,1.502-6.998-.291-14.397-1.456-21.315-1.179-7.002-1.127-14.152-3.03-21.041-1.846-6.685-5.859-13.045-11.635-16.984-2.132-1.454-4.135,2.011-2.019,3.454h0Z"/><path class="f" d="M360.619,63.009c-.275-.781-1.008-2.168-3.288-2.722-1.048-.255-2.349-.197-3.437.446,0,0-.644.107-1.493.111-.806.022-1.991.1-3.194.031-.198-.449-.321-.729-.321-.729-3.901-8.851-12.754-19.545-18.527-24.423-2.886,2.599-5.743,5.241-8.903,7.509-3.028,2.174-6.269,4.05-9.661,5.598-2.522,1.151-5.128,2.12-7.791,2.893-2.708.787-5.391,1.145-8.184,1.455.232,4.847.228,9.693.324,14.146.101,4.659.792,9.092,2.474,12.901.998,2.261,2.346,4.302,4.127,6.041,3.379,3.3,7.013,5.424,11.156,6.46v3.623c.035,2.118-2.233,3.306-4.022,3.921.049,2.396.335,6.727.754,11.94,4.469,1.451,9.233,2.003,13.977,1.707,4.801-.05,9.542-.959,13.929-2.767,1.835-4.309,3.558-8.439,5.102-12.217-1.259-.85-2.259-1.814-2.696-2.872-.452-1.081-.706-2.232-.878-3.39-.223-1.552-.305-2.595-.369-4.477v-.885s2.266-1.727,2.266-1.727c1.845-1.598,3.379-3.271,4.827-5.055,0,0,1.421-1.821,2.047-2.878,0,0,.165-.278.422-.71,1.893.372,4.034-.146,4.896-.567,2.737-1.345,4.155-3.482,5.098-5.031,1.338-2.19,2.185-5.996,1.364-8.332Z"/><path class="i" d="M311.901,96.35c-.013.217-.01.253.011.107.026-.142.018-.112-.024.092l-.049.17c.086-.178.097-.202.033-.074-.069.13-.141.254-.224.376.16-.234.025-.035-.086.072-.109.105-.217.21-.332.309.287-.247-.162.106-.194.127-.264.171-.54.323-.821.462-.041.02-.49.226-.27.131.218-.095-.225.087-.268.103-.275.103-.533.201-.808.32-.347.15.212-.083-.031.014-.602.241-1.207.471-1.817.69-2.694.967-5.448,1.771-8.113,2.819-1.005.395-1.705,1.34-1.397,2.46.263.957,1.449,1.794,2.46,1.397,2.966-1.167,6.044-2.028,9.026-3.154.329-.124.656-.252.981-.386.234-.096.462-.206.699-.294.131-.057.097-.039-.102.053.084-.03.167-.061.25-.093.767-.277,1.545-.622,2.231-1.067,1.64-1.064,2.812-2.618,2.845-4.633.018-1.081-.932-2-2-2-1.099,0-1.982.916-2,2h0Z"/><path class="d" d="M357.59,25.636c4.169,4.477,6.004,9.371,7.005,15.252.501,2.96.558,5.983.134,8.948-.458,3.192-1.277,10.724-3.968,14.575"/><path class="d" d="M352.353,21.092c-7.095-5.882-13.945-7.693-20.915-7.871-11.044-.282-20.214,3.3-26.672,9.837-3.729,3.774-6.633,9.449-7.97,14.6-1.256,4.84-1.821,12.259-1.021,18.509"/><path class="i" d="M324.856,63.679c-.273-1.537.443-4.906,3.283-4.851,3.705.479,3.395,4.621,1.909,6.404-1.217,1.46-4.303,1.749-5.193-1.553Z"/><path class="i" d="M302.759,61.662c-.238-1.538.445-4.922,3.048-4.889,3.392.45,3.075,4.605,1.699,6.404-1.127,1.473-3.957,1.787-4.746-1.515Z"/><path class="i" d="M313.41,65.986c-.549.762-1.082,1.54-1.561,2.348-.214.361-.427.751-.495,1.168-.074.461-.109.88.039,1.333.143.439.394.817.721,1.141.416.411.882.677,1.432.862.177.059.363.076.543.119.516.123,1.078.07,1.541-.202.415-.243.811-.718.919-1.195.117-.512.091-1.087-.202-1.541-.277-.43-.685-.797-1.195-.919-.212-.051-.426-.071-.63-.152l.478.202c-.116-.05-.219-.112-.32-.188l.405.313c-.107-.088-.201-.184-.29-.289l.313.405c-.024-.029-.044-.061-.06-.096l.202.478c-.021-.054-.033-.1-.041-.158l.071.532c-.003-.037-.003-.075.001-.112l-.071.532c.014-.101.041-.194.077-.289l-.202.478c.222-.514.575-.994.885-1.458.29-.435.586-.866.892-1.291.287-.398.327-1.088.202-1.541-.128-.464-.486-.967-.919-1.195-.464-.245-1.026-.368-1.541-.202l-.478.202c-.301.178-.54.417-.718.718h0Z"/><path class="i" d="M347.112,76.64c-.577.961-1.266,1.854-1.944,2.745.565-.743.028-.049-.109.118-.249.302-.502.601-.759.896-.572.659-1.164,1.302-1.778,1.922-.303.306-.611.607-.925.902-.17.16-.342.318-.515.474-.087.079-.175.157-.264.235-.219.186-.175.16.134-.076-.231.108-.448.292-.66.431l-1.805,1.177c-.875.571-1.323,1.798-.718,2.736.563.874,1.799,1.329,2.736.718l1.875-1.223c1.1-.717,2.047-1.614,2.97-2.546,1.925-1.946,3.8-4.135,5.215-6.491.539-.898.23-2.236-.718-2.736-.968-.512-2.161-.241-2.736.718h0Z"/><path class="i" d="M332.133,89.149c-7.3,2.592-15.561,3.622-22.618-.262-3.31-1.822-6.329-4.452-8.209-7.757s-2.713-7.139-3.017-10.898c-.442-5.473-.211-11.007-.441-16.493-.108-2.565-4.108-2.578-4,0,.222,5.284.041,10.599.396,15.876.299,4.447,1.179,8.899,3.252,12.88,3.908,7.505,12.166,12.228,20.445,12.891,5.209.417,10.363-.643,15.255-2.38,2.409-.855,1.371-4.721-1.063-3.857h0Z"/><path class="i" d="M354.903,62.46c.939-.512,2.009-.353,2.808.077.123.067.243.14.36.218-.137-.121-.121-.108.05.039.08.072.532.614.246.213.111.155.198.32.297.482.276.451-.013-.187.027.052.044.262.157.519.205.783.043.242.048.278.015.107.013.148.022.296.027.445.011.308.004.616-.014.924-.01.158-.023.316-.039.474-.024.256-.032.318-.025.186-.173,1.138-.534,2.351-.976,3.229-.97,1.927-2.152,3.469-4.022,4.573-.267.158-.541.302-.822.436.541-.258-.093.012-.217.049-.235.07-.473.13-.712.18-.073.016-.786.123-.496.091-.588.065-1.21.09-1.798.008.155.017.108.004-.143-.037-.147-.032-.293-.07-.437-.114-.239-.074-.229-.071-.541-.25-2.237-1.282-4.254,2.172-2.019,3.454,2.178,1.249,5.02,1.241,7.369.476,2.455-.799,4.423-2.63,5.925-4.67,1.387-1.884,2.363-4.045,2.746-6.361.368-2.221.403-4.76-.99-6.658-1.993-2.716-5.922-3.45-8.842-1.858-2.261,1.233-.244,4.688,2.019,3.454h0Z"/><path class="i" d="M313.065,80.856c1.469.901,3.255,1.279,4.956,1.376.855.049,1.714-.023,2.556-.181.847-.158,1.615-.554,2.416-.853.977-.365,1.75-1.369,1.397-2.46-.309-.956-1.411-1.789-2.46-1.397-.731.273-1.435.636-2.2.809-.145.033-.296.046-.439.082.067-.017.469-.052.188-.028-.098.008-.196.018-.295.025-.346.023-.693.025-1.039.009-.167-.007-.333-.019-.499-.035-.082-.008-.168-.027-.25-.026.086,0,.434.068.158.021-.347-.059-.691-.123-1.031-.212-.325-.085-.641-.191-.955-.309-.259-.097.118.032.168.071-.066-.052-.17-.079-.245-.117-.139-.071-.274-.148-.407-.229-.893-.548-2.239-.223-2.736.718-.516.976-.236,2.152.718,2.736h0Z"/><path class="f" d="M350.339,77.068c-1.755,0-2.967,1.234-2.967,2.678,0,1.616,1.239,2.728,2.967,2.728,1.795,0,2.967-1.123,2.967-2.728,0-1.454-1.219-2.678-2.968-2.678Z"/><path class="i" d="M350.339,75.068c-.973.012-2.02.253-2.83.813-.91.628-1.54,1.431-1.916,2.473-.307.853-.293,1.934-.018,2.793.332,1.038.962,1.851,1.845,2.477,1.568,1.113,3.843,1.085,5.507.221,1.842-.957,2.618-3.069,2.276-5.037-.164-.942-.738-1.903-1.479-2.506-.98-.797-2.113-1.219-3.384-1.234-1.046-.013-2.048.929-2,2,.049,1.094.879,1.986,2,2,.148.002.293.01.44.027l-.532-.071c.302.041.59.116.872.232l-.478-.202c.236.104.454.233.658.39l-.405-.313c.173.141.327.296.465.47l-.313-.405c.131.175.24.361.329.561l-.202-.478c.083.204.142.411.177.628l-.071-.532c.033.252.031.502.003.755l.071-.532c-.033.242-.092.475-.181.703l.202-.478c-.092.215-.206.413-.348.599l.313-.405c-.132.163-.279.307-.445.437l.405-.313c-.195.145-.403.262-.626.357l.478-.202c-.27.107-.546.176-.833.216l.532-.071c-.339.04-.676.04-1.014,0l.532.071c-.287-.042-.562-.113-.831-.221l.478.202c-.226-.098-.436-.218-.633-.366l.405.313c-.168-.134-.318-.282-.453-.45l.313.405c-.13-.172-.238-.354-.326-.55l.202.478c-.096-.231-.159-.467-.195-.715l.071.532c-.03-.255-.032-.507.001-.761l-.071.532c.035-.217.093-.424.176-.626l-.202.478c.089-.2.197-.385.328-.56l-.313.405c.138-.175.292-.331.465-.471l-.405.313c.204-.158.422-.287.658-.391l-.478.202c.282-.117.571-.192.873-.233l-.532.071c.147-.016.293-.025.441-.027,1.046-.013,2.049-.911,2-2-.048-1.073-.879-2.014-2-2Z"/><path class="i" d="M302.177,83.159c-2.861-1.048-5.574-2.752-7.334-5.291-2.21-3.189-2.861-7.155-2.842-10.966.022-4.424.949-8.776,1.97-13.06,1.079-4.528,2.346-9.012,3.611-13.491,1.75-6.201,3.757-12.505,8.191-17.354,4.333-4.739,11.017-7.343,17.212-8.458,4.458-.803,9.133-.684,13.581.141,3.336.619,6.965,1.57,9.866,3.383,2.189,1.368,4.199-2.091,2.019-3.454-2.808-1.755-6.279-2.804-9.495-3.516-4.415-.978-9.061-1.347-13.565-.895-7.419.744-15.114,3.441-20.83,8.356-5.386,4.63-8.107,11.604-10.1,18.215-1.433,4.752-2.746,9.556-3.945,14.372-1.173,4.708-2.258,9.514-2.477,14.377s.499,10.118,3.261,14.233c2.37,3.532,5.871,5.821,9.817,7.266,2.421.887,3.465-2.977,1.063-3.857h0Z"/><path class="i" d="M329.016,34.243c-4.764,4.293-9.52,8.364-15.222,11.378-5.639,2.981-11.594,4.838-17.927,5.551-1.073.121-2,.833-2,2,0,.987.92,2.122,2,2,3.394-.382,6.732-.888,9.995-1.924,3.287-1.044,6.494-2.378,9.555-3.965,6.154-3.192,11.308-7.598,16.428-12.211,1.916-1.727-.92-4.548-2.828-2.828h0Z"/><path class="i" d="M329.016,37.197c3.648,3.124,6.869,6.783,9.817,10.564,3.226,4.137,6.183,8.593,8.325,13.395.44.987,1.877,1.22,2.736.718,1.016-.594,1.159-1.746.718-2.736-2.234-5.007-5.359-9.578-8.71-13.895-3.02-3.891-6.309-7.663-10.058-10.872-1.946-1.666-4.788,1.151-2.828,2.828h0Z"/><path class="i" d="M337.698,88.194c.077,2.216.227,4.476.751,6.638.27,1.112.646,2.281,1.337,3.206.795,1.064,1.763,1.883,2.858,2.631.866.592,2.256.192,2.736-.718.536-1.015.207-2.105-.718-2.736-.104-.071-.207-.144-.311-.215-.12-.083-.204-.146-.039-.019-.188-.144-.369-.299-.543-.459-.167-.152-.328-.31-.481-.477-.073-.08-.14-.166-.214-.245.108.115.148.214.027.03-.111-.168-.212-.338-.309-.515-.096-.174-.047-.11.007.033-.045-.122-.093-.243-.136-.365-.184-.521-.327-1.055-.444-1.595-.107-.497-.188-.999-.26-1.502-.044-.306.04.341.007.046-.012-.104-.026-.208-.038-.311-.024-.202-.046-.405-.065-.608-.091-.937-.133-1.878-.166-2.818-.036-1.044-.894-2.05-2-2-1.052.047-2.039.88-2,2h0Z"/><path class="f" d="M340.181,107.271c1.246-2.96,2.426-5.805,3.518-8.475,12.792,5.892,28.461,10.299,35.4,23.806,4.193,8.161,4.511,18.98,4.32,28.274-.417,20.233-3.157,40.41-8.174,59.932-34.136,0-90.863,0-90.863,0-.283-9.416-.6-18.831-.953-28.246-.668.39-1.019.597-1.019.597-6.7,3.94-14.84,3.88-19.68,1.98-5.57-2.18-12.21-9.07-15.81-13.85-6.46-8.59-10.83-15.5-15.96-23.83,5.26-4.56,15.29-12.7,19.2-15.56,2.56,3.04,11.26,12.93,13.47,15.32,0,0,.465.503.93,1.006l1.27-2.296c4.667-8.436,8.187-18.171,13.133-26.659,6.981-11.979,18.312-15.099,30.91-19.481.053,8.066,3.675,45.481,5.092,53.602h3.909c6.966-13.144,14.989-31.112,21.306-46.119Z"/><path class="h" d="M323.324,144.653c5.156-10.481,10.554-22.568,15.215-33.502-4.387,1.808-9.128,2.717-13.93,2.768-4.684.292-9.389-.242-13.811-1.652l-.166-.049c1.153,14.331,3.313,35.332,4.333,41.174h3.909c1.446-2.728,2.937-5.664,4.449-8.738Z"/><path class="i" d="M341.596,98.69c-5.873,14.327-12.048,28.551-18.796,42.489-1.823,3.765-3.696,7.505-5.652,11.202l1.727-.991h-3.909l1.929,1.468c-.457-2.642-.646-4.426-.98-7.237-.447-3.766-.851-7.538-1.239-11.311-.848-8.256-1.628-16.522-2.254-24.799-.233-3.075-.476-6.158-.543-9.242-.056-2.57-4.056-2.579-4,0,.144,6.608.835,13.227,1.426,19.806.741,8.247,1.551,16.49,2.512,24.714.356,3.047.697,6.107,1.22,9.131.148.853,1.113,1.468,1.929,1.468h3.909c.681,0,1.402-.375,1.727-.991,7.366-13.922,13.763-28.369,19.925-42.855,1.667-3.92,3.311-7.85,4.927-11.791.41-1-.444-2.199-1.397-2.46-1.147-.315-2.049.393-2.46,1.397h0Z"/><path class="i" d="M299.057,107.372c-1.424,1.851-4.274,4.613-2.843,7.097,1.023,1.776,2.655,3.237,3.573,5.07l-.273-1.009c-.035-.275.654-.851.04-.145l-.74.849-2.044,2.348c-.366.421-.747.833-1.101,1.264-1.082,1.32-.744,2.615-.389,4.128,1.471,6.267,2.939,12.535,4.407,18.804.587,2.505,4.444,1.445,3.857-1.063-.932-3.98-1.864-7.959-2.797-11.939-.411-1.751-.821-3.503-1.232-5.254-.157-.671-.315-1.342-.472-2.013-.04-.169-.079-.338-.119-.507-.081-.553-.221-.332-.418.663.067-.029.13-.163.183-.21,1.441-1.298,2.68-3.027,3.93-4.513,2.685-3.194-1.833-6.067-3.102-8.819l.273,1.009c-.012-.32,1.02-1.442,1.232-1.74.482-.678.981-1.342,1.488-2.001.659-.857.131-2.24-.718-2.736-1.032-.604-2.075-.141-2.736.718h0Z"/><path class="i" d="M349.103,108.234c1.139,1.902,2.085,3.891,2.729,6.015-.001-.004.288,1.045.308,1.041.316-.512.235-.618-.243-.32-.279.104-.558.208-.837.312-.982.368-1.962.741-2.93,1.146-2.005.839-2.566,3.06-1.186,4.749.629.77,1.302,1.509,1.943,2.271.648.77,1.561,1.556,2.052,2.432l-.273-1.009c.004.076-.794,1.017-.9,1.17-.349.503-.696,1.006-1.041,1.511-.599.874-1.194,1.752-1.786,2.631-1.26,1.87-2.506,3.75-3.75,5.63-2.583,3.904-5.166,7.807-7.823,11.661-1.465,2.124,2,4.127,3.454,2.019,3.639-5.277,7.129-10.652,10.693-15.979.84-1.255,1.685-2.508,2.538-3.754.828-1.21,2.185-2.582,2.564-4.018.424-1.607-.839-2.71-1.776-3.798-.52-.604-1.031-1.217-1.545-1.827-.233-.276-.466-.553-.701-.827l-.276-.322c-.347-.5-.394-.404-.141.291l-.514.883c.212-.263,1.348-.581,1.827-.762.76-.287,1.529-.553,2.283-.855,1.45-.581,2.4-1.805,2.349-3.404-.047-1.472-.772-3.073-1.325-4.417-.64-1.552-1.375-3.046-2.238-4.487-1.321-2.206-4.781-.197-3.454,2.019h0Z"/><path class="i" d="M310.267,114.194c4.765,1.485,9.611,1.886,14.575,1.72,4.888-.164,9.663-.991,14.211-2.828,1.001-.404,1.707-1.333,1.397-2.46-.261-.95-1.453-1.804-2.46-1.397-4.233,1.709-8.597,2.532-13.148,2.685-4.638.155-9.058-.189-13.511-1.577-2.463-.768-3.517,3.092-1.063,3.857h0Z"/><path class="i" d="M349.717,103.586c9.663,4.093,20.451,8.48,26.329,17.716,3.172,4.983,4.49,10.875,5.034,16.694.591,6.322.417,12.711.139,19.045-.356,8.113-1.08,16.213-2.191,24.257-.148,1.069.259,2.148,1.397,2.46.934.257,2.312-.32,2.46-1.397,1.037-7.505,1.79-15.044,2.201-22.61.369-6.807.624-13.685.101-20.491-.485-6.313-1.65-12.736-4.723-18.346-2.719-4.963-6.82-8.947-11.465-12.11-5.34-3.637-11.34-6.162-17.264-8.671-.994-.421-2.142-.298-2.736.718-.491.839-.283,2.313.718,2.736h0Z"/><path class="i" d="M280.012,148.771c.957,20.672,1.747,41.352,2.369,62.037.077,2.568,4.078,2.579,4,0-.622-20.685-1.412-41.365-2.369-62.037-.119-2.563-4.119-2.578-4,0h0Z"/><path class="i" d="M306.942,98.688c-7.326,2.513-14.884,5-21.095,9.779-7.171,5.517-10.923,13.667-14.618,21.695-2.284,4.963-4.491,9.967-7.126,14.757-1.241,2.257,2.212,4.278,3.454,2.019,4.526-8.232,7.782-17.092,12.358-25.298,1.907-3.419,4.168-6.475,7.146-9.04,2.673-2.302,5.782-4.065,8.975-5.54,3.873-1.789,7.94-3.133,11.971-4.516,2.421-.83,1.381-4.696-1.063-3.857h0Z"/><path class="i" d="M265.044,145.805c-4.605-4.993-9.09-10.128-13.47-15.32-.518-.614-1.76-.8-2.424-.313-6.764,4.965-13.263,10.383-19.605,15.873-.651.563-.752,1.71-.313,2.424,5.429,8.813,10.942,17.733,17.483,25.778,2.879,3.54,6.136,6.799,9.783,9.546,3.411,2.569,7.091,4.099,11.35,4.5,5.365.505,10.905-.725,15.57-3.407,2.231-1.283.219-4.741-2.019-3.454-3.79,2.179-8.129,3.152-12.489,2.937-3.755-.185-6.922-1.494-9.94-3.693-7.288-5.311-12.522-13.079-17.497-20.453-3.046-4.515-5.931-9.136-8.787-13.773l-.313,2.424c6.084-5.266,12.306-10.484,18.795-15.247l-2.424-.313c4.38,5.192,8.865,10.327,13.47,15.32,1.749,1.896,4.572-.938,2.828-2.828h0Z"/><path class="f" d="M227.74,109.561c-.008.25-.018.596-.029,1.014-.524-.088-1.127-.116-1.812-.068-4.228.297-8.41,2.323-8.018,4.448.082,1.085.587,1.938,1.824,3.365-.532.901-.524,3.097.137,3.396l.801.964c-1.279,0-2.14.615-2.605,1.476-.848,1.571-.013,3.535,1.652,4.179l.515.199c-.167-.014-.334-.028-.334-.028-1.828-.151-3.778,1.928-3.246,3.425.397,1.116,1.553,1.957,2.681,2.478,2.586,2.895,5.803,5.22,9.356,6.781.862.379,1.744.713,2.589,1.127.639.313,1.255.67,1.844,1.069,1.757,1.191,4.082,1.161,5.824-.052,2.835-1.974,5.845-4.355,8.475-6.578,1.031-.872,1.418-2.288.989-3.568-2.493-7.447-4.657-14.443-6.557-16.197-2.638-2.436-5.494-3.077-6.994-6.053-1.042-2.069-2.945-4.647-5.309-4.186-1.567.305-1.741,1.606-1.769,2.353,0,0-.006.163-.015.456Z"/><path class="i" d="M223.763,132.1c.072.06.32.339.083.05-.285-.348.09.291-.075-.12-.137-.342.003.04.027.135.012.048.016.105.033.151.072.199-.022-.435-.028-.219-.006.213-.025.483-.004.694-.042-.417.072-.403.026-.221-.012.049-.021.1-.033.149-.024.096-.184.53-.036.174.151-.364-.027-.025-.042.036-.031.128.143-.198.169-.214-.052.033-.114.126-.163.173-.044.042-.094.08-.136.124-.141.145.146-.116.157-.118-.142.034-.313.203-.445.273-.059.031-.12.057-.179.088-.199.107.171-.087.171-.072,0,.04-.381.122-.443.137-.046.011-.154.016-.192.043.003-.002.429-.033.214-.026-.172.005-.341.002-.512.003-.231.003.124.027.141.028-.099-.005-.215-.036-.31-.055-.155-.032-.308-.069-.46-.111-.359-.099-.706-.228-1.053-.361-.092-.035-.355-.102.036.018-.074-.023-.148-.064-.219-.096-.125-.056-.25-.113-.373-.174-.305-.151-.602-.321-.883-.513-.057-.039-.111-.081-.168-.119-.181-.122.132.096.135.104-.033-.093-.281-.249-.349-.316-.058-.058-.318-.384-.151-.142.16.232.029.041,0-.005-.058-.09-.116-.178-.167-.272-.026-.047-.05-.13-.087-.169-.017-.019.17.373.091.198-.039-.086-.052-.317-.017.031.037.362.011.14.015.074.003-.041.009-.106.002-.147-.029-.164-.035.27-.043.285.04-.077.11-.305.11-.396,0,.023-.206.371-.095.233.052-.064.089-.17.131-.24.027-.044.073-.093.091-.14.072-.185-.257.27-.108.133.113-.103.205-.231.318-.337.043-.04.087-.078.13-.117.201-.183-.057.072-.127.096.132-.046.272-.178.399-.246.051-.027.107-.049.157-.078.2-.116-.433.129-.102.053.095-.022.528-.102.177-.066-.365.037.195.007.295.013,1.046.061,2.046-.963,2-2-.051-1.136-.879-1.935-2-2-1.894-.11-3.775,1.116-4.711,2.717-.532.91-.723,1.925-.534,2.959.175.953.842,1.886,1.543,2.529s1.506,1.153,2.375,1.535c.958.422,1.926.832,2.968.987,1.23.183,2.3.05,3.443-.445.884-.383,1.739-1.04,2.237-1.876.953-1.6.925-4.376-.601-5.641-.804-.667-2.051-.847-2.828,0-.677.737-.86,2.115,0,2.828h0Z"/><path class="i" d="M222.34,120.897c-1.384-.312-2.769-.3-4.061.336-1.112.547-1.874,1.553-2.308,2.688-.397,1.038-.503,2.256-.247,3.342.144.61.428,1.187.853,1.651.203.221.435.427.695.579.143.083.292.141.446.205.147.064.294.125.444.182-.114-.05-.109-.048.014.006,1.848.798,3.706,1.543,5.573,2.298.722.292,1.467.603,2.24.727,1.265.203,2.553-.123,3.624-.831,1.295-.856,2.053-2.114,2.164-3.662.107-1.506-.611-3.01-1.752-3.972-.799-.674-2.056-.842-2.828,0-.682.743-.854,2.108,0,2.828.166.14.313.293.466.447.196.198-.106-.245-.016-.001.023.061.079.153.117.206-.34-.478.169.127.04.216-.037.026.01-.428-.025-.189-.013.094.002.241.006.334.014.331.129-.402-.01.032-.018.055-.036.117-.049.174-.077.352.036-.175.077-.157.006.003-.154.275-.143.251.018-.039.238-.24.076-.111-.079.063-.154.145-.227.217-.176.174.247-.125.015-.023-.172.075-.335.194-.506.276.405-.196-.17.026-.28.056-.383.105.282-.016-.015-.003-.357.016.51.128.093.011-.593-.166-1.169-.353-1.743-.579-.61-.241-1.211-.504-1.817-.753-.194-.08-.388-.16-.587-.228-.133-.045-.268-.082-.401-.126-.124-.041-.247-.085-.37-.131-.057-.021-.455-.186-.153-.056-.426-.184-.843-.388-1.266-.579-.27-.122-.542-.238-.816-.353-.141-.06-.3-.115-.439-.183.51.251-.208-.161.18.103.385.262-.219-.187.125.115.171.15.084.106.031.008.263.492.083.099.021-.048-.097-.226-.02.389.016.138.009-.062-.009-.142-.01-.205-.002-.093,0-.186.005-.278.006-.113.126-.405.009-.154-.099.213-.013.078.012-.01.031-.11.052-.223.085-.333.019-.064.042-.127.061-.191.112-.385-.149.232-.029.07.047-.064.083-.146.121-.217.174-.321.027.087-.057.05.003.001.119-.129.127-.139.269-.341-.039.071-.072.022.009.014.402-.3.448-.265.033.025-.505.14-.094.056.04-.008.249-.094.278-.07-.026-.021-.403.012-.08.012.136,0,.272-.009.408-.004.086.003.172.011.258.017-.437-.028.148.042.209.056,1.018.229,2.213-.31,2.46-1.397.231-1.016-.305-2.214-1.397-2.46h0Z"/><path class="i" d="M228.013,123.416c-1.902-.872-3.772-1.808-5.656-2.719-.369-.178-.739-.354-1.11-.527-.081-.037-.175-.092-.262-.121-.383-.125.148.2.25.303.257.261-.002-.115.116.199.128.341.023,0-.004-.078-.133-.386.002.362,0,.086,0-.092-.014-.185-.018-.277-.003-.083-.056-.58.019-.647-.002.002-.102.502-.013.108.02-.089.036-.179.059-.268-.005.021.077-.246.074-.249.037.033-.231.456.019.015.181-.319.036-.022-.022.028.079-.067.151-.149.229-.219-.311.276-.055.057.053-.004.059-.033.368-.16.124-.071-.29.105.788-.126.171-.068.109-.01.217-.018.326-.02.124-.002.594.07.118-.019.514.097,1.025.242,1.525.396.265.082.528.17.788.266.113.041.225.084.337.128.083.032.166.066.248.1-.179-.075-.203-.084-.072-.027.925.46,1.833.921,2.686,1.51.096.066.19.134.284.202-.323-.234-.026-.018.053.049.165.141.324.288.476.443.175.179.341.367.497.563-.289-.364.289.34.252.418-.008.018-.154-.487-.056-.085.107.44.023-.428.014.035-.002.096-.004.199-.001.294.011.393.125-.345-.013.06-.031.09-.059.2-.081.29-.09.376.196-.272-.032.072-.051.077-.108.173-.15.253.135-.255.113-.158-.049.039-.068.082-.275.195.059-.035-.313.215.177-.076-.034.006-.302.117.488-.114-.015-.021l-.16-.01c.237.035.281.038.132.008-.25-.087-.521-.158-.775-.236-.302-.093.421.196-.016-.003-.123-.056-.247-.112-.37-.168-.949-.435-2.198-.302-2.736.718-.465.879-.298,2.271.718,2.736,1.407.645,2.95,1.28,4.511.766,1.512-.497,2.578-1.975,2.886-3.499.158-.783.179-1.591-.031-2.369-.227-.84-.738-1.502-1.278-2.164-.88-1.08-2.079-1.887-3.278-2.575-1.229-.705-2.554-1.274-3.912-1.677-1.683-.499-3.328-.672-4.951.13-1.308.646-2.246,1.901-2.486,3.337-.236,1.409-.211,3.04.793,4.165.445.499,1.172.726,1.762,1.008.54.258,1.076.522,1.613.786,1.449.713,2.903,1.417,4.371,2.09.949.435,2.198.302,2.736-.718.465-.88.298-2.271-.718-2.736Z"/><path class="i" d="M229.756,109.106c.019-.364,0-.141-.014-.055.009-.063.052-.364.11-.433-.21.251-.013.023.204.063.72.135,1.227.599,1.7,1.146,1.318,1.523,1.9,3.444,3.468,4.8s3.505,2.232,5.03,3.636c.828.762,1.426,2.086,1.968,3.365.835,1.971,1.522,4.009,2.21,6.035.374,1.102.741,2.206,1.108,3.311.292.877,1.151,2.336.792,3.269-.364.945-1.75,1.804-2.496,2.453-.903.785-1.828,1.547-2.785,2.265-1.584,1.189-3.705,3.249-5.843,2.99-1.097-.133-1.982-.884-2.946-1.359-1.232-.608-2.533-1.063-3.763-1.676-2.444-1.218-4.645-2.786-6.605-4.684-1.85-1.792-4.682,1.033-2.828,2.828,2.189,2.12,4.682,3.953,7.415,5.31,1.351.671,2.786,1.159,4.122,1.858,1.22.638,2.308,1.375,3.695,1.609,3.192.539,5.6-1.11,8.067-2.9,1.229-.891,2.429-1.826,3.59-2.803,1.209-1.017,2.644-2.086,3.541-3.402,1.862-2.73.231-5.851-.693-8.612-.896-2.677-1.796-5.358-2.892-7.961-.736-1.749-1.527-3.589-2.985-4.865-1.816-1.588-4.439-2.564-5.873-4.54-.853-1.175-1.386-2.5-2.347-3.619-.916-1.067-2.116-1.98-3.507-2.3-2.987-.685-5.289,1.359-5.441,4.271-.135,2.573,3.866,2.565,4,0h0Z"/><path class="i" d="M226.609,116.555c.825,2.137,2.112,3.95,3.322,5.875,1.063,1.693,1.435,3.215,1.352,5.227-.043,1.047.951,2.047,2,2,1.121-.05,1.954-.879,2-2,.097-2.335-.421-4.685-1.58-6.722-.55-.967-1.208-1.872-1.804-2.811-.298-.469-.587-.943-.853-1.431-.132-.242-.258-.486-.377-.735-.059-.124-.116-.248-.171-.374.069.162.059.131-.031-.092-.375-.973-1.361-1.752-2.46-1.397-.947.307-1.8,1.415-1.397,2.46h0Z"/><path class="i" d="M227.909,118.56c1.773-.958,3.835-2.261,4.375-4.348.48-1.857-.482-3.849-2.071-4.836-2.142-1.331-5.058-.953-7.381-.414-2.079.482-4.478,1.369-5.891,3.056-.42.501-.752,1.026-.942,1.658-.092.306-.14.639-.142.958,0,.073.005.142.009.215.08.577.097.709.051.395s-.029-.181.051.395c.214,1.422,1.063,2.565,1.948,3.652.663.815,2.149.74,2.828,0,.795-.866.708-1.959,0-2.828-.166-.204-.367-.467-.583-.835-.091-.155-.248-.557-.122-.181-.065-.192-.119-.379-.168-.576-.012-.048-.051-.303-.008-.031.067.422-.054-.445-.053-.416,0-.033.072.481.047.262-.009-.075-.009-.354-.011-.002-.003.443.118-.299-.009.082-.098.293-.022.057.031-.021.117-.17.127-.078.02-.052-.08.019-.131.137.007.002.065-.064.124-.133.19-.197.104-.101.216-.192.326-.287-.299.259.021-.002.17-.097.166-.106.336-.206.509-.3.184-.1.371-.193.56-.281.084-.039.168-.078.253-.114-.082.035-.321.122.052-.014.44-.161.882-.31,1.334-.434.439-.12.883-.221,1.331-.303.105-.019.21-.036.315-.055.035-.006.388-.059.106-.021.249-.033.5-.056.75-.075.447-.034.887-.032,1.334-.011.399.019.094.006.006-.009.083.014.166.029.249.046.202.042.404.134.605.166.206.033-.114-.051-.144-.068.059.033.123.057.182.091.072.042.148.102.225.132.22.087-.2-.12-.155-.131.048-.011.217.208.254.242.252.227-.135-.106-.109-.141-.011.015.108.158.108.187,0,.028.049.108.064.132.125.198-.13-.44-.091-.215.014.085.057.18.084.262.131.406-.081.007-.002-.138-.013.025-.012.332-.002.352-.08-.156.109-.519-.01-.132-.116.378.241-.367.003-.025-.029.041-.061.093-.083.138-.143.296.236-.245.072-.078-.106.107-.199.227-.307.334-.14.139-.294.261-.44.393.021-.019.271-.194.079-.061-.122.085-.241.174-.365.257-.469.317-.961.597-1.458.866-.922.498-1.289,1.85-.718,2.736.603.936,1.75,1.25,2.736.718h0Z"/><path class="i" d="M217.402,102.114c1.873,2.715,3.712,5.455,5.644,8.13.313.434.662.772,1.195.919.479.132,1.116.072,1.541-.202.839-.541,1.373-1.829.718-2.736-1.932-2.674-3.771-5.415-5.644-8.13-.593-.859-1.781-1.333-2.736-.718-.855.551-1.353,1.815-.718,2.736h0Z"/><path class="f" d="M344.923,200.703c-.88-6.176-2.242-11.784-3.907-16.18-.166-.439-.612-.7-1.078-.648-1.622.181-4.31.282-5.291-.239-3.946-2.092-6.951-1.694-11.467-1.784-2.183-.043-3.727.028-6.645.248-1.406.106-4.057.027-5.306.772s-1.855,1.231-1.817,2.694c.024.934.347,1.737,1.091,2.191.866.529,2.114.769,3.099.948,1.198.218,2.578.375,3.851.621-2.825,1.627-5.567,3.398-8.214,5.301-.65.468-1.389,1.178-1.636,1.94-.207.638-.332,1.53-.168,2.18.229.905.748,1.735,1.567,2.183.918.503,2.111.937,3.302.952.731,2.343.951,3.636,2.954,5.111,2.264,1.667,4.615,4.099,7.469,5.093.786.274,1.619.487,2.59.435.793-.137,1.527-.294,2.268-.678,4.094-2.121,8.988-5.987,12.788-8.101.759-.422,2.768-.85,3.874-1.112.514-.122.856-.617.785-1.14-.036-.264-.072-.527-.109-.788Z"/><path class="f" d="M350.571,150.176c-1.259-2.686-2.367-5.039-3.118-6.61-.411-.855-1.406-1.245-2.285-.904-9.195,3.59-32.536,13.626-40.299,16.919-.917.391-1.34,1.449-.955,2.367,0,0,4.401,10.326,8.718,20.455,1.301-.245,2.912-.228,3.902-.302,2.919-.22,4.462-.291,6.645-.248,4.516.089,7.521-.308,11.467,1.784.982.52,3.67.419,5.291.239l.299-1.629c2.906-.917,19.719-9.151,20.715-10.121l-.383-.768-1.451-2.912c-1.992-4.23-5.665-12.12-8.547-18.269Z"/><path class="i" d="M319.078,187.644c-1.856-.46-3.764-.609-5.633-.998-.787-.163-2.572-.33-2.028-1.474.492-1.034,2.742-.959,3.622-1,1.756-.082,3.507-.237,5.264-.3,1.741-.062,3.482-.007,5.223,0,1.685.006,3.394-.012,5.046.362,1.612.365,3.02,1.357,4.633,1.623.848.14,1.703.177,2.561.16.646-.012,1.712-.302,2.293-.073l-.883-.514c.564.476.877,2.396,1.121,3.203.418,1.385.789,2.785,1.123,4.193.341,1.439.643,2.888.912,4.342.14.758.271,1.518.393,2.279.062.387.122.775.18,1.163l.069.469c.038.62.087.629.147.024l.883-.514c-1.269.511-2.683.612-3.964,1.129-1.375.555-2.633,1.457-3.867,2.268-2.911,1.914-5.729,3.994-8.777,5.691-1.411.786-2.594,1.041-4.136.482-1.485-.538-2.803-1.544-4.02-2.528-1.175-.95-2.622-1.83-3.616-2.969-.799-.916-1.041-2.178-1.39-3.31-.273-.884-1.023-1.418-1.929-1.468-.9-.05-2.374-.327-2.801-1.253-.413-.894.058-1.708.745-2.275,2.236-1.845,4.9-3.346,7.387-4.823,2.212-1.313.202-4.773-2.019-3.454-1.997,1.186-3.957,2.432-5.868,3.753-1.614,1.115-3.436,2.234-4.074,4.205-.581,1.795-.32,3.739.806,5.255,1.313,1.767,3.716,2.476,5.824,2.592l-1.929-1.468c.501,1.626.951,3.262,2.032,4.612,1.116,1.394,2.77,2.444,4.159,3.558,3.168,2.542,7.01,4.996,11.181,3.362,3.759-1.473,7.094-4.305,10.443-6.508,1.443-.949,2.774-1.911,4.353-2.339,1.763-.478,3.889-.648,4.413-2.77.252-1.019-.11-2.238-.266-3.252-.187-1.219-.396-2.434-.628-3.645-.408-2.123-.888-4.232-1.462-6.316-.493-1.79-.986-3.67-1.756-5.364-1.01-2.225-3.085-1.774-5.079-1.736-.7.014-1.496.069-2.174-.15-.543-.175-1.711-.8-2.503-1.075-1.798-.624-3.723-.838-5.618-.896-3.797-.117-7.551.02-11.338.229-1.897.105-3.932.043-5.679.898-1.836.898-3.078,2.443-3.042,4.544.092,5.453,6.815,4.996,10.603,5.935,2.499.619,3.565-3.237,1.063-3.857h0Z"/><path class="i" d="M314.116,180.825c-1.862-4.368-3.724-8.737-5.586-13.105l-2.687-6.303c-.064-.151-.138-.3-.194-.454.009.025.187.409.098.385.181.048.764-.307.94-.382,1.332-.566,2.664-1.135,3.996-1.703,7.595-3.24,15.188-6.483,22.805-9.672,3.404-1.425,6.81-2.844,10.235-4.217.489-.196,1.458-.82,1.976-.783.276.02-.119-.127.11.158.239.297.388.815.552,1.162.779,1.644,1.552,3.29,2.325,4.937,3.489,7.439,6.875,14.931,10.539,22.286l.313-2.424c.392-.357.279-.186-.034-.003-.242.141-.481.288-.724.426-.733.416-1.479.809-2.226,1.199-2.068,1.08-4.156,2.12-6.252,3.145-2.185,1.069-4.38,2.121-6.591,3.135-.883.405-1.768.804-2.66,1.188-.528.227.362-.146-.129.054-.174.071-.348.143-.524.211-.229.089-.459.175-.693.251-2.439.79-1.395,4.654,1.063,3.857,3.978-1.289,7.807-3.411,11.552-5.243,2.159-1.056,4.311-2.127,6.44-3.243,1.204-.631,2.589-1.223,3.606-2.15.686-.625.698-1.65.313-2.424-3.422-6.87-6.594-13.863-9.849-20.814-.864-1.844-1.728-3.687-2.598-5.528-.936-1.981-1.805-4.191-4.394-4.234-1.624-.027-3.509,1.107-4.986,1.708-1.841.748-3.677,1.507-5.512,2.27-8.3,3.451-16.569,6.98-24.837,10.507-1.579.674-3.159,1.348-4.738,2.021-1.866.795-3.853,1.587-3.978,3.969-.094,1.796,1.307,4.07,1.99,5.674,2.295,5.385,4.59,10.77,6.886,16.155.424.994,1.888,1.214,2.736.718,1.028-.601,1.143-1.739.718-2.736h0Z"/><path class="g" d="M263.83,1.932v85.439l2-2H87.86c-2.574,0-2.578,4,0,4h177.97c1.081,0,2-.916,2-2V1.932c0-2.574-4-2.578-4,0h0Z"/><path class="i" d="M204.819,212.809h167.793c2.574,0,2.578-4,0-4h-167.793c-2.574,0-2.578,4,0,4h0Z"/><path class="i" d="M204.819,208.809h-59.565c-1.237,0-2.01.052-3.089.892-12.314,9.594-24.601,19.221-36.902,28.831-.852.666-.698,2.13,0,2.828.841.841,1.974.667,2.828,0,12.431-9.713,24.863-19.425,37.294-29.138l-1.414.586h60.847c2.574,0,2.578-4,0-4h0Z"/><path class="e" d="M71.595,211.533c-1.522-2.691-3.507-5.687-4.454-6.75-6.995-7.84-16.399-13.129-24.703-18.347-9.734,7.646-11.735,8.409-16.942,18.249-3.159,5.969-5.572,14.676-7.857,24.75-2.645,15.71-3.28,24.336-4.289,37.263-.333,3.28-.6,7.428-.767,11.151,15.461-.002,50.655-.002,50.655-.002,2.963.574,6.028.788,9.082.935,10.173.49,20.407.266,30.524-.67.162-9.347-.662-18.712-2.461-27.884-11.423.746-18.336-1.152-20.323-9.93-2.459-10.86-4.649-22.018-8.465-28.764"/><path class="i" d="M35.795,189.09c-1.973,1.549-3.942,3.125-5.648,4.972-1.825,1.976-3.337,4.219-4.683,6.54-3.25,5.603-5.428,11.597-7.154,17.825-1.02,3.68-2.094,7.438-2.722,11.207-.615,3.691-1.184,7.389-1.685,11.097-.824,6.097-1.445,12.214-1.949,18.345-.619,7.523-1.293,15.041-1.511,22.59-.074,2.575,3.926,2.573,4,0,.191-6.627.764-13.218,1.288-19.823.474-5.969,1.003-11.933,1.749-17.875.901-7.176,2.037-14.269,3.836-21.278,1.564-6.092,3.329-12.217,6.326-17.778,1.391-2.581,2.858-5.185,4.787-7.409,1.829-2.109,4.007-3.865,6.196-5.583.85-.668.699-2.129,0-2.828-.84-.84-1.976-.669-2.828,0h0Z"/><path class="i" d="M99.556,255.757c.996,7.414,1.436,14.887,1.317,22.366-.041,2.575,3.959,2.576,4,0,.119-7.479-.321-14.952-1.317-22.366-.144-1.07-.816-2-2-2-.969,0-2.145.922-2,2h0Z"/><path class="i" d="M38.847,255.79c1.14,4.134,2.297,8.306,4.543,12.001,2.299,3.781,5.473,6.644,9.42,8.641,9.297,4.703,20.164,4.619,30.341,4.602,6.235-.01,12.466-.293,18.677-.831,2.545-.22,2.568-4.222,0-4-10.285.891-20.647,1.1-30.955.503-8.075-.468-18.073-2.317-23.059-9.45-2.658-3.802-3.891-8.11-5.11-12.529-.683-2.478-4.544-1.426-3.857,1.063h0Z"/><path class="i" d="M74.551,200.188c.172-1.849.542-3.869-.024-5.683-.589-1.888-1.933-3.247-3.656-4.138-2.846-1.472-5.776-2.785-8.713-4.061-5.759-2.502-11.585-4.921-17.518-6.984-2.436-.847-3.483,3.016-1.063,3.857,5.266,1.831,10.447,3.951,15.568,6.152,2.794,1.201,5.575,2.437,8.303,3.783,1.122.554,2.615,1.041,3.153,2.272.591,1.354.082,3.39-.049,4.803-.1,1.077.991,2,2,2,1.165,0,1.9-.92,2-2h0Z"/><path class="i" d="M69.868,212.543c1.968,3.532,3.185,7.433,4.256,11.315,1.317,4.772,2.362,9.615,3.44,14.444.75,3.36,1.526,6.587,3.873,9.226,1.898,2.134,4.589,3.436,7.332,4.091,4.023.961,8.253.85,12.349.557,2.553-.183,2.573-4.184,0-4-5.305.38-12.652.936-16.609-3.212-2.113-2.215-2.585-5.472-3.241-8.415-.995-4.46-1.971-8.928-3.172-13.338-1.184-4.349-2.571-8.734-4.774-12.687-1.253-2.249-4.709-.234-3.454,2.019h0Z"/><path class="i" d="M42.287,188.698c5.355,3.339,10.822,6.562,15.809,10.447,2.509,1.955,4.894,4.083,7.055,6.418,1.9,2.053,3.337,4.561,4.717,6.979,1.276,2.236,4.733.223,3.454-2.019-1.477-2.588-3.046-5.253-5.053-7.473-2.24-2.477-4.75-4.706-7.379-6.76-5.246-4.101-10.943-7.528-16.584-11.046-2.191-1.366-4.201,2.093-2.019,3.454h0Z"/><path class="i" d="M79.463,219.808c0-2.914-.046-5.828-.067-8.742-.021-3.012.105-6.061-.417-9.039-.187-1.065-1.49-1.664-2.46-1.397-1.124.309-1.584,1.393-1.397,2.46.474,2.703.257,5.577.276,8.312.02,2.802.064,5.604.064,8.405,0,2.574,4,2.578,4,0h0Z"/><path class="i" d="M14.673,227.012c-4.335,0-8.496,1.542-11.328,4.937C1.16,234.571.023,237.779.007,241.189c-.015,3.241,0,6.483,0,9.724v46.093c0,2.574,4,2.578,4,0v-54.734c0-1.766.065-3.474.768-5.146,1.709-4.068,5.645-6.113,9.899-6.113,2.574,0,2.578-4,0-4h0Z"/><path class="d" d="M58.363,167.87c-.469,2.581-2.239,6.543-4.126,8.582-2.001,2.164-7.336,4.025-10.611,4.68"/><path class="i" d="M86.484,146.635c.654,1.355.93,4.672-1.583,5.37-3.387.533-4.229-3.394-3.401-5.441.678-1.676,3.314-2.759,4.984.071Z"/><path class="i" d="M72.857,189.651c.418-1.258.894-2.49,1.45-3.693.156-.337.323-.668.479-1.005.072-.155.319-.626.289-.66l-.047.128c-.423.126-.506.19-.25.194.061.151,1.652.197,1.88.208.612.031,1.226.025,1.838-.009,1.425-.079,2.855-.284,4.25-.586,2.419-.523,4.985-1.319,6.977-2.833,2.254-1.713,3.699-4.256,4.435-6.963.796-2.926,1.063-6.051,1.132-9.074.026-1.151.073-2.061.71-3.077.634-1.011,1.621-1.75,2.272-2.758,1.603-2.485.515-5.48-1.81-7.064-.797-.543-1.715-.825-2.427-1.495-.726-.683-1.246-1.552-1.644-2.461-.949-2.165-1.288-4.62-1.551-6.95-.376-3.323-.466-6.61-1.268-9.88-.613-2.499-4.471-1.441-3.857,1.063,1.225,4.995.804,10.227,2.25,15.189.612,2.101,1.563,4.204,3.136,5.765.804.799,1.722,1.302,2.704,1.833.644.349,1.47.93,1.169,1.733-.322.859-1.406,1.602-1.955,2.334-.854,1.14-1.526,2.585-1.688,4.013-.134,1.181-.046,2.409-.119,3.6-.102,1.654-.275,3.306-.616,4.93-.49,2.334-1.391,4.752-3.407,6.19-1.923,1.372-4.596,1.954-6.888,2.308-1.362.21-2.788.293-4.162.155-1.502-.15-2.915-.292-4.057.941-.143.154-.384.462-.508.674-.119.261-.232.524-.341.789.165-.381.207-.484.124-.311-.171.352-.341.704-.505,1.059-.7,1.515-1.327,3.065-1.854,4.649-.814,2.448,3.048,3.498,3.857,1.063h0Z"/><path class="i" d="M89.998,133.859c-.634-4.738-2.06-9.417-4.903-13.333-2.196-3.024-5.065-5.544-8.181-7.586-9.454-6.194-22.003-7.742-32.75-4.401-9.76,3.034-17.493,10.717-21.801,19.877-5.322,11.315-5.046,24.415,1.028,35.373,2.352,4.243,5.491,8.079,9.143,11.268,2.213,1.933,4.742,3.798,6.394,6.267.645.963,1.078,1.896,1.093,2.899.02,1.343-.085,2.723-.293,4.049-.167,1.066.273,2.151,1.397,2.46.95.261,2.292-.324,2.46-1.397.353-2.246.795-4.87.177-7.108-.665-2.407-2.369-4.438-4.106-6.164-3.044-3.023-6.456-5.533-9.18-8.882-6.82-8.385-9.575-19.556-6.97-30.093,2.421-9.794,9.043-19.092,18.327-23.406,8.844-4.109,19.97-3.746,28.785.337,4.033,1.868,7.723,4.524,10.572,7.953.073.088.144.177.217.265.356.432-.015-.037.155.197.142.196.286.39.42.592.557.836,1.039,1.733,1.503,2.623,1.342,2.572,2.13,5.336,2.515,8.208.143,1.07.817,2,2,2,.969,0,2.144-.922,2-2h0Z"/><path class="i" d="M86.89,167.963c2.189.692,4.488,1.01,6.756.546.472-.097.958-.514,1.195-.919.251-.429.357-1.061.202-1.541-.352-1.088-1.36-1.622-2.46-1.397-.198.041-.397.074-.598.101l.532-.071c-.823.1-1.648.075-2.469-.033l.532.071c-.893-.125-1.767-.343-2.627-.614-.998-.315-2.227.371-2.46,1.397-.248,1.09.328,2.123,1.397,2.46h0Z"/><path class="i" d="M63.481,151.681c-2.068-1.752-4.782-2.746-7.474-1.852-2.529.839-4.062,3.111-4.45,5.68-.642,4.256,1.306,8.988,4.598,11.73,1.938,1.614,4.206,2.671,6.627,3.348,2.483.694,3.543-3.164,1.063-3.857-1.073-.3-1.923-.589-2.827-1.046-.847-.428-1.755-1.021-2.274-1.477-.704-.618-1.202-1.182-1.6-1.781-.59-.888-.902-1.546-1.193-2.444-.595-1.835-.905-3.806.113-5.448.938-1.512,3.228-1.177,4.589-.024.824.698,2.02.808,2.828,0,.716-.716.828-2.127,0-2.828h0Z"/><path class="i" d="M358.481,233.834c-1.13-1.87-2.34-3.711-4.119-5.026-1.936-1.431-4.364-1.78-6.712-1.529-2.083.223-5.451.497-5.267,3.357.087,1.357,1.323,2.415,2.15,3.394.865,1.024,1.729,2.047,2.594,3.071l1.414-3.414c-1.927.058-3.859.281-5.741.703-1.453.326-2.966.883-3.817,2.188-1.085,1.665-.512,3.657.517,5.188,1.074,1.598,2.431,2.391,4.34,2.602,1.481.164,2.368.406,3.367,1.586.961,1.136,1.586,2.526,2.444,3.737.962,1.358,2.164,2.733,3.793,3.278,1.84.615,3.043-.532,4.702-.949,2.495-.627,1.438-4.485-1.063-3.857-.593.149-1.145.406-1.69.679-.201.101-.471.3-.706.325-.221.024.197.093-.131-.063-.943-.452-1.596-1.608-2.124-2.457-1.251-2.013-2.489-4.243-4.673-5.388-1.162-.61-2.307-.696-3.582-.856-.844-.106-1.766-.864-1.812-1.805.016.329-.176.127.264-.012.538-.17,1.074-.309,1.629-.424,1.416-.292,2.838-.432,4.283-.475,1.823-.055,2.519-2.106,1.414-3.414-.683-.808-1.365-1.616-2.048-2.425-.588-.697-1.387-1.425-1.798-2.222l.273,1.009-.009.003-.514.883c-.195.198-.26.07.053.051.305-.018.635-.121.939-.172.518-.089,1.036-.157,1.562-.186,1.005-.055,2.043-.019,2.964.429,1.699.827,2.714,2.659,3.65,4.21,1.329,2.201,4.789.193,3.454-2.019h0Z"/><path class="i" d="M300.444,247.485c-2.988-3.588-5.825-7.291-8.566-11.07-1.4-1.929-2.777-3.874-4.144-5.826-.638-.911-1.273-1.824-1.907-2.737-.362-.522-.724-1.044-1.086-1.567-.181-.261-.362-.522-.542-.783-.234-.457-.316-.541-.248-.252l-.273,1.009.206-.271-.718.718c3.302-2.052,6.985-3.662,10.479-5.359,3.636-1.766,7.306-3.463,11.006-5.09,1.8-.792,3.607-1.568,5.423-2.323,1.282-.534,2.569-1.324,3.981-1.241,2.102.123,4.186.561,6.307,1.013,2.361.503,4.713,1.076,7.025,1.772.47.141.939.288,1.404.446.183.062.366.126.547.193.092.034.607.242.372.139-.196-.086.327.155.446.239.598.423,1.053,1.122,1.498,1.693.225.289-.172-.224.072.094.109.141.218.282.326.423.269.349.538.698.806,1.047.618.803,1.235,1.605,1.852,2.409,1.433,1.866,2.865,3.732,4.296,5.599,2.104,2.743,4.206,5.487,6.308,8.232.656.856,1.722,1.311,2.736.718.843-.493,1.378-1.873.718-2.736-2.656-3.469-5.314-6.937-7.973-10.404-1.723-2.245-3.445-4.491-5.173-6.733-.984-1.277-1.905-2.706-3.241-3.641-.81-.567-1.791-.883-2.724-1.195-2.974-.993-6.056-1.715-9.126-2.338-1.593-.323-3.194-.599-4.807-.804-1.477-.188-2.876-.34-4.295.223-9.8,3.889-19.385,8.414-28.716,13.316-1.282.674-2.741,1.333-2.776,3.002-.028,1.342,1.036,2.452,1.758,3.494,1.674,2.416,3.354,4.828,5.061,7.221,3.462,4.853,7.046,9.619,10.861,14.201,1.649,1.98,4.465-.863,2.828-2.828h0Z"/><path class="i" d="M354.761,255.673c-7.49,3.15-15.059,6.109-22.71,8.847-1.016.364-1.698,1.363-1.397,2.46.27.983,1.438,1.763,2.46,1.397,7.65-2.738,15.219-5.697,22.71-8.847.995-.418,1.71-1.322,1.397-2.46-.258-.938-1.458-1.818-2.46-1.397h0Z"/><path class="i" d="M282.17,228.682l-4.26,1.99c-1.166.545-1.271,2.314-.405,3.141,6.925,6.612,13.701,13.379,20.55,20.07,1.843,1.8,4.674-1.026,2.828-2.828-6.849-6.691-13.625-13.458-20.55-20.07l-.405,3.141,4.26-1.99c.979-.457,1.227-1.865.718-2.736-.587-1.003-1.754-1.176-2.736-.718h0Z"/><path class="i" d="M301.788,254.856c-.203-1.488-.394-2.977-.579-4.467-.081-.65-.177-1.3-.233-1.952-.021-.245-.035-.491-.034-.737,0-.089.076-.702.022-.447.032-.152.254-.555.032-.282.108-.134.258-.196.315-.212.134-.038.478.026.778.17,1.081.518,1.81,1.578,2.428,2.56,1.453,2.308,2.819,4.673,4.185,7.033,1.487,2.568,3.054,5.071,4.024,7.892.351,1.021,1.372,1.696,2.46,1.397.993-.273,1.75-1.434,1.397-2.46-.968-2.812-2.396-5.328-3.875-7.891-1.313-2.275-2.63-4.548-3.997-6.791-1.394-2.287-2.912-4.635-5.544-5.609-2.951-1.093-5.818.843-6.173,3.877-.147,1.25.095,2.508.25,3.747.218,1.746.448,3.491.686,5.235.146,1.071,1.518,1.656,2.46,1.397,1.155-.317,1.543-1.386,1.397-2.46h0Z"/><path class="i" d="M292.522,245.139c-1.71.652-3.392,1.425-4.658,2.792-1.466,1.583-2.578,4.159-2.107,6.338.225,1.04.958,1.779,1.319,2.737.329.873-.419,1.682-.621,2.557-.579,2.514.586,4.967,2.661,6.385l-.718-2.736c-2.092,4.915-.613,10.636,4.12,13.417,2.335,1.372,5.172,1.597,7.786,2.068,3.039.548,6.078,1.095,9.117,1.643,1.062.191,2.156-.289,2.46-1.397.266-.969-.328-2.268-1.397-2.46-2.399-.432-4.798-.864-7.198-1.297-2.363-.426-4.812-.709-7.129-1.341-3.648-.995-5.827-5.04-4.306-8.614.448-1.052.27-2.061-.718-2.736-1.476-1.009-.501-2.439-.125-3.709.583-1.968-.315-3.234-1.134-4.916-.51-1.048.163-2.408.915-3.218.744-.802,1.793-1.274,2.796-1.656,1.009-.385,1.703-1.347,1.397-2.46-.265-.966-1.446-1.784-2.46-1.397h0Z"/><path class="f" d="M361.964,144.813c.658-5.119,1.896-7.923,4.132-11.686,1.013-1.705,6.768-9.278,18.3-12.36,5.504-1.471,11.532-2.02,17.622-.797,6.091,1.223,15.897,4.208,23.767,17.873,3.059,5.311,5.249,12.79,4.913,20.004-.609,13.055-7.717,21.944-12.481,26.418-3.091,2.903-8.639,6.726-9.364,10.963-.065.38-.07,1.098-.035,1.926-3.902-.118-7.043.537-11.289,1.621-7.417,1.893-11.44,4.181-16.424,7.369-.963-2.766-1.754-5.041-1.754-5.041-.955-2.95-2.236-5.37-2.276-5.498-.256-.785-1.056-1.268-1.866-1.111-3.377.649-8.454-.22-12.088-1.865-1.854-.839-3.593-2.337-4.831-5.172-.585-1.325-.985-3.087-1.252-4.888-.404-2.734-.506-5.571-.472-7.186-.241-1.202-.678-2.331-1.477-3.33-1.206-1.513-3.24-2.773-1.977-5.149.48-.898,1.32-1.53,2.252-1.949,4.697-2.108,5.393-8.941,5.908-13.865.084-2.931.45-5.575,1.052-7.963l-.36,1.685Z"/><path class="j" d="M386.639,120.227c-.756.162-1.504.343-2.242.54-.575.154-1.136.319-1.683.493-10.412,3.329-15.655,10.247-16.618,11.866-1.883,3.168-3.058,5.656-3.775,9.418,9.522.979,16.976,7.885,21.328,13.609,2.003,2.864,2.328,4.772,4.009,8.921,1.167-1.141,2.282-2.022,3.971-2.234,1.502-.189,2.897.17,3.886,1.093,1.472,1.373,1.914,3.926,1.568,5.94-.556,3.232-1.959,5.704-4.128,7.504.058.281.093.441.093.441.928,4.255,5.603,11.338,9.881,14.649l5.884,4.555c-.004-.172-.009-.344-.009-.344-.015-.624-.002-1.146.05-1.451.725-4.237,6.273-8.06,9.364-10.963,4.764-4.474,11.872-13.363,12.481-26.418.336-7.214-1.854-14.692-4.913-20.004-7.87-13.665-17.677-16.65-23.767-17.873-5.274-1.059-10.5-.789-15.38.257Z"/><path class="i" d="M366.287,145.394c4.874,1.547,9.087,4.612,12.605,8.268,1.515,1.574,3.003,3.234,4.067,5.153,1.117,2.015,1.768,4.26,2.612,6.395.397,1.004,1.338,1.705,2.46,1.397.956-.263,1.796-1.45,1.397-2.46-.953-2.411-1.704-4.944-2.947-7.229-1.225-2.251-2.99-4.246-4.76-6.085-3.998-4.155-8.844-7.543-14.37-9.297-2.459-.78-3.512,3.08-1.063,3.857h0Z"/><path class="i" d="M389.792,165.821c1.391-1.179,3.727-1.548,4.733.032,1.061,1.666.714,3.748.119,5.579-.546,1.683-1.466,3.099-2.855,4.32-1.338,1.176-3.322,2.051-5.213,2.579-2.476.692-1.424,4.552,1.063,3.857,4.161-1.163,8.038-3.563,9.99-7.55.981-2.003,1.683-4.352,1.55-6.601-.15-2.53-1.194-5.26-3.58-6.474-2.967-1.51-6.21-.625-8.636,1.431-.825.699-.719,2.109,0,2.828.817.817,2.002.7,2.828,0h0Z"/><path class="i" d="M363.506,157.827c-.666,1.38-.948,4.759,1.612,5.47,3.45.543,4.308-3.457,3.465-5.543-.69-1.707-3.375-2.811-5.077.072Z"/><path class="i" d="M381.281,200.572c-.449-1.352-.973-2.673-1.546-3.978-.194-.44-.395-.877-.603-1.311-.074-.155-.14-.334-.232-.48l-.049-.101c.221.532.205.497-.047-.105-1.406-2.934-4.479-1.782-7.044-1.91-2.541-.126-5.198-.707-7.529-1.74-2.072-.919-3.501-2.6-4.288-4.718-1.037-2.789-1.262-5.923-1.358-8.872-.042-1.272.019-2.454-.402-3.681-.492-1.434-1.277-2.628-2.296-3.74-.434-.473-1.243-1.079-1.14-1.785.154-1.054,1.689-1.433,2.431-1.898,2.026-1.269,3.318-3.255,4.2-5.431,2.213-5.461,1.493-11.523,2.876-17.162.613-2.5-3.243-3.566-3.857-1.063-1.275,5.199-.795,10.664-2.389,15.795-.594,1.913-1.539,3.743-3.374,4.705-2.407,1.262-4.656,3.61-3.709,6.58.735,2.303,3.359,3.482,3.638,5.987.137,1.228.04,2.509.133,3.747.125,1.683.322,3.37.642,5.027.541,2.805,1.613,5.547,3.608,7.647,1.743,1.835,4.113,2.815,6.498,3.522,2.905.861,6.11,1.355,9.135.989-.218.026.834-.083.852-.118.249-.003.175-.062-.223-.179-.106-.286-.054-.169.157.353.132.291.279.576.415.865.633,1.341,1.176,2.711,1.644,4.119.807,2.431,4.672,1.389,3.857-1.063h0Z"/><path class="i" d="M363.964,144.813c.562-4.202,2.05-8.334,4.599-11.753-.301.403.194-.24.286-.351.201-.243.408-.482.618-.717.555-.622,1.14-1.217,1.747-1.788,1.538-1.448,3.22-2.712,5.024-3.81,8.991-5.474,20.58-6.58,30.483-3.089,9.154,3.227,16.327,11.493,19.655,20.487,4.035,10.904,2.61,22.751-3.87,32.386-2.667,3.965-6.088,6.956-9.621,10.112-2.191,1.958-4.389,4.141-5.506,6.911-1.018,2.522-.546,5.503-.136,8.113.168,1.068,1.503,1.66,2.46,1.397,1.138-.313,1.565-1.389,1.397-2.46-.341-2.167-.685-4.512.372-6.387,1.342-2.382,3.593-4.203,5.635-5.962,3.322-2.863,6.295-5.932,8.766-9.575,6.925-10.211,8.684-23.133,4.645-34.807-3.563-10.297-11.247-19.496-21.47-23.597-10.385-4.166-22.783-3.272-32.682,1.815-4.086,2.1-7.904,5.04-10.759,8.66-3.278,4.157-4.947,9.225-5.641,14.414-.143,1.073,1.022,2,2,2,1.2,0,1.856-.924,2-2h0Z"/><path class="i" d="M362.02,175.659c-.875.277-1.766.498-2.675.626l.532-.071c-.836.11-1.676.135-2.515.034l.532.071c-.204-.027-.407-.062-.609-.103-.53-.108-1.063-.078-1.541.202-.415.243-.811.718-.919,1.195-.227.998.301,2.236,1.397,2.46,2.304.471,4.64.146,6.862-.556.491-.155.932-.469,1.195-.919.251-.429.357-1.061.202-1.541-.323-1-1.392-1.735-2.46-1.397h0Z"/><path class="i" d="M391.12,178.35c.661,2.919,2.235,5.691,3.886,8.156,1.815,2.709,3.929,5.355,6.509,7.376.849.665,2,.829,2.828,0,.692-.692.855-2.159,0-2.828-2.382-1.866-4.276-4.167-5.884-6.566-.842-1.258-1.617-2.564-2.284-3.924-.16-.325-.312-.654-.458-.986.084.19.032.084-.019-.045-.067-.17-.135-.339-.198-.51-.211-.568-.39-1.145-.523-1.736-.239-1.054-1.453-1.674-2.46-1.397-1.083.298-1.636,1.403-1.397,2.46h0Z"/><path class="e" d="M327.131,263.221c5.999,1.434,12.689,3.1,13.536,3.356l4.936,1.491c3.804-13.077,5.671-22.496,11.356-36.484,1.715-4.22,3.887-8.263,6.948-11.636.373-.411.738-.806,1.097-1.186,2.433-2.581,4.571-4.49,7.048-6.27.185-.133.373-.266.562-.398l2.737-1.877c.673-1.604,1.883-4.779,3.094-5.808,2.251-1.913,8.564-5.46,13.801-6.9,5.749-1.581,13.643-3.087,16.141-3.165,2.174-.067,5.526,3.131,7.963,7.121l5.633.813c7.891,5.562,13.756,13.658,17.804,22.423,4.918,10.648,7.306,22.314,9.346,33.803-1.354-.49-2.878-.58-4.367-.147-11.401,3.314-27.906,8.131-39.238,11.4-3.816,1.101-6.185,4.596-6.462,8.558-.541,7.73-1.187,12.683-1.674,19.585-12.403,0-35.618,0-35.618,0-4.557,1.452-11.858,1.715-24.973-3.998-9.957-4.337-23.806-11.454-27.608-15.089,1.283-5.774,4.887-13.249,7.649-17.872.577.106,1.012.181,1.012.181,1.34.232,5.145,1.11,9.278,2.099Z"/><path class="i" d="M379.856,264.866c-2.47,7.011-4.778,14.184-7.92,20.932-2.274,4.882-6.421,9.143-11.778,10.48-.908.227-1.623.342-2.26.403-1.041.1-2.089.122-3.134.083-2.689-.101-5.334-.635-7.923-1.349-6.966-1.921-13.564-5.164-20.005-8.389-3.318-1.661-6.606-3.391-9.81-5.264-2.255-1.319-4.658-2.706-6.421-4.363l.514,1.946c1.418-6.195,4.306-12.146,7.556-17.576,1.325-2.214-2.132-4.228-3.454-2.019-2.268,3.79-4.211,7.786-5.837,11.893-.827,2.089-1.633,4.258-2.083,6.466-.392,1.927,1.34,2.922,2.701,3.911,6.39,4.645,13.818,8.102,20.951,11.427,7.518,3.504,15.509,7.049,23.936,7.323,6.736.218,12.886-2.578,17.246-7.774,2.639-3.145,4.109-6.954,5.606-10.735,2.133-5.389,4.046-10.865,5.971-16.33.857-2.433-3.006-3.479-3.857-1.063h0Z"/><path class="f" d="M396.771,308.616c.489-10.314,1.614-20.592,2.293-30.302.277-3.962,2.646-7.457,6.462-8.558,11.333-3.269,27.837-8.086,39.238-11.4,4.447-1.293,9.214,2.08,8.858,6.698-1.103,14.303-1.251,19.809-1.971,30.295l-54.881,13.267Z"/><path class="i" d="M399.051,303.666c.402-8.319,1.367-16.589,1.981-24.893.242-3.271,1.918-6.168,5.191-7.136,3.751-1.109,7.515-2.174,11.271-3.265,8.01-2.326,16.017-4.66,24.026-6.99,3.005-.874,6.497-2.425,9.005.36,1.144,1.27,1.146,2.666,1.023,4.283-.17,2.233-.333,4.468-.488,6.702-.52,7.537-.893,15.083-1.409,22.621-.176,2.569,3.825,2.558,4,0,.489-7.154.847-14.316,1.33-21.47.156-2.303.321-4.605.494-6.907.167-2.21.262-4.222-.809-6.244-1.897-3.584-6.228-5.284-10.101-4.389-4.04.934-8.027,2.326-12.008,3.485-4.391,1.278-8.783,2.557-13.175,3.833-4.125,1.199-8.251,2.397-12.378,3.589-2.01.581-3.935,1.123-5.608,2.437-1.445,1.134-2.559,2.612-3.29,4.295-1.03,2.372-1.072,4.882-1.276,7.422-.192,2.392-.414,4.782-.64,7.171-.475,5.026-.898,10.051-1.142,15.094-.124,2.573,3.876,2.567,4,0h0Z"/><path class="i" d="M341.198,264.648c-3.52-1.045-7.145-1.812-10.712-2.676-4.011-.971-8.035-2.062-12.102-2.778-1.063-.187-2.155.286-2.46,1.397-.265.966.327,2.272,1.397,2.46,4.067.717,8.091,1.807,12.102,2.778,3.567.864,7.192,1.631,10.712,2.676,2.473.734,3.529-3.125,1.063-3.857h0Z"/><path class="i" d="M371.603,210.367c-3.736,2.628-7.189,5.757-10.084,9.298-3.017,3.691-5.094,7.892-6.856,12.295-3.339,8.343-5.858,16.927-8.21,25.591-1.396,5.141-2.817,10.274-4.396,15.363-.765,2.464,3.096,3.518,3.857,1.063,2.582-8.322,4.656-16.784,7.132-25.136,1.23-4.149,2.589-8.259,4.112-12.31,1.621-4.31,3.343-8.594,5.972-12.404,2.751-3.987,6.539-7.526,10.491-10.306,2.09-1.47.093-4.939-2.019-3.454h0Z"/><path class="i" d="M420.971,204.004c11.814,8.41,18.318,22.087,22.076,35.709,1.203,4.359,2.165,8.779,3.028,13.217.491,2.524,4.347,1.456,3.857-1.063-2.99-15.358-7.494-30.936-17.868-43.047-2.677-3.125-5.723-5.884-9.074-8.269-.88-.627-2.226-.156-2.736.718-.587,1.004-.165,2.108.718,2.736h0Z"/><path class="i" d="M410.605,200.851c-7.218.743-14.446,1.71-21.49,3.492-6.184,1.564-12.147,3.822-17.881,6.61-2.315,1.125-.289,4.576,2.019,3.454,11.78-5.727,24.398-8.222,37.352-9.555,1.074-.111,2-.84,2-2,0-.996-.919-2.111-2-2h0Z"/><path class="i" d="M418.075,200.455c-1.888-3.036-4.522-6.633-8.061-7.842-1.238-.423-2.508-.223-3.771-.055-1.634.217-3.258.495-4.876.805-3.78.723-7.64,1.484-11.29,2.721-3.679,1.246-7.272,2.982-10.539,5.084-1.365.878-2.682,1.786-3.594,3.154-1.094,1.64-1.769,3.553-2.523,5.363-.416.998.449,2.2,1.397,2.46,1.152.316,2.043-.396,2.46-1.397.545-1.309,1.067-2.639,1.784-3.867.563-.964,1.22-1.418,2.114-2.011,2.752-1.826,5.762-3.371,8.853-4.532,3.209-1.205,6.614-1.925,9.962-2.628,2.62-.55,5.333-1.173,7.969-1.344.965-.063,1.849.501,2.761,1.312,1.554,1.382,2.805,3.035,3.9,4.795,1.356,2.182,4.818.176,3.454-2.019h0Z"/><path class="i" d="M130.004,278.285c15.982-2.462,31.969-4.886,47.957-7.312,3.1-.47,6.199-.941,9.299-1.409,1.29-.195,1.803-1.938,1.195-2.938-6.033-9.934-11.844-20.01-18.113-29.799-1.201-1.875-2.412-3.745-3.777-5.506-.459-.592-1.29-.61-1.946-.514-10.928,1.599-21.856,3.199-32.784,4.799-1.07.157-1.658,1.511-1.397,2.46.315,1.147,1.387,1.554,2.46,1.397,10.928-1.6,21.856-3.199,32.784-4.799l-1.946-.514c-.356-.46.203.284.33.461.265.37.523.745.779,1.122.583.859,1.151,1.728,1.713,2.601,1.485,2.304,2.929,4.633,4.364,6.969,3.305,5.379,6.546,10.797,9.791,16.212,1.425,2.379,2.848,4.76,4.288,7.131l1.195-2.938c-15.168,2.294-30.335,4.602-45.5,6.919-3.919.599-7.838,1.198-11.756,1.802-1.068.165-1.659,1.505-1.397,2.46.314,1.141,1.389,1.562,2.46,1.397h0Z"/><path class="i" d="M106.405,251.204c.247-.389.496-.777.759-1.156.037-.053.4-.507.382-.531.021.028-.272.338,0,.004.059-.073.119-.145.18-.216.259-.302.534-.591.824-.863.137-.129.278-.254.422-.376.08-.068.162-.133.242-.2.277-.23-.258.185-.056.045.641-.444,1.289-.854,1.999-1.18.076-.035.155-.065.23-.102-.468.238-.195.083-.071.035.176-.068.353-.132.532-.191.398-.131.804-.237,1.214-.324,1.025-.217,1.716-1.475,1.397-2.46-.35-1.082-1.362-1.629-2.46-1.397-1.773.376-3.511,1.149-4.961,2.24-.776.584-1.509,1.205-2.142,1.945-.725.847-1.35,1.769-1.947,2.708-.562.885-.213,2.245.718,2.736.988.522,2.136.227,2.736-.718h0Z"/><path class="i" d="M115.606,241.43c.545-.103,1.09-.207,1.637-.302.275-.048.551-.091.827-.135.246-.035.276-.04.09-.015.138-.018.276-.034.415-.048.55-.058,1.103-.094,1.656-.093.274,0,.548.01.822.031.136.01.273.023.408.039-.193-.025-.167-.018.077.021.481.109.951.219,1.41.403-.441-.177.025.028.092.063.17.09.327.199.492.295.31.181-.301-.279.107.083.116.103.224.213.331.325.361.378-.14-.265.009-.004.058.102.125.205.188.304.244.386-.125-.399-.048-.136.106.359-.084-.044.007-.174.008.1.01.2.006.3.051-.268.054-.295.008-.082.108-.243.108-.252,0-.026-.054.105-.111.208-.171.31-.059.099-.487.608-.169.272-.109.115-.22.225-.33.338-.17.144-.156.135.04-.026-.085.058-.173.112-.264.162.255-.101.27-.118.044-.051.259-.024.275-.026.05-.007-.102.007-.204.006-.305-.002.246.033.261.019.045-.042-.203-.13-.495-.198-.725-.268-.6-.184-1.232-.279-1.856-.337-1.132-.106-2.31.039-3.392.383-.996.316-1.738,1.405-1.397,2.46.323.999,1.392,1.736,2.46,1.397.215-.068.431-.131.652-.18.115-.026.667-.081.326-.065.226-.011.449-.03.675-.03.129,0,.258.005.386.012.036.002.421.035.215.011-.237-.028.159.03.211.041.095.019.189.039.283.062.219.054.435.119.648.194.539.19,1.044.363,1.629.368,2.18.015,4.195-1.79,4.78-3.854.447-1.576-.135-3.05-1.215-4.2-1.327-1.414-3.22-2.06-5.096-2.295-2.386-.299-4.785.2-7.122.64-1.03.194-1.71,1.492-1.397,2.46.356,1.101,1.356,1.605,2.46,1.397h0Z"/><path class="i" d="M126.871,243.564c.059.007.118.014.178.022l-.532-.071c.643.087,1.277.223,1.878.469l-.478-.202c.182.078.361.164.532.266.096.057.185.128.281.184-.514-.298-.26-.21-.112-.076.073.066.143.135.209.208.296.323-.145-.235-.071-.105.112.197.235.378.328.587l-.202-.478c.115.279.196.563.241.862l-.071-.532c.037.305.035.607,0,.912l.071-.532c-.053.375-.153.733-.294,1.085l.202-.478c-.109.253-.233.497-.381.73-.094.149-.406.466.017.012-.091.098-.172.207-.263.306-.706.772-.82,2.076,0,2.828.769.706,2.074.824,2.828,0,1.745-1.907,2.479-4.715,1.141-7.063-.512-.899-1.346-1.667-2.285-2.102-1.051-.487-2.078-.696-3.222-.833-.473-.057-1.093.264-1.414.586-.347.347-.608.916-.586,1.414.023.517.193,1.054.586,1.414.416.382.857.519,1.414.586h0Z"/><path class="i" d="M130.102,249.322c1.781.758,1.988,2.368,1.093,3.931-.569.994-.176,2.112.718,2.736,1.233.862,1.184,2.553.597,3.772-.841,1.747-2.45,3.003-3.952,4.158-.914.703-1.235,1.653-.718,2.736.274.574-.313,1.329-.706,1.69-.165.152-.84.548-.732.5.102-.045-.528.17-.708.223-1.654.487-3.37.789-5.068,1.08-.771.132-1.545.256-2.319.369-.563.083-.686.097-1.412.179-2.89.327-5.746.913-8.642,1.182-1.076.1-2,.848-2,2,0,1.004.918,2.1,2,2,3.107-.288,6.18-.875,9.277-1.253,1.998-.244,3.991-.565,5.966-.949,1.829-.355,3.979-.659,5.541-1.755,2.383-1.671,3.553-4.57,2.256-7.285l-.718,2.736c2.526-1.943,5.05-4.009,6.041-7.169.911-2.904-.234-5.954-2.687-7.668l.718,2.736c.983-1.717,1.401-3.452.889-5.415-.455-1.743-1.76-3.284-3.417-3.988-.993-.422-2.143-.297-2.736.718-.491.84-.282,2.311.718,2.736h0Z"/><path class="i" d="M44.225,183.141c1.797-.373,3.562-.918,5.27-1.59,1.904-.749,3.758-1.609,5.37-2.885,1.478-1.171,2.536-2.874,3.382-4.537.912-1.792,1.701-3.723,2.072-5.707.198-1.061-.294-2.157-1.397-2.46-.974-.268-2.261.33-2.46,1.397-.16.854-.403,1.689-.695,2.507-.309.866-.543,1.398-.973,2.244-.418.823-.885,1.625-1.424,2.375-.06.084-.121.167-.183.249.087-.115.088-.12.004-.015-.134.16-.27.319-.416.469-.111.114-.227.222-.346.327-.068.06-.459.36-.127.115-2.672,1.976-5.845,2.969-9.14,3.653-1.058.22-1.67,1.467-1.397,2.46.302,1.098,1.399,1.617,2.46,1.397h0Z"/><path class="i" d="M85.197,128.892c-1.755,5.822-5.511,11.057-10.527,14.524-.887.613-1.292,1.754-.718,2.736.514.879,1.843,1.335,2.736.718,5.903-4.08,10.292-10.035,12.365-16.914.744-2.47-3.115-3.526-3.857-1.063h0Z"/><path class="i" d="M73.574,135.519c-3.378,5.287-6.894,10.805-12.198,14.261-.904.589-1.282,1.772-.718,2.736.526.899,1.827,1.31,2.736.718,5.94-3.871,9.884-9.827,13.633-15.696.582-.91.188-2.206-.718-2.736-.966-.565-2.153-.195-2.736.718h0Z"/><path class="j" d="M29.785,163.743c-4.305.535-8.112,1.999-10.608,5.097-3.041,3.775-3.161,8.978-1.371,13.227,2.726,6.471,7.543,15.619,3.241,21.034,3.316,2.881,10.367-.095,12.719-1.442,2.991-1.713,4.794-4.351,6.528-7.221,1.908-3.157,3.301-9.12,3.233-11.382-.049-1.636-.407-4.206-.749-6.212"/><path class="i" d="M27.885,162.02c-3.291.612-6.485,1.872-8.969,4.172-2.509,2.324-3.903,5.523-4.22,8.897-.613,6.511,3.73,12.181,5.389,18.243.81,2.962,1.201,6.172-.764,8.76-.485.638-.312,1.917.313,2.424,4.366,3.542,11.395,1.279,15.667-1.449,5.507-3.516,8.619-10.213,9.814-16.433.672-3.499.18-6.832-.406-10.32-.179-1.066-1.495-1.662-2.46-1.397-1.13.31-1.577,1.391-1.397,2.46.527,3.131.905,6.041.205,9.157-.747,3.323-1.951,6.262-3.874,9.074-1.748,2.555-3.994,4.376-6.876,5.487-2.039.785-5.849,2.211-7.844.593l.313,2.424c4.818-6.343.062-15.437-2.629-21.627-1.455-3.345-2.215-7.075-.578-10.525,1.767-3.724,5.533-5.366,9.381-6.081,2.528-.47,1.457-4.325-1.063-3.857h0Z"/></g></svg>