<svg xmlns="http://www.w3.org/2000/svg" width="244.793" height="244.807" viewBox="0 0 244.793 244.807"><defs><style>.a{fill:#7abee6;}.b{fill:#74c66d;}.c{fill:#211715;}</style></defs><path class="a" d="M122.4,2.4c-70.955,0-120,54.78-120,118.885,0,71.723,50.1,121.115,120,121.115s120-49.392,120-121.115C242.4,57.18,193.355,2.4,122.4,2.4Z"/><path class="b" d="M187.843,189.645a14.724,14.724,0,0,0-1.7.727c-5.734,2.9-10.959,6.77-16.353,10.238a66.905,66.905,0,0,1-9.022,4.54c-3.465,1.542-7.074,2.316-9.672,5.328-2.3,2.669-3,5.751-3.067,9.166a9.362,9.362,0,0,0,1.087,5.231c1.584,2.506,4.188,2.754,6.8,2.112a71.085,71.085,0,0,1,9.718-1.685c1.639-.168,3.438-.567,4.985.133a5.088,5.088,0,0,1,2.577,2.918,24.647,24.647,0,0,0,1.387,3.563A110.234,110.234,0,0,0,212.44,204.7c-.164-3.778-.673-10.475-5.011-12.008a5.7,5.7,0,0,0-3.988.289,14.454,14.454,0,0,1-2.532.978,2.53,2.53,0,0,1-2.889-1.363C195.938,188.586,191.6,188.317,187.843,189.645Z"/><path class="b" d="M172.412,169.178a7.338,7.338,0,0,0-.55-6.178c-1.544-2.238-4.579-2.629-7.065-2.149a10.529,10.529,0,0,0-1.608.447c-3.726,1.363-7.293,3.957-8.888,7.678-1.31,3.058-.938,6.549,2.387,8.032,5.554,2.477,12.152-.275,14.867-5.646A12.7,12.7,0,0,0,172.412,169.178Z"/><path class="b" d="M129.379,168.754a2.06,2.06,0,0,1,.674-1.673,3.245,3.245,0,0,1,3.666-.125,89.412,89.412,0,0,1,13.212,13.656,4.734,4.734,0,0,1,.92,2.111,2.522,2.522,0,0,1-2.618,2.75c-1.708.139-5.97-2.822-7.879-4.7C132.817,176.317,129.643,171.476,129.379,168.754Z"/><path class="b" d="M203.624,168.2a5.813,5.813,0,0,0-4.1,3.212c-.937,2.4.155,5.022,1.735,6.861,1.7,1.977,4.588,2.584,7.1,2.343a12.138,12.138,0,0,0,7.575-3.348c1.64-1.766,2.848-4.468,1.537-6.762a4.609,4.609,0,0,0-2.342-1.891c-3.03-1.211-7.117-1.078-10.307-.655A9.353,9.353,0,0,0,203.624,168.2Z"/><path class="b" d="M170.038,131.777c1.192-2.714,4.849-2.018,6.112-.155a22.255,22.255,0,0,1,4.31,8.064,23.59,23.59,0,0,1,1.2,9.326,3.714,3.714,0,0,1-2.889,3.542,4.449,4.449,0,0,1-4.428-1.292c-1.687-1.964-3.074-5.506-3.921-9.1C169.44,137.977,169.185,133.72,170.038,131.777Z"/><path class="b" d="M208.385,107.332a29.515,29.515,0,0,1-5.938,2.731,6.5,6.5,0,0,1-4,.374,3.743,3.743,0,0,1-2.53-2.212,3.835,3.835,0,0,1,.12-2.7c.726-1.81,2.37-2.925,3.808-4.131a17.163,17.163,0,0,0,3.842-3.935c1.963-2.807,1.575-10.276,7.092-8.73,2.984.836,3.133,4.217,3.037,6.768a23.4,23.4,0,0,1-.916,6.587A9.849,9.849,0,0,1,208.385,107.332Z"/><path class="b" d="M196.868,118.53a10.347,10.347,0,0,0,.322-3.619,4.214,4.214,0,0,0-3.477-4.12A3.966,3.966,0,0,0,190,112.039a5.068,5.068,0,0,0-.486,4.126,7.022,7.022,0,0,0,1.939,3.887A3.465,3.465,0,0,0,196.868,118.53Z"/><path class="b" d="M210.011,76.737a5.758,5.758,0,0,0-2.773,1.725,5.625,5.625,0,0,0-.843,6.162c1.673,2.432,4.668,2.759,7.667,2.234a4.14,4.14,0,0,0,3.611-3.964,5.97,5.97,0,0,0-1.256-4.184,6.066,6.066,0,0,0-2.816-1.979A6.5,6.5,0,0,0,210.011,76.737Z"/><path class="b" d="M187.123,57.134c-2.34-1.052-3.927-2.267-4.336-4.982a5.57,5.57,0,0,1,.433-3.443c1.747-3.276,6.77-2.169,9.02-4.975,2.006-2.5,1.057-5.679-.45-8.178C186.6,26.948,176.5,24.027,167.005,24.087c-6.991.044-14.154.9-21.116-.193-6.087-.954-11.1-4.45-17.364-4.661-5.944-.2-11.651,1.156-17.271,2.774q-6.66,1.917-13.319,3.835c-4.872,1.405-9.077,3.141-14.66,3.35A22.519,22.519,0,0,1,74.2,27.545a24.3,24.3,0,0,0-9.457-1.433c-4.095.19-7.583,1.851-11.468,2.887a124.894,124.894,0,0,0-13.269,4.687,116.4,116.4,0,0,0-26.2,35.948l.39.945c1.7,3.17,3.179,5.7,4.842,8.488,1.6,2.677,6.018,9.073,6.465,9.847a7.2,7.2,0,0,1,.646,3.542,5.152,5.152,0,0,1-3.056,4.513,6.469,6.469,0,0,1-5.694.375,19.99,19.99,0,0,1-3.474-2.035q-3.392-2.191-6.72-4.481l-.832-.651A122.881,122.881,0,0,0,2.4,121.285c0,39.171,14.943,71.681,39.894,93.123a8.59,8.59,0,0,0,1.862-6.083c-.174-3.339-1.717-6.468-3.066-9.465a136.379,136.379,0,0,1-7.9-20.911,9.594,9.594,0,0,1-.382-3.7c.353-2.635,3.143-4.677,4.731-6.638,3.446-4.255,7.217-8.929,6.148-14.839-.857-4.735-6.806-4.673-10.263-5.036a5.3,5.3,0,0,1-3.66-1.667c-1.175-1.46-1.173-3.838-1.44-5.62q-.546-3.633-.921-7.29t-.578-7.327q-.1-1.767-.156-3.537c-.027-.822.276-2.546-.074-3.268q4.53,9.33,9.05,18.65c.75,1.55,1.69,3.26,3.35,3.73a6.118,6.118,0,0,0,3.25-.22,50,50,0,0,0,15.26-7.04,6.258,6.258,0,0,0,2.75-6.01c-.43-2.85-2.65-4.52-4.78-6.06-1.69-1.24-3.39-2.48-5.08-3.71-1.96-1.43-3.22-2.52-3.89-4.86a16.643,16.643,0,0,1-.49-3.67.923.923,0,0,1,1.67-.6,18.162,18.162,0,0,0,4.84,4.4c3.623,2.288,7.58,3.23,11.481,4.982a17.422,17.422,0,0,1,8.278,6.889c2.285,3.756,8.143,13.719,11.76,19.162a28.756,28.756,0,0,0,2.466,3.36c1.576,1.625,3.358,2.792,5.315,2.778a6.2,6.2,0,0,0,3.835-1.58c5.658-4.735,10.324-11.022,15.378-16.395,1.9-2.023,3.882-4.9,6.14-6.456a3.392,3.392,0,0,1,3.132-.518,5.024,5.024,0,0,1,2.278,2.776c3.027,6.457,5.784,13.037,8.736,19.529,1.925,4.236,3.7,9.6,6.851,13.133,1.511,1.691,4.928,1.526,6.588.126a.6.6,0,0,0,.249-.379.665.665,0,0,0-.1-.341c-1.719-3.506-3.477-7-4.975-10.61,3.3.114,8.638.645,11.18-1.907,2-2,2.056-6.031.695-8.379-.65-1.12-1.95-3.3-3.1-5.21a7.8,7.8,0,0,1-.6-6.77l.03-.09a7.815,7.815,0,0,1,5.51-4.84c6.091-1.462,12.729-2.554,16.434-8.188,2.751-4.183,2.732-8.986,1.252-13.645a48.245,48.245,0,0,0-3.04-7.183,5.87,5.87,0,0,1,1.094-6.963c1.3-1.14,3.665-2.113,5.23-.491,1.46,1.53,3.66,6.67,4.39,8.2.78,1.66,2.19,2.96,3.84,2.62.15-.03,1.39-.3,1.54-.36,1.76-.72,2.06-2.7,1.65-4.56-.46-2.04-1.44-4.91-2-6.67a5.407,5.407,0,0,1,.906-4.677c1.3-1.423,3.228-2.009,4.558-3.456a12.8,12.8,0,0,0,2.672-4.709C194.022,67.205,193.062,59.8,187.123,57.134ZM56.267,71.112a28.609,28.609,0,0,1-1.675,3.513,72.015,72.015,0,0,1-7.825,12.462c-1.193,1.518-3.016,2.661-4.98,1.836-5.5-2.309.389-8.954,2-11.8a33.678,33.678,0,0,0,2.794-6.665A10.65,10.65,0,0,1,48,67.137a4.573,4.573,0,0,1,2.6-1.6c2.063-.475,4.589.079,5.566,2.126A4.657,4.657,0,0,1,56.267,71.112Z"/><path class="c" d="M122.4,0A129.918,129.918,0,0,0,81.971,6.316,117.931,117.931,0,0,0,22.206,50.429,120.48,120.48,0,0,0,5.822,83.452,125.007,125.007,0,0,0,0,121.117,140.685,140.685,0,0,0,5.331,160.3a119.411,119.411,0,0,0,15.226,33.089,111.331,111.331,0,0,0,23.7,25.732A116.878,116.878,0,0,0,75.637,236.69a130.991,130.991,0,0,0,37.125,7.791,141.672,141.672,0,0,0,39.3-2.79,121.383,121.383,0,0,0,34.175-12.93,111.935,111.935,0,0,0,27.4-21.806,113.977,113.977,0,0,0,19.565-29.71,129.939,129.939,0,0,0,10.345-36.683,136.437,136.437,0,0,0-.379-39.5,122.24,122.24,0,0,0-11.455-35.45,118.813,118.813,0,0,0-21.446-29.96,117.386,117.386,0,0,0-30.078-22.092A122.331,122.331,0,0,0,142.807,1.554,137.488,137.488,0,0,0,122.4,0c-3.089,0-3.094,4.8,0,4.8a125.537,125.537,0,0,1,38.993,6.092,114.606,114.606,0,0,1,32.534,16.85,112.032,112.032,0,0,1,24.614,25.239,116.293,116.293,0,0,1,15.857,31.9,120.56,120.56,0,0,1,5.6,36.4,135.746,135.746,0,0,1-5.16,37.736,115.107,115.107,0,0,1-14.657,31.815,107.444,107.444,0,0,1-22.92,24.794,109.879,109.879,0,0,1-29.669,16.541,126.628,126.628,0,0,1-35.726,7.521,137.02,137.02,0,0,1-37.85-2.629,117.03,117.03,0,0,1-32.9-12.372,107.5,107.5,0,0,1-26.458-21.019,109.912,109.912,0,0,1-18.852-28.708,123.4,123.4,0,0,1-9.777-34.57,131.11,131.11,0,0,1,.256-38.216A118.188,118.188,0,0,1,17.308,67.894,114.585,114.585,0,0,1,37.932,39.047,113.214,113.214,0,0,1,66.893,17.78,118.438,118.438,0,0,1,102.921,6.236,128.794,128.794,0,0,1,122.4,4.8C125.488,4.8,125.494,0,122.4,0Z"/><path class="c" d="M174.726,169.816a9.964,9.964,0,0,0-.634-7.784,8.1,8.1,0,0,0-6.13-3.669c-4.609-.577-9.527,1.924-12.731,5.114-3.158,3.144-5.4,8.3-3.076,12.552,2.24,4.1,8.029,4.9,12.163,3.889a14.666,14.666,0,0,0,10.408-10.1,2.4,2.4,0,0,0-4.628-1.276,9.968,9.968,0,0,1-2.177,3.886,9.269,9.269,0,0,1-1.471,1.312q-.454.314-.935.584c-.177.1-.356.2-.538.288-.069.034-.684.313-.316.159a8.366,8.366,0,0,1-4.116.747c-.163-.007-.325-.022-.488-.033-.747-.047.4.112-.336-.047-.324-.07-.648-.134-.968-.225-.2-.057-.4-.121-.6-.19-.072-.025-.564-.22-.255-.085-.162-.071-.322-.152-.477-.238-.018-.01-.646-.414-.338-.182a4.944,4.944,0,0,1-.509-.483c-.063-.063-.249-.358-.044-.047-.082-.124-.15-.256-.231-.38-.358-.541.054.222-.071-.131a4.836,4.836,0,0,1-.244-.968c.062.467.012-.035.016-.151.009-.231,0-.462.019-.693.026-.429-.134.541.022-.182.033-.157.063-.314.1-.47a7.744,7.744,0,0,1,.377-1.167c-.049.116-.142.27.082-.157.106-.2.208-.406.321-.605a10.3,10.3,0,0,1,.821-1.256,13.021,13.021,0,0,1,3.441-2.928,16.807,16.807,0,0,1,2.2-1.126c-.322.133.507-.185.437-.16.21-.075.421-.146.634-.209s.43-.12.647-.169c0,0,.868-.16.4-.094a8.6,8.6,0,0,1,1.47-.066c.165.006.329.018.493.03.664.053-.3-.122.334.061.2.056.395.095.59.155.116.034.231.073.345.116q-.246-.111-.021,0c.181.088.35.192.525.292.459.262-.093-.17.275.218a3.274,3.274,0,0,1,.874,1.735,6.547,6.547,0,0,1-.3,2.862C169.28,171.524,173.909,172.8,174.726,169.816Z"/><path class="c" d="M131.779,168.754c-.016-.586.021-.077-.017-.05.052-.037-.345.628-.183.224.035-.088-.568.389.032-.013.176-.118.31-.089.066-.051-.039.006.728,0,.416-.034-.284-.027.249.077.272.07.187-.053,0,.065-.153-.093a7.236,7.236,0,0,0,.579.481c1.331,1.12,2.612,2.3,3.863,3.5a88.454,88.454,0,0,1,7.639,8.309c.405.506.7.972,1.061,1.5-.112-.165.17.511.1.117a1.98,1.98,0,0,1,0,.4c.019-.569-.019-.144-.016-.062q.2-.407.014-.045l.151-.169-.135.145q.3-.2.08-.057c-.18.221.258-.061-.043.045-.047.016-.508.176-.522.092-.03-.173.587.166.2.016a3.826,3.826,0,0,0-.409-.118c-.122-.033-.52-.2-.056,0-.2-.083-.39-.178-.581-.274a23.319,23.319,0,0,1-7.23-5.866,32.545,32.545,0,0,1-3.65-4.848,17.945,17.945,0,0,1-1.127-2.139c.181.418-.135-.4-.187-.566-.06-.2-.249-1.293-.16-.522a2.473,2.473,0,0,0-2.4-2.4,2.415,2.415,0,0,0-2.4,2.4c.493,4.286,3.551,8.09,6.307,11.218,2.708,3.072,6.034,6.1,9.946,7.533a5.325,5.325,0,0,0,5.881-1.418A5.409,5.409,0,0,0,149,179.4a75.912,75.912,0,0,0-9.5-10.52c-.89-.846-1.8-1.675-2.725-2.478a8.823,8.823,0,0,0-3.254-2.167c-3.059-.834-6.64,1.08-6.549,4.518a2.4,2.4,0,0,0,4.8,0Z"/><path class="c" d="M176.648,230.69c-.994-1.863-1.246-3.945-2.641-5.615a7.2,7.2,0,0,0-6.057-2.42,68.163,68.163,0,0,0-6.913.852c-2.19.35-4.349,1.034-6.538,1.334-4.246.582-4.337-4.125-3.945-7.206a10.172,10.172,0,0,1,6.264-8.3c3.853-1.774,7.854-3.15,11.61-5.154,4.114-2.195,7.862-5.07,11.781-7.585,1.934-1.24,3.9-2.435,5.924-3.518a13.555,13.555,0,0,1,4.579-1.7,5.559,5.559,0,0,1,3.6.576c1.382.852,1.771,2.517,3.06,3.482,2.2,1.645,4.474.759,6.74-.161a3.643,3.643,0,0,1,2.675-.279,3.336,3.336,0,0,1,1.17.915c1.826,2.229,1.95,5.9,2.079,8.774.138,3.076,4.938,3.093,4.8,0-.152-3.4-.484-6.911-2.016-10a8.541,8.541,0,0,0-3.661-3.856,8.052,8.052,0,0,0-6.933.072c-.423.18-1.585.859-1.953.717a16.607,16.607,0,0,1-1.306-1.892,8.7,8.7,0,0,0-4.595-2.883c-4.074-1.013-7.962.587-11.472,2.527-4.5,2.486-8.689,5.473-12.98,8.29a69.337,69.337,0,0,1-12.849,6.407c-4.367,1.712-8.161,4.026-10.08,8.523-1.674,3.922-2.323,9.937.16,13.657a7.637,7.637,0,0,0,6.3,3.435c2.644.073,5.341-.946,7.928-1.4,1.412-.244,2.827-.428,4.25-.588a11.7,11.7,0,0,1,3.554-.217,2.489,2.489,0,0,1,1.694,1.506c.63,1.34.914,2.8,1.619,4.121,1.456,2.726,5.6.3,4.145-2.422Z"/><path class="c" d="M202.986,165.882a8.756,8.756,0,0,0-5.191,3.631,7.788,7.788,0,0,0-.571,6.445,10.612,10.612,0,0,0,3.977,5.409,10.964,10.964,0,0,0,5.62,1.684c3.869.178,8.4-1.324,10.991-4.289a9.751,9.751,0,0,0,2.609-5.88A6.6,6.6,0,0,0,217.1,166.9a15.331,15.331,0,0,0-7.061-1.633,25.572,25.572,0,0,0-7.051.611,2.4,2.4,0,0,0,1.276,4.629,19.622,19.622,0,0,1,4.276-.45,17.486,17.486,0,0,1,4.221.334c1.2.274,2.374.588,2.76,1.549a1.859,1.859,0,0,1,.077,1.1,4.365,4.365,0,0,1-.727,1.705c-1.278,2.007-3.891,3.129-6.3,3.44a7.905,7.905,0,0,1-3.548-.273,4.239,4.239,0,0,1-2.375-1.762,5.912,5.912,0,0,1-.957-2.022,2.826,2.826,0,0,1,.053-1.811,2.455,2.455,0,0,1,.769-1.007,4.915,4.915,0,0,1,1.751-.806,2.4,2.4,0,0,0-1.276-4.629Z"/><path class="c" d="M40.628,36.014c6.363-2.505,12.8-4.659,19.359-6.585a20.62,20.62,0,0,1,9.373-.683c3.229.553,6.186,2.025,9.425,2.541,6.434,1.024,12.5-.934,18.583-2.774,6.758-2.045,13.592-4.206,20.486-5.744a42.6,42.6,0,0,1,10.189-1.148,26.856,26.856,0,0,1,8.594,1.978,47.537,47.537,0,0,0,8.614,2.609,59.867,59.867,0,0,0,10.7.618c6.066-.116,12.254-.882,18.266.258,4.948.939,9.727,2.948,13.224,6.67,1.593,1.7,3.39,4.034,3.534,6.445s-1.9,2.934-3.782,3.452c-2.388.658-4.779,1.553-6.048,3.846a8.48,8.48,0,0,0,.631,8.537,9.068,9.068,0,0,0,2.934,2.574,21.131,21.131,0,0,1,2.925,1.609,8.509,8.509,0,0,1,2.877,5.528,14.272,14.272,0,0,1-.6,6.286,10.475,10.475,0,0,1-1.824,3.484,16.269,16.269,0,0,1-3.352,2.516,7.572,7.572,0,0,0-3.094,7.951c.582,2.463,1.917,4.86,2.152,7.4a3.887,3.887,0,0,1-.07,1.03c-.17,1.01-.071.114-.229.258.034-.031.412-.158-.023-.015-.885.292-1.2.426-1.786-.227a8.309,8.309,0,0,1-1.112-2.115c-.5-1.1-1.013-2.2-1.556-3.286-1.053-2.1-2.251-4.64-4.6-5.515-2.641-.986-5.723.375-7.422,2.472a8.438,8.438,0,0,0-.932,8.753,58.7,58.7,0,0,1,3.2,7.793c1.507,5.412.254,11.2-4.751,14.293a24.764,24.764,0,0,1-6.975,2.683c-2.553.656-5.409.943-7.647,2.434a10.423,10.423,0,0,0-4.449,6.455c-.743,3.5.532,6.309,2.289,9.247,1.2,2,2.713,3.878,2.6,6.316-.108,2.253-1.383,3.223-3.476,3.643a29.869,29.869,0,0,1-6.92.1c-1.411-.052-2.915,1.6-2.314,3.038q1.206,2.883,2.545,5.7.6,1.27,1.225,2.533a17.669,17.669,0,0,1,1.3,2.713v-1.276l-.085.21.617-1.059a3.054,3.054,0,0,1-2.906.383c-1.093-.522-2-2.413-2.6-3.482-1.866-3.316-3.166-6.929-4.729-10.391-1.9-4.21-3.729-8.452-5.612-12.671-.933-2.093-1.816-4.238-2.87-6.274a6.537,6.537,0,0,0-4.239-3.479,6,6,0,0,0-5.525,1.311,46.523,46.523,0,0,0-3.423,3.833c-2.524,2.875-5.038,5.759-7.6,8.6-2.528,2.807-5.093,5.587-7.791,8.233-1.131,1.11-2.2,2.247-3.866,2.458a4.077,4.077,0,0,1-3.574-1.451,40.45,40.45,0,0,1-4.973-6.441c-1.837-2.739-3.567-5.549-5.267-8.375-3.215-5.346-5.992-11.4-11.665-14.575-3.639-2.038-7.809-2.9-11.482-4.875a17.64,17.64,0,0,1-4.545-3.414,10.2,10.2,0,0,0-1.951-2.037,3.318,3.318,0,0,0-3.2-.077c-2.019,1.087-1.864,3.2-1.617,5.17a10.808,10.808,0,0,0,1.989,5.366,18.256,18.256,0,0,0,3.98,3.5c1.789,1.3,3.619,2.566,5.366,3.923a6.8,6.8,0,0,1,2.645,3.237,3.755,3.755,0,0,1-1.247,3.844,26.039,26.039,0,0,1-4.832,3.006,44.794,44.794,0,0,1-5.489,2.5,28.028,28.028,0,0,1-5.592,1.737c-1.625.233-2.209-1.247-2.826-2.5-2.068-4.181-4.074-8.393-6.109-12.589l-3.018-6.217c-1.175-2.42-5.319-.717-4.386,1.849a5.026,5.026,0,0,1,.031,1.631,24.047,24.047,0,0,0,.016,2.547q.141,3.319.424,6.632c.355,4.172.921,8.321,1.478,12.47a8.546,8.546,0,0,0,2.086,5.1,8.46,8.46,0,0,0,5.337,2.115c2.236.232,4.614.221,6.4,1.266a2.529,2.529,0,0,1,1.353,2.164,9.812,9.812,0,0,1-.649,4.848,27.256,27.256,0,0,1-5.559,8.217c-2.417,2.637-5.072,5.094-4.825,8.99a27.563,27.563,0,0,0,1.479,6.326c.662,2.132,1.4,4.24,2.2,6.327,1.719,4.524,3.7,8.934,5.679,13.347,1.412,3.149,3.434,7.941.863,11.067a2.47,2.47,0,0,0,0,3.394,2.419,2.419,0,0,0,3.394,0c5.883-7.155.107-16.147-2.926-23.205a123.569,123.569,0,0,1-4.648-12.432c-.556-1.806-1.6-4.151-1.19-6.067.294-1.38,1.6-2.5,2.534-3.471,4.71-4.891,10.343-12.274,8.063-19.525-.944-3-3.655-4.689-6.592-5.352a31.64,31.64,0,0,0-4.206-.574c-1.051-.092-2.573-.031-3.349-.867a4.488,4.488,0,0,1-.722-2.305c-.156-1.071-.261-2.151-.416-3.223-.357-2.454-.641-4.919-.871-7.388q-.354-3.81-.523-7.632a25.564,25.564,0,0,1-.025-2.768,7.209,7.209,0,0,0-.2-2.907l-4.386,1.849q3.34,6.882,6.678,13.765c.989,2.038,1.878,4.176,3.022,6.133a6.963,6.963,0,0,0,4.853,3.717c2.281.345,4.637-.539,6.769-1.259a55.893,55.893,0,0,0,6.18-2.509c3.757-1.791,8.481-4,10.11-8.1s-.43-8.08-3.661-10.638c-1.849-1.464-3.791-2.815-5.7-4.2-1.258-.917-2.791-1.823-3.547-3.236a6.76,6.76,0,0,1-.669-2.232,13.793,13.793,0,0,0-.122-1.383l-.025-.46-2.556.936c.044.219.579.742.764.96a20.784,20.784,0,0,0,5.08,4.216c3.86,2.335,8.367,3.2,12.3,5.343,3.023,1.651,4.925,4.234,6.652,7.131,1.623,2.719,3.223,5.452,4.878,8.152,1.817,2.963,3.676,5.911,5.716,8.727,1.886,2.6,4.022,5.722,7.1,6.982a8.775,8.775,0,0,0,6.2.092,13.634,13.634,0,0,0,4.916-3.487c2.9-2.851,5.644-5.853,8.355-8.879,2.728-3.047,5.408-6.137,8.113-9.205.752-.853,1.817-2.786,3.068-2.533a1.7,1.7,0,0,1,1.212.976c.6,1.024,1.038,2.169,1.53,3.246,2.087,4.571,4.071,9.188,6.116,13.777,1.711,3.842,3.227,7.822,5.158,11.559,1.8,3.491,4.158,7.218,8.562,7.086,1.8-.054,4.122-.667,5.236-2.208,1.543-2.136-.717-5.019-1.682-7.005-1-2.061-1.991-4.133-2.876-6.248l-2.314,3.038c4.93.184,11.836.71,14.3-4.691a10.433,10.433,0,0,0,.045-8.371,28.334,28.334,0,0,0-1.762-3.144,18.615,18.615,0,0,1-2.313-4.233,5.556,5.556,0,0,1,2.11-5.974,9.209,9.209,0,0,1,3.358-1.2c1.34-.312,2.682-.621,4.01-.984,5.613-1.531,10.965-4.343,13.51-9.863,2.812-6.1,1.22-12.655-1.455-18.488-.9-1.968-2.8-4.705-.9-6.7a2.438,2.438,0,0,1,2-.834c.24.046.193.218.25.3a17.746,17.746,0,0,1,1.032,1.7c2.211,4.019,3.688,10.664,9.649,9.489a5.618,5.618,0,0,0,4.832-5.778c-.012-2.734-1.231-5.548-2.059-8.114a3.487,3.487,0,0,1-.01-2.7c.444-.949,2.066-1.631,3.013-2.3a14.146,14.146,0,0,0,5.21-8.05c1.31-4.932.766-10.643-2.634-14.631a11.357,11.357,0,0,0-2.9-2.4,17.218,17.218,0,0,1-3.095-1.745c-1.232-1.127-1.508-3.749-.121-4.621,1.787-1.122,4.42-1.145,6.354-2.384a7.784,7.784,0,0,0,3.187-8.32c-1.124-5.47-6.068-10.165-10.789-12.74a35.946,35.946,0,0,0-16.156-4c-7.1-.212-14.212.878-21.295-.016-6.209-.783-11.663-4.3-17.944-4.808-7.335-.59-14.65,1.63-21.61,3.632-3.489,1-6.98,2-10.465,3.013-3.016.878-5.983,1.939-9.055,2.614a22.129,22.129,0,0,1-9.388.293c-3.243-.7-6.215-2.077-9.535-2.509a25.4,25.4,0,0,0-10.4.814c-3.3.948-6.619,1.951-9.879,3.022-3.278,1.076-6.481,2.362-9.689,3.625a2.472,2.472,0,0,0-1.676,2.952,2.416,2.416,0,0,0,2.952,1.676Z"/><path class="c" d="M12.125,71.79c3.321,6.172,7.13,11.929,10.955,17.784a4.313,4.313,0,0,1,.6,3.283c-.312,1.47-1.836,2.29-3.235,2.527-2.146.364-4.035-1.315-5.71-2.405Q11.552,90.9,8.417,88.756a2.423,2.423,0,0,0-3.284.861A2.448,2.448,0,0,0,5.994,92.9q2.739,1.888,5.525,3.7a23.17,23.17,0,0,0,5.9,3.276c3.725,1.094,8.589-.617,10.326-4.233a9.045,9.045,0,0,0-.708-8.783c-1.5-2.259-3.03-4.491-4.507-6.762-2.257-3.47-4.3-7.091-6.259-10.735-1.465-2.722-5.61-.3-4.145,2.422Z"/><path class="c" d="M58.581,71.75a6.619,6.619,0,0,0-2.625-7.73,8.043,8.043,0,0,0-7.231-.358c-2.661,1.174-3.62,3.561-4.454,6.163a28.688,28.688,0,0,1-2.95,6.743c-1.84,2.894-4.539,6.121-4.194,9.78a5.877,5.877,0,0,0,4.389,5.021c2.849.807,5.487-.723,7.208-2.917a71.685,71.685,0,0,0,5.543-8.166,53.965,53.965,0,0,0,4.314-8.536A2.422,2.422,0,0,0,56.905,68.8a2.451,2.451,0,0,0-2.953,1.676,41.671,41.671,0,0,1-2.8,5.556q-1.563,2.863-3.372,5.583-.878,1.313-1.813,2.585a9.735,9.735,0,0,1-1.906,2.236,1.467,1.467,0,0,1-1.309.3,2.152,2.152,0,0,1-.414-.211c-.388-.218.194.137-.143-.079-.1-.064-.161-.177-.254-.249.367.283-.215-.317.052.132a1.093,1.093,0,0,1-.092-.3c-.069-.369.009.386-.008,0-.006-.134.044-.787-.018-.375a6.062,6.062,0,0,1,.537-1.7,30.157,30.157,0,0,1,2.148-3.6,37.584,37.584,0,0,0,4.5-9.765c.533-1.69,1.2-2.861,3.06-2.81,1.6.044,2.325,1.038,1.83,2.7C53.07,73.441,57.7,74.709,58.581,71.75Z"/><path class="c" d="M172.11,132.989c.077-.159.16-.3.243-.457-.052.1-.268.232.077-.064-.378.324.434-.265.163-.08-.19.129.066,0,.127-.012-.433.079-.1,0,.015,0,.149,0,.293,0,.443.012-.255-.021-.171-.044.024.024.141.049.288.078.429.13-.374-.138-.039-.012.036.032.127.074.254.145.374.23-.035-.024-.288-.185-.066-.038.053.036.366.36.163.145-.285-.3.356.455.315.405.263.314.537.606.776.939a23.774,23.774,0,0,1,3.926,10.254,13.663,13.663,0,0,1,.041,4.7,1.144,1.144,0,0,1-.244.559c-.007.009-.235.277-.129.2a2.506,2.506,0,0,1-1.626.283c-.977-.123-1.608-1.244-2.178-2.3a23.409,23.409,0,0,1-1.847-4.768,31.8,31.8,0,0,1-1.175-6.18,19.868,19.868,0,0,1-.046-2.8,5.2,5.2,0,0,1,.4-1.788,2.415,2.415,0,0,0-1.676-2.952,2.46,2.46,0,0,0-2.952,1.676,13.42,13.42,0,0,0-.513,6.046,38.548,38.548,0,0,0,1.439,7.642c1.256,4.239,3.391,9.923,8.547,10.226a6.259,6.259,0,0,0,5.9-2.857c1.195-2,1.159-4.555.958-6.807a27.926,27.926,0,0,0-5.168-14.209,9.757,9.757,0,0,0-2.334-2.453,6.519,6.519,0,0,0-2.833-1.069,5.448,5.448,0,0,0-5.753,2.908,2.463,2.463,0,0,0,.861,3.284A2.422,2.422,0,0,0,172.11,132.989Z"/><path class="c" d="M207.174,105.259a23.117,23.117,0,0,1-6.432,2.822c-1.2.309-3.12-.016-2.495-1.659.671-1.766,2.953-3.023,4.324-4.2A14.511,14.511,0,0,0,206.1,98.1a22.731,22.731,0,0,0,1.41-3.928c.181-.6.375-1.2.594-1.792.227-.613-.139.277.032-.077.071-.147.139-.294.216-.438.1-.182.613-.874.234-.444.079-.089.154-.178.237-.263.169-.175.274-.473.046-.067a1.409,1.409,0,0,1,.3-.174c-.622.069-.152.049-.082.047.013,0,.621-.1.234-.062s.279.02.29.021c.083.01.44.074.041,0a3.775,3.775,0,0,1,.764.2c-.235-.1.137.092.147.1.619.389-.094-.129.185.164s-.233-.434.14.176a3.791,3.791,0,0,1,.229.426c-.15-.34.039.148.06.235.051.2.108.406.151.613a4.812,4.812,0,0,1,.093.9,22.738,22.738,0,0,1-.6,6.955,7.725,7.725,0,0,1-3.64,4.567c-2.571,1.69-.169,5.848,2.423,4.145a13.159,13.159,0,0,0,5.385-6.068,23.926,23.926,0,0,0,1.253-8.83c-.007-2.264-.4-4.716-2.012-6.425a6.647,6.647,0,0,0-6.586-1.689c-3.739,1.215-4.394,5.627-5.5,8.85-.038.111-.307.668-.037.118-.077.157-.147.316-.232.469a7.308,7.308,0,0,1-.691,1.008,17.766,17.766,0,0,1-2.492,2.405c-2.19,1.84-4.7,3.626-5.239,6.645a6.115,6.115,0,0,0,6.1,7.121,12.7,12.7,0,0,0,4.969-1.169A29.351,29.351,0,0,0,209.6,109.4C212.2,107.76,209.8,103.6,207.174,105.259Z"/><path class="c" d="M199.182,119.168a11.94,11.94,0,0,0,.4-4.386A7.2,7.2,0,0,0,198,110.663a6.58,6.58,0,0,0-7.329-1.917,5.645,5.645,0,0,0-3.451,3.535,8.339,8.339,0,0,0-.053,4.387,11.451,11.451,0,0,0,1.284,3.488,6.268,6.268,0,0,0,3.361,2.77,5.968,5.968,0,0,0,4.421-.342,5.77,5.77,0,0,0,2.947-3.416,2.413,2.413,0,0,0-1.676-2.952,2.462,2.462,0,0,0-2.953,1.676c-.154.431.29-.531.062-.142-.039.065-.071.134-.11.2a1.752,1.752,0,0,0-.123.189c.2-.47.3-.359.1-.139-.1.108-.223.195-.319.3.39-.441.357-.26.133-.118-.092.059-.189.107-.284.162-.16.093-.353.073.276-.107-.086.024-.17.063-.256.09-.157.049-.321.068-.477.114.634-.187.493-.043.258-.043-.091,0-.182.008-.273.006-.074,0-.146-.008-.22-.011-.43-.015.594.128.2.022-.178-.048-.356-.115-.534-.16.588.148.431.2.263.1-.081-.048-.166-.1-.25-.143-.182-.1-.306-.312.151.137-.061-.06-.132-.112-.194-.171-.079-.074-.154-.153-.226-.235-.373-.421.239.406.013.013-.09-.156-.192-.306-.277-.465-.109-.2-.315-.874-.1-.177-.132-.434-.3-.853-.415-1.294-.054-.21-.1-.422-.149-.634-.026-.124-.152-.809-.076-.381s-.013-.276-.017-.4,0-.241,0-.361c0-.1.072-.612,0-.182s.064-.252.1-.376c.023-.075.117-.513.03-.11-.08.366.025.009.074-.093.164-.339-.064.107-.136.148.076-.043.15-.167.215-.23.177-.169.328-.146-.143.094.111-.057.215-.141.326-.2a1.713,1.713,0,0,0,.231-.115l-.333.143c.081-.031.164-.059.247-.085.168-.051.339-.084.51-.123.476-.108-.606.024-.12.023.086,0,.172-.009.258-.009s.17,0,.254.005.167.01.25.019q-.623-.093-.329-.04c.19.046.379.084.565.146.075.025.477.185.066.017s-.024,0,.049.042c.11.061.616.42.267.151s-.024-.009.036.046c.088.082.173.169.254.258.052.057.1.131.157.185-.472-.453-.212-.277-.095-.09.065.1.125.209.181.317l.055.11q.154.339-.1-.234c.031.2.135.4.181.6.019.084.083.507.025.056-.06-.477,0,.1.006.193.027.554.034,1.113.007,1.667-.006.134-.014.268-.026.4-.006.08-.015.16-.024.24-.022.187-.011.106.031-.243-.111.281-.131.624-.225.916a2.42,2.42,0,0,0,1.677,2.952A2.453,2.453,0,0,0,199.182,119.168Z"/><path class="c" d="M209.373,74.422a8.264,8.264,0,0,0-5.932,7.4,6.788,6.788,0,0,0,1.559,4.9,7.837,7.837,0,0,0,3.789,2.363,11.252,11.252,0,0,0,4.237.319A8.54,8.54,0,0,0,217.3,88.07a6.376,6.376,0,0,0,2.624-3.89,8.812,8.812,0,0,0-.44-4.918,8.461,8.461,0,0,0-3.866-4.283,8.726,8.726,0,0,0-6.24-.557,2.4,2.4,0,0,0,1.276,4.629c.164-.044.328-.087.5-.121.078-.016.5-.066.183-.037-.38.035.284-.008.288-.008.135-.005.27-.005.405,0a1.59,1.59,0,0,1,.4.024c-.427-.194-.13-.021.057.018.13.027.259.058.388.093.076.021.636.229.3.083-.363-.155.146.085.179.1.1.055.2.115.3.177a1.422,1.422,0,0,1,.286.195c-.215-.306-.222-.188-.076-.049.214.2.432.4.634.613.031.034.243.257.237.266l-.153-.206c.07.1.136.192.2.292s.115.2.175.3c.219.369.013-.037-.022-.1a3.061,3.061,0,0,1,.242.754c.036.144.061.29.092.435.081.378-.072-.074-.013-.1-.029.013.039.83.038.919,0,.118-.012.236-.012.354,0,.537.1-.4.01-.079a5.225,5.225,0,0,0-.194.663c.011-.075.262-.489.056-.168-.048.076-.1.172-.147.254-.216.425.3-.274.075-.076-.1.1-.191.218-.295.317-.069.067-.147.125-.214.193-.218.221.5-.305.078-.073-.17.093-.337.2-.508.287-.375.2.136-.09.166-.069a1.906,1.906,0,0,0-.355.115,7.827,7.827,0,0,1-.859.175c-.237.04-.2.141.121-.016a1.428,1.428,0,0,1-.344.036c-.256.024-.511.04-.767.047s-.5.007-.754,0c-.11,0-.22-.011-.33-.019-.212-.016-.584-.156-.008.013-.454-.134-.922-.2-1.376-.349-.217-.071-.166-.183.144.063a2.15,2.15,0,0,0-.276-.137c-.09-.047-.67-.342-.655-.411-.009.039.418.352.062.027-.1-.09-.194-.183-.285-.28-.042-.044-.179-.235-.216-.244.024.006.355.459.073.086-.25-.332-.019.04.024.1a1.522,1.522,0,0,1-.14-.4c-.033-.109-.061-.219-.087-.33-.019-.082-.036-.166-.05-.25q.058.5.031.218c-.009-.314-.013-.616,0-.93.01-.37-.054.09-.023.134-.046-.066.089-.432.106-.5.028-.109.06-.217.094-.325.026-.08.053-.16.083-.239q.1-.252-.083.183c0-.215.281-.553.4-.737a1.32,1.32,0,0,1,.186-.275q-.315.4-.067.1l.118-.131c.079-.086.162-.169.247-.249s.172-.157.262-.231l-.21.163a2.569,2.569,0,0,1,.818-.493c.081-.041.427-.161.109-.057-.359.117.307-.091.37-.11a2.4,2.4,0,0,0-1.276-4.629Z"/></svg>