<?xml version="1.0" encoding="UTF-8"?><svg id="b" xmlns="http://www.w3.org/2000/svg" width="208.13" height="343.389" viewBox="0 0 208.13 343.389"><defs><style>.e{fill:#b3b3b3;}.e,.f,.g,.h,.i{stroke-width:0px;}.f{fill:#fff;}.g{fill:#3d8dcc;}.h{fill:#febe69;}.i{fill:#211715;}</style></defs><g id="c"><g id="d"><path class="e" d="m180.218,309.878c-8.657.488-19.328.176-26.219-.905-7.154-1.132-13.481-3.725-16.604-6.085-4.738-3.602-7.488-7.75-9.076-12.961-.601-1.951-1.802-7.722-2.656-13.343-.854,5.621-2.055,11.392-2.656,13.343-1.588,5.212-4.338,9.359-9.076,12.961-3.123,2.36-9.45,4.953-16.604,6.085-6.892,1.081-17.563,1.393-26.219.904-1.637,10.217-1.871,20.705-1.587,31.192h112.283c.284-10.487.05-20.974-1.586-31.19Z"/><path class="i" d="m71.925,341.072c-.428-15.854.355-31.89,5.574-47.002,1.011-2.926-3.625-4.183-4.629-1.276-5.347,15.481-6.184,32.035-5.746,48.278.083,3.083,4.884,3.095,4.8,0h0Z"/><path class="i" d="m173.83,294.07c5.21,15.114,5.992,31.149,5.564,47.002-.083,3.09,4.717,3.088,4.8,0,.439-16.243-.398-32.795-5.736-48.278-1.001-2.903-5.639-1.656-4.629,1.276h0Z"/><path class="h" d="m102.667,121.672c-12.662,0-28.176-5.184-33.16-14.439-4.352-8.083-3.328-17.61-1.746-26.737,3.983-21.884,1.791-46.561,19.314-63.336,6.512-6.234,21.185-14.727,37.672-14.727,10.142,0,20.941,2.074,29.742,7.314,4.92,2.929,9.238,6.91,12.305,11.786,7.169,7.641,9.756,16.487,11.203,26.407,1.608,11.025,3.099,22.077,5.359,32.993,2.049,9.895,3.107,19.661-3.414,28.307-7.792,10.33-21.778,12.963-34.32,12.963"/><path class="i" d="m102.667,119.272c-6.467-.024-13.002-1.261-18.988-3.731-5.234-2.159-10.239-5.462-12.685-10.684-3.209-6.851-2.362-14.974-1.176-22.198,1.114-6.791,1.975-13.584,2.743-20.423,1.444-12.854,3.266-26.272,10.835-37.148,7.215-10.368,19.477-16.786,31.702-19.277,7.299-1.487,15-1.241,22.293.183s14.617,4.172,20.409,8.982c1.467,1.218,2.828,2.549,4.095,3.973,2.057,2.313,5.442-1.092,3.394-3.394-5.473-6.155-12.794-10.289-20.614-12.693-7.662-2.355-16.086-3.328-24.081-2.653-7.864.664-15.494,2.991-22.526,6.547-5.513,2.788-10.722,6.372-14.889,10.963-9.911,10.918-13.056,25.281-14.828,39.49-.859,6.884-1.431,13.808-2.56,20.657-1.34,8.127-2.846,16.488-.702,24.627.914,3.468,2.473,6.744,4.831,9.458,2.07,2.382,4.714,4.304,7.455,5.843,6.193,3.476,13.267,5.324,20.3,6.023,1.659.165,3.324.248,4.992.254,3.089.012,3.093-4.788,0-4.8h0Z"/><path class="i" d="m166.653,24.989c5.056,6.165,7.418,13.768,8.707,21.521,1.566,9.418,2.677,18.903,4.375,28.303,1.424,7.884,3.971,16.177,2.261,24.225-1.564,7.358-6.701,13.015-13.317,16.325-7.068,3.537-15.256,4.425-23.058,4.441-3.088.006-3.094,4.806,0,4.8,15.468-.031,33.427-4.392,39.783-20.266,3.288-8.212,1.651-17.121-.029-25.488-2.017-10.044-3.416-20.197-4.887-30.331-.693-4.773-1.552-9.525-3.185-14.079-1.686-4.702-4.088-8.982-7.255-12.844-.823-1.003-2.541-.853-3.394,0-.992.992-.825,2.389,0,3.394h0Z"/><path class="f" d="m162.626,142.704c-.416-.168-12.009-5.686-12.274-5.783-4.091-1.479-3.932-4.1-4.446-7.041-.329-1.878-.574-3.746-.721-5.635,9.825-5.211,17.588-18.582,18.993-22.395.48-1,1.265-3.059,1.901-5.161l.53.09c2.005.339,4.101-.429,5.526-1.595,3.457-2.829,4.891-6.774,5.767-9.353,1.236-3.641,1.314-9.527-.528-12.721-.617-1.07-2.051-2.892-5.42-3.011-1.548-.055-3.357.43-4.7,1.721l-3.956-6.187c-4.073-9.761-10.073-18.576-17.069-25.71-9.627,8.033-14.854,11.412-32.248,19.674-9.479,4.503-19.809,7.543-28.371,10.163l-1.539,2.059c-1.343-1.29-3.152-1.775-4.7-1.721-3.369.119-4.803,1.941-5.42,3.011-1.842,3.194-1.764,9.079-.528,12.721.875,2.579,2.31,6.524,5.767,9.353,1.532,1.254,3.843,2.048,5.98,1.499,1.566,5.319,4.402,11.739,9.382,17.7,3.974,4.757,8.154,8.26,12.835,10.386,0,0,.208.095.415.197-.142,1.647-.372,3.215-.664,4.915-.531,2.94-.354,5.562-4.446,7.041-.266.097-13.195,6.146-13.993,6.412,0,0,4.286,26.086,37.397,26.086s36.529-26.715,36.529-26.715Z"/><path class="i" d="m85.768,70.124c-2.824-2.533-6.872-3.124-10.324-1.52-2.58,1.199-4.1,3.674-4.763,6.363-1.49,6.041.012,12.909,3.426,18.062,2.344,3.538,6.073,6.751,10.609,6.151,1.285-.17,2.4-.981,2.4-2.4,0-1.165-1.106-2.571-2.4-2.4-3.46.458-5.806-2.405-7.305-5.176-1.239-2.291-2.181-4.914-2.404-7.518-.218-2.544-.202-5.643,1.302-7.814.278-.402-.193.172.161-.179.091-.091.599-.53.484-.448.452-.319.932-.503,1.467-.625,1.382-.315,2.883-.06,3.954.9,2.294,2.057,5.699-1.326,3.394-3.394h0Z"/><path class="i" d="m168.952,73.518c1.074-.964,2.567-1.212,3.954-.9.533.12,1.018.308,1.467.625-.149-.105.327.298.401.364.082.081.16.166.235.254-.146-.206-.144-.203.009.01,1.504,2.17,1.519,5.272,1.302,7.814-.223,2.602-1.163,5.229-2.404,7.518-1.502,2.77-3.842,5.635-7.305,5.176-1.287-.17-2.4,1.225-2.4,2.4,0,1.438,1.109,2.229,2.4,2.4,7.403.98,11.957-7.166,13.748-13.152,1.569-5.248,1.591-13.399-3.451-16.85-3.464-2.371-8.304-1.785-11.349.946-2.304,2.067,1.099,5.452,3.394,3.394h0Z"/><path class="i" d="m164.55,92.999c-.627,3.037-1.786,5.997-2.841,8.61.24-.594-.112.237-.254.532-.203.425-.417.845-.637,1.262-.505.957-1.045,1.896-1.608,2.82-2.998,4.925-6.649,9.541-11.113,13.219-2.421,1.995-5.165,3.553-8.194,4.256-3.008.698-1.735,5.327,1.276,4.629,6.365-1.477,11.665-6.108,15.824-10.943,3.441-4,6.658-8.505,8.837-13.337.216-.479.406-.968.611-1.451-.3.706.349-.798.379-.87.156-.378.308-.757.453-1.139.78-2.052,1.45-4.161,1.894-6.313.622-3.015-4.003-4.304-4.629-1.276h0Z"/><path class="i" d="m82.028,94.127c1.892,8.338,5.806,16.134,11.386,22.613,5.404,6.276,12.367,11.263,20.707,12.502,1.281.19,2.58-.32,2.952-1.676.311-1.132-.386-2.761-1.676-2.952-7.626-1.133-13.647-5.529-18.589-11.267-5.044-5.857-8.445-12.976-10.151-20.495-.683-3.011-5.312-1.737-4.629,1.276h0Z"/><path class="i" d="m124.755,87.795c.356,1.357.697,2.735.901,4.124l-.086-.638c.024.19.035.378.015.569l.086-.638c-.013.089-.033.171-.063.256l.242-.573c-.026.06-.054.11-.09.165l.375-.486c-.042.052-.083.091-.135.133l.486-.375c-.104.067-.214.121-.327.173l.573-.242c-.18.075-.358.13-.551.161l.638-.086c-.174.021-.343.019-.517,0l.638.086c-.195-.027-.386-.075-.581-.101-.319-.1-.638-.114-.957-.043-.319.014-.617.109-.892.285-.498.291-.973.862-1.103,1.434-.14.614-.11,1.304.242,1.849.312.484.835,1.022,1.434,1.103.469.063.924.182,1.401.203.745.033,1.433-.198,2.097-.503.826-.38,1.474-1.139,1.693-2.028.187-.755.108-1.396-.02-2.153-.224-1.329-.532-2.645-.873-3.949-.152-.579-.588-1.133-1.103-1.434s-1.273-.429-1.849-.242c-1.25.404-2.018,1.651-1.676,2.952h0Z"/><path class="i" d="m103.224,76.04c-.689,2.238-.24,7.387,4,7.825,5.604-.034,5.902-6.258,4.016-9.185-1.545-2.396-6.086-3.393-8.016,1.36Z"/><path class="i" d="m148.102,76.04c.689,2.238.24,7.387-4,7.825-5.604-.034-5.903-6.259-4.016-9.185,1.545-2.396,6.086-3.393,8.016,1.36Z"/><path class="i" d="m144.532,38.227c-5.139,4.284-10.39,8.152-16.317,11.484-8.577,4.822-17.563,9.154-26.832,12.463-5.413,1.933-10.917,3.591-16.411,5.272-2.945.901-1.69,5.536,1.276,4.629,10.382-3.176,20.67-6.444,30.485-11.14,7.42-3.55,14.869-7.189,21.639-11.899,3.311-2.303,6.458-4.835,9.554-7.416.996-.83.858-2.536,0-3.394-.986-.986-2.395-.833-3.394,0h0Z"/><path class="i" d="m144.532,41.621c7.063,7.247,12.646,15.967,16.694,25.224.519,1.188,2.258,1.461,3.284.861,1.226-.717,1.382-2.091.861-3.284-4.206-9.618-10.109-18.669-17.445-26.195-2.16-2.216-5.552,1.18-3.394,3.394h0Z"/><path class="f" d="m168.386,95.774c-3.332,0-5.634,2.343-5.634,5.086,0,3.068,2.352,5.181,5.635,5.181,3.409,0,5.635-2.133,5.635-5.181,0-2.761-2.315-5.086-5.635-5.086Z"/><path class="i" d="m168.386,93.374c-3.422.042-6.487,1.946-7.664,5.214-1.113,3.091.227,6.574,2.826,8.429,2.561,1.828,6.309,1.841,9.046.419,2.917-1.516,4.212-4.844,3.68-7.986-.634-3.746-4.293-6.032-7.887-6.076-1.256-.015-2.458,1.115-2.4,2.4.059,1.313,1.054,2.384,2.4,2.4.169.002.338.015.507.018.492.01-.162-.004-.148-.032.026-.052.684.14.775.165.148.042.292.095.438.142.409.131-.144-.031-.156-.07.026.083.659.355.767.427.058.039.46.269.103.066-.335-.19.01.022.08.087.146.136.312.406.476.509-.348-.218-.24-.356-.089-.097.058.099.124.193.18.292.055.097.096.213.158.304.079.167.044.081-.105-.259.034.085.065.171.093.259.061.184.067.522.168.67-.024-.036-.048-.625-.031-.222.006.142.018.282.018.425,0,.099-.002.198-.007.297-.013.269-.169.491.029-.063-.083.233-.094.506-.167.746-.029.095-.105.226-.108.321.014-.402.207-.416.056-.144-.107.193-.217.381-.331.57-.157.258-.248.1.099-.119-.054.034-.125.144-.174.197-.09.096-.184.189-.282.277-.254.23-.293.082.072-.041-.191.064-.391.26-.576.359-.109.059-.281.105-.376.183.045-.037.552-.194.176-.085-.237.069-.467.148-.708.202-.077.017-.402.033-.451.084l.327-.046c-.106.011-.213.02-.32.027-.272.017-.547.021-.819.008-.106-.005-.212-.017-.319-.021-.554-.022.555.113.022.004-.245-.05-.488-.102-.728-.176-.093-.029-.184-.064-.277-.092-.239-.092-.181-.065.174.081-.086-.039-.171-.079-.255-.122-.207-.106-.399-.233-.596-.355-.206-.128-.051-.182.158.129-.065-.097-.218-.187-.304-.27-.065-.062-.128-.127-.189-.192-.052-.056-.317-.406-.072-.065.249.348-.011-.027-.048-.084-.074-.113-.143-.23-.207-.349-.142-.264-.052-.419.011.078-.01-.075-.069-.183-.095-.26-.075-.225-.122-.454-.177-.684-.122-.504.022.585.009.058-.002-.1-.013-.2-.016-.3-.004-.145-.002-.29.006-.435.004-.07.009-.14.017-.209.02-.191.007-.093-.039.293.109-.201.144-.575.212-.798.113-.371-.052.161-.086.193.106-.098.179-.356.257-.484.047-.078.101-.153.149-.231.231-.382-.392.401.007-.005.115-.117.51-.392.552-.538l-.263.198c.077-.057.155-.113.234-.166.121-.081.245-.157.371-.228.104-.058.231-.101.328-.169.165-.077.088-.047-.23.092.094-.038.189-.073.286-.105.299-.101.603-.166.912-.232.372-.08-.15.013-.153.02.027-.06.601-.032.674-.033,1.255-.015,2.459-1.093,2.4-2.4-.058-1.287-1.055-2.416-2.4-2.4Z"/><path class="i" d="m120.222,108.584c.305-.161.613-.315.925-.462.525-.247-.492.172.111-.041.226-.08.451-.161.681-.232.622-.19,1.255-.315,1.895-.426-.354.062-.142.017.091-.008.186-.02.373-.037.56-.051.451-.033.904-.05,1.357-.053.422-.003.844.007,1.265.032.194.011.388.025.582.043.063.006.784.109.223.017.633.104,1.259.229,1.872.421.252.079.516.224.773.277-.076-.016-.488-.233-.208-.083.107.057.219.105.327.161.158.083.313.171.464.266.199.125.751.552.006-.03.988.77,2.444,1.035,3.394,0,.79-.861,1.058-2.57,0-3.394-2.412-1.879-5.417-2.492-8.435-2.511-2.928-.019-5.715.561-8.303,1.928-1.112.587-1.542,2.227-.861,3.284.729,1.131,2.094,1.489,3.284.861h0Z"/><path class="i" d="m89.338,145.647c1.257-.44,2.473-1.074,3.682-1.627,1.924-.881,3.844-1.771,5.764-2.661,1.508-.699,3.014-1.402,4.524-2.096.156-.072.315-.138.469-.215.109-.054.349-.155-.173.071-.644.279,0,.011.167-.056.331-.133.662-.267.983-.422,1.392-.67,2.655-1.753,3.394-3.125.699-1.298.939-2.69,1.161-4.127.331-2.139.699-4.266.893-6.425.117-1.293-1.186-2.4-2.4-2.4-1.395,0-2.283,1.104-2.4,2.4-.15,1.659-.428,3.289-.688,4.933-.167,1.058-.293,2.127-.666,3.137-.122.331.185-.331.001-.03-.069.113-.13.233-.197.348-.258.442.09.005-.193.253-.11.096-.21.208-.318.307.262-.238-.015.018-.078.058-.296.191-.631.388-.921.524-.426.199-.954.392-1.418.605-3.211,1.475-6.41,2.976-9.621,4.451-.833.383-1.666.765-2.502,1.14-.265.119-.531.236-.796.354-.6.267.548-.2.056-.027-1.223.428-2.036,1.641-1.676,2.952.326,1.186,1.723,2.107,2.952,1.676h0Z"/><path class="i" d="m142.824,124.726c.182,2.011.473,4.005.802,5.997.175,1.059.272,2.142.59,3.171.391,1.266,1.055,2.484,2.05,3.378.553.497,1.173.944,1.838,1.279.431.217.88.405,1.33.579.913.352-.528-.267-.187-.09,2.841,1.476,5.814,2.743,8.709,4.112,1.338.633,2.666,1.293,4.032,1.865,1.196.501,2.64-.54,2.952-1.676.38-1.384-.476-2.449-1.676-2.952,1.215.509-.08-.059-.366-.193-.62-.291-1.24-.584-1.86-.877-1.678-.793-3.355-1.588-5.032-2.382-1.297-.614-2.593-1.231-3.894-1.838-.424-.198-1.12-.477-1.345-.578-.271-.121-.529-.269-.784-.421-.05-.03-.452-.306-.228-.139.194.145-.078-.068-.095-.085-.107-.106-.595-.67-.292-.252-.166-.23-.297-.473-.431-.722-.127-.238.05.13.058.151-.063-.175-.125-.348-.177-.526-.071-.241-.129-.485-.181-.73-.121-.577-.199-1.162-.288-1.745-.269-1.777-.564-3.536-.726-5.328-.117-1.291-1.02-2.4-2.4-2.4-1.208,0-2.517,1.102-2.4,2.4h0Z"/><path class="f" d="m126.666,218.889c-.057.125-.114.247-.169.364h-1.617c-5.469-11.621-21.537-60.38-27.009-79.982l-2.445.712c-.764.222-8.135,2.165-9.413,2.567-9.984,3.138-18.819,6.421-26.205,12.881-4.915,4.298-8.014,10.258-10.037,16.381-2.488,7.535-3.513,15.561-4.418,23.414-.996,8.638-1.722,17.403-1.427,26.105.297,11.929.555,23.716,4.597,34.461,2.416,6.424,6.775,12.262,12.911,15.573,2.397,1.294,5.081,1.954,7.814,2.059-1.42,12.257-3.43,26.706-4.65,34.056-.09,1.01.64,1.91,1.63,2.01,1.52.16,3.16.29,4.88.38,1.33.08,2.72.14,4.13.17.4.02.81.03,1.21.03.42.01.84.02,1.26.02,7.03.08,14.41-.3,19.62-1.12,7.15-1.13,13.48-3.72,16.6-6.08,4.74-3.61,7.49-7.75,9.08-12.97.6-1.95,1.8-7.72,2.66-13.34.85,5.62,2.05,11.39,2.65,13.34,1.59,5.22,4.34,9.36,9.08,12.97,3.12,2.36,9.45,4.95,16.6,6.08,5.21.82,12.59,1.2,19.62,1.12.59-.01,1.17-.02,1.75-.03.51-.01,1.01-.02,1.5-.03.19-.01.37-.02.56-.02.46-.02.92-.04,1.37-.06,2.24-.1,4.37-.26,6.3-.46.99-.1,1.72-1,1.63-2.01-1.36-8.19-3.71-25.221-5.109-38.178,8.401-2.74,15.554-7.77,19.656-17.4,3.958-9.294,4.436-19.867,4.436-29.835.011-10.922-.187-21.954-1.228-32.834-.934-9.76-1.669-18.595-7.435-27.001-8.327-12.14-21.73-15.933-34.856-20.657-2.788-2.3-5.662-4.337-7.819-5.712-4.233,16.431-21.729,69.989-27.706,83.025Z"/><path class="g" d="m117.684,200.602c-5.238-14.748-11.663-34.319-16.15-48.943.804.319,1.328.527,1.328.527,6.934,3.229,14.636,4.688,22.356,4.481,7.72.208,15.422-1.252,22.356-4.481,0,0,.992-.389,2.345-.919-7.003,22.904-18.878,58.312-23.422,67.986h-1.617c-1.638-3.48-4.226-10.291-7.196-18.652Z"/><path class="i" d="m94.983,137.81c2.891,10.734,6.318,21.335,9.741,31.909,4.043,12.487,8.203,24.947,12.719,37.272,1.66,4.53,3.315,9.099,5.362,13.472.349.745,1.287,1.189,2.072,1.189h1.62c.785,0,1.724-.443,2.072-1.189,1.793-3.833,3.267-7.826,4.736-11.791,2.139-5.775,4.168-11.591,6.16-17.419,4.423-12.942,8.665-25.951,12.669-39.029,1.588-5.186,3.168-10.383,4.528-15.635.775-2.992-3.854-4.269-4.629-1.276-2.78,10.739-6.24,21.322-9.64,31.876-4.092,12.699-8.304,25.37-12.872,37.907-.951,2.609-1.919,5.212-2.934,7.796-.414,1.054-.839,2.103-1.273,3.149-.134.322.188-.432-.092.214-.087.2-.173.4-.261.6-.175.397-.353.792-.537,1.185l2.072-1.189h-1.62l2.072,1.189c-1.573-3.36-2.951-7.111-4.352-10.895-2.096-5.662-4.089-11.363-6.045-17.075-4.299-12.548-8.423-25.16-12.329-37.836-1.606-5.212-3.193-10.434-4.611-15.701-.803-2.98-5.434-1.715-4.629,1.276h0Z"/><path class="i" d="m66.848,273.422c-.959,8.259-2.037,16.506-3.231,24.734-.242,1.666-.489,3.331-.745,4.995-.228,1.48-.739,3.167-.674,4.662.111,2.552,2.127,3.877,4.448,4.121,2.158.227,4.33.35,6.498.441,8.676.361,17.649.27,26.21-1.328,7.546-1.409,15.119-4.287,20.297-10.172,5.792-6.582,7.039-15.29,8.332-23.655.198-1.279-.325-2.581-1.676-2.952-1.137-.313-2.753.388-2.952,1.676-.589,3.809-1.263,7.617-2.147,11.37-.674,2.862-1.705,5.567-3.326,8.034-3.761,5.722-9.802,8.589-16.235,10.271-7.738,2.024-15.986,2.151-23.938,2.072-1.977-.02-3.955-.075-5.93-.182-1.062-.058-2.124-.119-3.185-.202-.437-.034-.874-.071-1.31-.112-.082-.008-.582-.11-.638-.061-.111.098.14-.014.242.236.176.431.047.62.152-.027.045-.274.089-.549.133-.823.111-.697.22-1.395.328-2.093.247-1.602.485-3.206.718-4.81,1.267-8.715,2.414-17.449,3.43-26.196.15-1.29-1.21-2.4-2.4-2.4-1.422,0-2.25,1.107-2.4,2.4h0Z"/><path class="i" d="m179.218,269.302c.857,7.91,1.868,15.803,2.951,23.684.473,3.439.962,6.877,1.483,10.309.207,1.364.397,2.735.641,4.094.106.587-.039.432.144-.019.143-.351.564-.274-.179-.196-1.11.117-2.225.192-3.338.262-8.343.527-16.919.493-25.214-.622-7.15-.961-14.741-3.181-19.872-8.505-5.715-5.929-6.663-14.589-7.852-22.367-.196-1.282-1.807-1.991-2.952-1.676-1.37.377-1.873,1.666-1.676,2.952,1.199,7.847,2.335,16.093,7.38,22.517,5.099,6.493,12.867,9.67,20.781,11.223,8.886,1.743,18.267,1.807,27.283,1.393,2.283-.105,4.872-.017,7.098-.577,2.407-.606,3.466-2.86,3.107-5.17-.499-3.211-1.004-6.419-1.466-9.636-1.322-9.202-2.517-18.425-3.518-27.668-.14-1.289-1.003-2.4-2.4-2.4-1.189,0-2.541,1.103-2.4,2.4h0Z"/><path class="i" d="m101.651,154.259c7.505,3.449,15.351,4.792,23.567,4.808s16.079-1.366,23.567-4.808c1.178-.541,1.47-2.243.861-3.284-.707-1.209-2.101-1.404-3.284-.861-6.711,3.085-13.82,4.138-21.145,4.153s-14.448-1.075-21.145-4.153c-1.177-.541-2.585-.334-3.284.861-.605,1.034-.322,2.74.861,3.284h0Z"/><path class="i" d="m143.998,222.191c10.117-17.537,20.12-35.157,29.365-53.173.694-1.353,1.379-2.732.949-4.297-.389-1.413-1.5-2.435-2.482-3.458-2.071-2.159-4.24-4.22-6.421-6.266l-.486,3.769c1.735-.99,3.469-1.98,5.204-2.971,1.665-.951,3.651-1.807,3.516-4.066-.08-1.342-1.039-2.693-1.809-3.757-.862-1.191-1.809-2.319-2.82-3.385-3.903-4.113-8.543-7.649-13.302-10.712-2.605-1.677-5.014,2.476-2.423,4.145,3.072,1.978,6.012,4.168,8.765,6.571,1.453,1.268,2.86,2.596,4.155,4.026.552.609,1.089,1.233,1.568,1.902.228.319.446.645.651.979.096.157.179.328.282.481.115.171.169.578.15.137l.328-1.211c.2-.387.255-.219-.182.004-.295.15-.579.331-.867.495-.651.371-1.301.743-1.952,1.114-1.229.701-2.458,1.403-3.686,2.104-1.311.748-1.61,2.715-.486,3.769,1.779,1.669,3.549,3.347,5.265,5.081.388.392.774.787,1.156,1.185.301.313,1.174.953,1.29,1.373-.135-.49-.274.11-.404.365-.275.537-.551,1.073-.828,1.609-2.155,4.176-4.354,8.329-6.583,12.466-4.562,8.469-9.25,16.869-14.001,25.234-2.668,4.698-5.357,9.385-8.057,14.065-1.546,2.681,2.6,5.101,4.145,2.423h0Z"/><path class="f" d="m40.062,108.184c-1.368.855-2.65,1.19-3.808.993-.684-.115-1.309-.355-1.858-.712-1.956-1.272-3.987-4.339-5.718-8.635-2.225-5.526-.993-9.317.434-13.707.334-1.027.679-2.089.984-3.196.652-2.277.303-4.543-.983-6.377-1.206-1.719-3.142-2.83-5.18-2.97-1.801-.213-3.716.236-5.363,1.265-1.649,1.03-2.904,2.575-3.442,4.239-1.052,2.748-.941,5.592-.693,8.009.063.614.049,1.814-.753,2.958-.435.621-1.068,1.209-1.783,1.655-.787.492-1.646.803-2.482.901-2.244.261-3.972-.786-5.284-3.199-1.381-2.542-1.979-5.643-1.683-8.731.581-6.056,4.724-12.323,10.555-15.967,3.313-2.07,8.65-4.207,15.263-2.63,4.662,1.111,8.944,4.279,11.455,8.474,2.292,3.828,2.956,8.202,1.871,12.316-.685,2.597-1.326,4.492-1.892,6.163-.334.988-.623,1.84-.872,2.694-.605,2.073-.337,4.502.701,6.34l.439.773c.713,1.25,1.329,2.33,1.864,3.596.297.702.489,1.902.249,2.997-.241,1.097-.977,2.1-2.02,2.752Z"/><path class="f" d="m49.654,124.327c-1.671,1.044-3.685,1.23-5.387.496-2.669-1.3-3.674-4.133-3.273-6.255.26-1.375,1.146-2.595,2.562-3.529l.104-.067c.662-.414,3.008-1.684,5.375-.653,2.514,1.096,3.935,4.259,3.105,6.907-.389,1.241-1.272,2.343-2.485,3.101Z"/><path class="f" d="m40.062,108.184c-1.368.855-2.65,1.19-3.808.993-.684-.115-1.309-.355-1.858-.712-1.956-1.272-3.987-4.339-5.718-8.635-2.225-5.526-.993-9.317.434-13.707.334-1.027.679-2.089.984-3.196.652-2.277.303-4.543-.983-6.377-1.206-1.719-3.142-2.83-5.18-2.97-1.801-.213-3.716.236-5.363,1.265-1.649,1.03-2.904,2.575-3.442,4.239-1.052,2.748-.941,5.592-.693,8.009.063.614.049,1.814-.753,2.958-.435.621-1.068,1.209-1.783,1.655-.787.492-1.646.803-2.482.901-2.244.261-3.972-.786-5.284-3.199-1.381-2.542-1.979-5.643-1.683-8.731.581-6.056,4.724-12.323,10.555-15.967,3.313-2.07,8.65-4.207,15.263-2.63,4.662,1.111,8.944,4.279,11.455,8.474,2.292,3.828,2.956,8.202,1.871,12.316-.685,2.597-1.326,4.492-1.892,6.163-.334.988-.623,1.84-.872,2.694-.605,2.073-.337,4.502.701,6.34l.439.773c.713,1.25,1.329,2.33,1.864,3.596.297.702.489,1.902.249,2.997-.241,1.097-.977,2.1-2.02,2.752Z"/><path class="f" d="m49.654,124.327c-1.671,1.044-3.685,1.23-5.387.496-2.669-1.3-3.674-4.133-3.273-6.255.26-1.375,1.146-2.595,2.562-3.529l.104-.067c.662-.414,3.008-1.684,5.375-.653,2.514,1.096,3.935,4.259,3.105,6.907-.389,1.241-1.272,2.343-2.485,3.101Z"/><path class="i" d="m38.851,106.112c-1.115.658-2.084,1.012-3.243.282-.473-.298-1.281-1.179-1.781-1.881-1.666-2.338-3.021-5.151-3.673-7.95-.605-2.595-.156-5.136.591-7.646.859-2.885,2.287-5.863,2.038-8.937-.549-6.786-7.652-10.533-13.758-8.031-2.888,1.183-5.051,3.418-6.152,6.33-1.132,2.992-.937,5.923-.82,9.037.074,1.973-2.523,3.48-4.149,2.769-2.17-.948-2.958-4.705-3.09-6.774-.343-5.357,2.335-10.381,6.145-14,3.621-3.439,8.422-5.555,13.459-5.365,5.476.206,10.589,3.268,13.346,8.009,1.601,2.752,2.355,6.082,1.751,9.24-.586,3.065-1.77,6.006-2.715,8.969-1.025,3.215-.834,6.437.826,9.404.935,1.671,3.575,4.948,1.226,6.54-2.542,1.724-.143,5.885,2.423,4.145,3.041-2.062,4.098-5.645,2.632-9.033-1.056-2.442-3.09-4.69-2.991-7.479.05-1.393.659-2.768,1.101-4.074.497-1.472.985-2.947,1.417-4.441,1.007-3.484,1.409-6.935.566-10.51-1.523-6.459-6.497-11.678-12.564-14.137s-13.01-1.659-18.64,1.465c-5.374,2.982-9.661,8.006-11.711,13.8-1.117,3.157-1.363,6.535-.775,9.826.557,3.118,2.08,6.706,4.905,8.409,3.004,1.811,6.926.875,9.379-1.442,1.255-1.186,2.04-2.722,2.218-4.439.15-1.437-.166-2.902-.14-4.35.054-2.969.974-5.988,3.832-7.339,2.468-1.167,5.652-.597,6.976,1.957.822,1.586.518,3.129.033,4.759-.545,1.831-1.209,3.627-1.697,5.474-.911,3.448-1.024,6.996.063,10.42,1.1,3.467,2.884,7.138,5.396,9.814,2.761,2.941,6.546,3.36,9.999,1.321,2.658-1.57.246-5.721-2.423-4.145Z"/><path class="i" d="m48.442,122.255c-.162.098-.332.182-.494.279-.089.053-.408.242.063-.012-.253.136-.597.211-.875.275-.044.01-.29.089-.356.072l.281-.036c-.119.013-.238.022-.358.027-.259.012-.648.069-.891-.029l.286.035c-.117-.021-.233-.045-.348-.074-.115-.028-.23-.061-.343-.096-.105-.033-.463-.274-.208-.07.279.223-.103-.078-.159-.111-.093-.055-.184-.112-.274-.172l-.132-.09c-.168-.123-.171-.124-.008-.002l.12.091c-.079-.066-.157-.134-.232-.204-.111-.103-.219-.211-.322-.322-.085-.092-.163-.189-.245-.283-.216-.248.322.5.067.072-.124-.208-.258-.406-.369-.621-.031-.061-.082-.219-.124-.256.258.231.157.44.056.117-.076-.242-.157-.48-.213-.728-.024-.109-.035-.224-.064-.332-.084-.312.046.649.028.176-.008-.217-.024-.431-.016-.648.003-.085.012-.169.015-.253.018-.455-.133.493-.03.207.073-.203.209-.587.219-.807-.018.392-.159.343-.021.072.06-.118.124-.234.194-.346-.004.006.152-.267.177-.269l-.179.224c.069-.087.141-.172.215-.255.172-.193.358-.373.552-.543l.066-.058c.203-.166.183-.153-.06.04.028-.07.282-.197.358-.246.243-.156.499-.284.756-.416.219-.113.345-.03-.158.059.082-.015.184-.072.266-.101.294-.106.596-.193.902-.256.054-.011.26-.074.33-.06l-.295.044c.117-.011.235-.018.353-.021.121-.003.241.004.362.003.581-.005-.342-.1.013-.013.257.063.635.079.857.238-.445-.32-.117-.041.02.034.131.072.252.157.381.232.353.206-.117-.056-.127-.112.01.059.287.246.336.293.163.154.307.324.458.489.225.245-.336-.495-.058-.069.055.084.112.166.165.251.079.128.154.258.224.391.085.162.201.591.011-.027.081.264.19.517.259.786.031.122.053.245.083.367.125.509-.034-.565-.003-.043.017.276.028.548.012.825-.013.219-.133.449.03-.116-.041.141-.054.299-.09.442-.031.124-.067.247-.107.368-.192.578.202-.305-.039.105-.09.153-.256.654-.426.708l.173-.218c-.07.088-.143.174-.219.257-.114.127-.234.249-.359.366-.029.027-.199.214-.259.229.259-.193.282-.211.068-.055-.097.068-.196.134-.296.197-1.054.679-1.584,2.162-.861,3.284.68,1.054,2.155,1.588,3.284.861,1.602-1.031,2.813-2.436,3.48-4.228.55-1.477.547-3.186.139-4.698-.895-3.312-3.828-5.918-7.332-5.948-2.988-.026-6.05,1.699-7.609,4.237s-1.283,5.982.409,8.386c1.122,1.594,2.753,2.901,4.694,3.312,2.143.453,4.343.072,6.218-1.061,1.074-.649,1.571-2.183.861-3.284-.696-1.079-2.134-1.556-3.284-.861Z"/><path class="i" d="m161.55,143.897c6.86,2.461,13.881,4.656,20.301,8.166,6.582,3.599,12.125,8.674,15.521,15.437,3.517,7.005,4.092,15.03,4.798,22.707.876,9.533,1.104,19.113,1.135,28.682.047,14.621.223,33.327-12.645,43.171-9.79,7.489-23.319,7.839-35.097,8.443-19.018.976-38.14,1.286-57.168.373-2.372-.114-4.742-.27-7.107-.483-1.293-.116-2.4,1.186-2.4,2.4,0,1.395,1.104,2.283,2.4,2.4,9.901.892,19.905.945,29.84.973,10.002.028,20.005-.182,29.996-.643,7.121-.328,14.27-.625,21.328-1.679,6.374-.952,12.795-2.67,18.328-6.076,6.069-3.736,10.396-9.285,13.069-15.844,3.434-8.428,4.125-17.749,4.241-26.758.126-9.775-.025-19.585-.677-29.341-.304-4.554-.706-9.115-1.265-13.645-.501-4.067-1.172-8.129-2.502-12.017-2.703-7.899-7.858-14.509-14.651-19.315-6.261-4.429-13.57-7.118-20.747-9.66-1.807-.64-3.617-1.272-5.422-1.92-1.22-.438-2.627.494-2.952,1.676-.366,1.331.452,2.513,1.676,2.952h0Z"/><path class="i" d="m94.788,137.67c-13.436,3.849-28.413,7.244-38.437,17.752-6.285,6.59-9.357,15.589-11.136,24.345-.991,4.878-1.608,9.826-2.183,14.768-.597,5.136-1.109,10.284-1.376,15.449-.26,5.041-.176,10.067-.035,15.11.138,4.949.335,9.903.897,14.825,1.011,8.863,3.013,18.193,8.519,25.439,5.083,6.69,12.62,11.288,21.25,10.361,4.147-.445,8.241-1.827,11.638-4.29,3.523-2.555,6.375-5.828,8.712-9.485,5.036-7.882,8.415-16.971,11.177-25.861,3.009-9.687,5.208-19.597,7.49-29.473.562-2.434,1.131-4.867,1.716-7.295.723-3.002-3.904-4.283-4.629-1.276-4.444,18.44-7.797,37.477-16.163,54.663-3.267,6.71-7.501,13.89-14.748,16.855-3.304,1.352-7.099,1.902-10.622,1.2-3.633-.724-6.784-2.729-9.403-5.303-5.832-5.732-8.275-13.789-9.593-21.656-.75-4.48-1.064-9.025-1.263-13.559-.209-4.768-.386-9.558-.334-14.33.106-9.635,1.105-19.333,2.531-28.857,1.266-8.452,3.169-17.211,7.942-24.446,4.332-6.568,11.488-10.795,18.614-13.756,5.939-2.468,12.096-4.235,18.296-5.897.805-.216,1.613-.424,2.415-.653,2.964-.849,1.704-5.482-1.276-4.629h0Z"/><path class="i" d="m64.837,210.726c6.033-9.408,11.442-19.199,17.015-28.881,1.544-2.682-2.603-5.102-4.145-2.423-5.573,9.683-10.982,19.473-17.015,28.881-1.672,2.608,2.481,5.018,4.145,2.423h0Z"/><path class="f" d="m95.002,144.808c.861-3.74,1.968-7.204,3.355-10.084,3.239-6.726,8.061-8.896,15.239-9.876,3.46-.472,7.06-.159,10.289,1.17,3.64,1.499,6.524,4.722,4.518,8.97,3.111.684,4.418,2.683,4.295,5.202-.066,1.365-1.002,3.858-3.336,4.335l-.397.081c2.008.981,2.337,2.753,2.369,3.944.057,2.112-1.83,4.364-3.577,4.168-1.263-.142-2.294-.255-3.249-.341.634.354.993.554.993.554,1.2.67,1.936,2.096,2.021,3.147.09,1.106-.164,2.275-.798,3.167-.998,1.405-2.694,1.485-4.153,1.65-1.907.216-3.633.717-4.272,2.503-.248.693-1.2,5.214-1.567,6.546-.737,2.68-1.916,5.303-3.879,7.318s-4.796,3.358-7.677,3.137c0,0-1.182-.091-2.062-.157-4.534-1.882-10.674-4.772-12.15-7.046-1.649-2.54,1.496-7.566,1.758-11.808.34-5.499,1.067-11.313,2.28-16.579Z"/><path class="i" d="m130.974,135.015c1.959-5.745-2.604-10.116-7.679-11.762s-10.867-1.162-15.889.477c-4.381,1.43-7.943,4.202-10.278,8.194-2.688,4.595-4.07,10.014-5.06,15.2-.572,3-.994,6.031-1.313,9.068-.276,2.623-.263,5.28-.963,7.834-.642,2.342-1.64,4.682-1.7,7.143-.058,2.389,1.191,4.089,2.999,5.48,2.01,1.547,4.29,2.713,6.576,3.793,1.119.529,2.251,1.031,3.39,1.515.766.326,1.393.618,2.228.696.563.053,1.129.09,1.693.129,5.845.405,10.654-3.738,12.875-8.859.962-2.217,1.486-4.511,2.02-6.855.204-.894.303-1.984.676-2.829.278-.632.952-.743,1.612-.873,1.258-.249,2.54-.232,3.757-.683,1.676-.622,2.881-1.854,3.525-3.517,1.203-3.104.082-6.539-2.731-8.308-2.623-1.649-5.034,2.503-2.423,4.145,1.043.656,1.297,2.529.048,3.166-.761.388-1.938.334-2.759.456-1.077.16-2.162.442-3.103,1.011-3.036,1.836-3.145,6.038-3.92,9.141-.995,3.982-3.257,8.345-7.686,9.157-.701.129-1.405.083-2.112.032-.422-.03-.948-.018-1.319-.139-.376-.122-.803-.376-1.185-.544-2.14-.942-4.264-1.944-6.281-3.13-.656-.385-1.411-.841-1.959-1.266-.279-.216-.542-.458-.791-.708.012.012-.44-.557-.247-.27.153.229-.02-.336-.012-.037-.01-.371-.066-1.118.08-1.774.252-1.126.608-2.223.944-3.325,1.398-4.583,1.318-9.367,1.996-14.083.688-4.788,1.67-9.588,3.346-14.136,1.206-3.273,2.964-6.621,5.887-8.541,3.504-2.301,8.34-3.165,12.523-2.942,3.467.185,10.233,1.901,8.608,6.667-.999,2.93,3.636,4.188,4.629,1.276h0Z"/><path class="i" d="m115.958,135.832c2.435.165,4.873.345,7.292.672-.41-.055.359.053.358.053.248.036.496.074.744.114.586.093,1.17.194,1.754.303.52.097,1.041.194,1.558.308.248.055.495.113.738.188.152.046.303.097.452.153-.185-.083-.203-.09-.053-.019.193.094.374.206.561.309.088.053.173.11.256.171-.22-.174-.229-.174-.027,0,.128.141.268.269.392.415-.36-.421-.011.024.046.125.13.228.179.472.066.098.063.211.122.42.178.633.154.587.045-.241.024.229-.009.196-.016.415-.001.608.033.434.144-.531.015-.06-.043.159-.069.324-.114.483-.019.066-.257.708-.121.391s-.183.331-.22.392c-.068.113-.427.54-.081.154-.136.151-.272.29-.42.43.363-.34-.075.027-.184.098-.245.123-.25.128-.015.016-.142.048-.287.087-.434.117-1.262.298-2.011,1.736-1.676,2.952.355,1.291,1.687,1.975,2.952,1.676,5.327-1.257,6.815-8.89,2.764-12.343-2.144-1.828-5.066-2.149-7.755-2.55-3.003-.448-6.022-.71-9.05-.915-1.295-.088-2.4,1.166-2.4,2.4,0,1.372,1.102,2.312,2.4,2.4h0Z"/><path class="i" d="m115.735,145.191c2.308.12,4.614.299,6.911.564.298.034.596.07.893.108.126.016.253.032.379.049-.109-.015-.385-.055.108.017.557.082,1.112.168,1.666.266.531.094,1.069.185,1.589.33.22.061.44.131.651.218-.438-.181.201.151.32.214.141.076.272.279-.054-.055.059.061.13.108.188.171.166.179.336.546.093.058.065.13.162.257.237.382-.006-.01.139.242.129.26-.005.009-.17-.546-.089-.181.034.153.091.301.126.455.014.063.023.129.04.192.079.294-.159-.028-.03-.265-.097.177.046.802.025,1.016.046-.461-.084.191-.132.336-.085.261.007-.013.028-.056-.066.134-.146.26-.214.393-.185.362.126-.068-.148.223-.099.105-.201.203-.301.306-.161.167-.196.122-.002.008-.114.067-.229.132-.344.198.028-.016.382-.135.129-.07-.27.069.164-.003.185-.002-.122-.006-.24,0-.363-.007-.634-.039-1.27-.142-1.902-.209-2.554-.268-5.098-.366-7.666-.327-1.255.019-2.459,1.09-2.4,2.4.058,1.284,1.055,2.421,2.4,2.4,2.654-.041,5.279.072,7.918.353,1.543.164,2.879.321,4.296-.488,1.395-.796,2.372-2.163,2.935-3.639.752-1.97.43-4.509-.803-6.227-1.716-2.39-4.497-2.889-7.23-3.283-3.173-.457-6.366-.744-9.567-.91-1.256-.065-2.456,1.151-2.4,2.4.061,1.356,1.055,2.33,2.4,2.4h0Z"/><path class="i" d="m105.849,240.579c13.879-1.137,27.752-2.329,41.592-3.886,4.763-.536,9.522-1.107,14.278-1.705,1.286-.162,2.4-.987,2.4-2.4,0-1.171-1.105-2.563-2.4-2.4-14.78,1.858-29.592,3.384-44.434,4.643-3.811.323-7.623.635-11.436.948-1.292.106-2.4,1.027-2.4,2.4,0,1.216,1.101,2.506,2.4,2.4h0Z"/><path class="i" d="m168.519,199.705c-.014,3.9-.531,7.842-.893,11.72-.224,2.399-.459,4.796-.719,7.191-.101.93-.205,1.86-.32,2.788-.026.211-.055.421-.08.632.089-.724.038-.264.011-.094-.042.265-.078.531-.127.796-.236,1.273.351,2.588,1.676,2.952,1.168.321,2.715-.395,2.952-1.676.749-4.044.998-8.227,1.381-12.317.372-3.967.904-8.002.918-11.992.011-3.089-4.789-3.093-4.8,0h0Z"/></g></g></svg>