<?xml version="1.0" encoding="UTF-8"?><svg id="b" xmlns="http://www.w3.org/2000/svg" width="369.283" height="198.481" viewBox="0 0 369.283 198.481"><defs><style>.d{fill:#3d8dcc;}.e{fill:#fff;}.f{fill:#211715;}.g{fill:#645d5c;}</style></defs><g id="c"><path class="e" d="M152.589,38.77c-1.677.726-3.338,1.404-4.983,2.007-.051.006-.077.009-.077.009-3.924.49-9.47,1.801-13.488,2.698-5.388,1.203-10.269,3.817-14.277,4.759-2.391.561-6.573.915-9.028.909-4.889-.01-16.453-1.872-22.083-2.909l-.886-.163c-2.31,16.516-12.751,66.086-18.392,83.997,2.111.167,5.278.444,9.667.944,2.643.301,5.517,1.08,8.04,1.92.318.106.632.22.943.342,0,0,28.285,13.09,37.174,19.151,9.778,6.667,52.222,32.667,52.222,32.667,3.556,2,12.223,6.05,16.29,7.399,4.143,1.374,9.553,1.796,13.728.523,4.175-1.273,6.23-4.34,6.426-7.478l-.104-1.61c3.818,1.614,12.448,3.12,18.4-1.872,2.699-2.263,4.296-7.407,3.111-10.667l-.251-1.046c5.495,3.055,15.267,3.195,20.992-3.694,3.227-3.884,2.391-11.483-2.492-15.939.193.131.382.259.566.384,8.252,2.683,15.852-1.111,18.37-5.333,2.398-4.02,3.445-10.669-1.477-15.909,4.663-3.024,10.482-6.007,15.382-9.024,3.969-2.439,7.967-4.778,12.188-6.713-5.78-20.351-14.811-62.951-17.141-78.824-3.508.827-7.438,1.617-11.977,2.337-6.12,1.11-60.09-9.96-75.64-11.63-14.875-.937-28.512,7.277-41.203,12.767Z"/><path class="e" d="M107.262,151.815c2.135-4.986,5.051-9.415,8.667-13.459,1.972-2.205,4.06-4.398,6.692-5.747,4.419-2.264,10.135-1.704,14.031,1.373s5.417,8.906,4.227,13.697c-1.19,4.791-10.286,18.406-15.791,21.82-2.924,1.813-7.375,2.183-10.547.85-3.871-1.626-5.839-3.803-7.583-7.622-1.338-2.93-1.145-7.526.304-10.912Z"/><path class="e" d="M132.927,165.209c1.663-4.984,4.125-9.492,7.293-13.684,1.727-2.286,3.568-4.57,6.002-6.082,4.085-2.538,9.648-2.454,13.655.206s5.94,8.166,5.173,12.886c-.767,4.72-8.461,18.589-13.503,22.324-2.678,1.984-6.945,2.695-10.114,1.662-3.867-1.261-5.94-3.206-7.929-6.754-1.526-2.722-1.706-7.174-.577-10.558Z"/><path class="e" d="M155.051,182.806c.774-4.29,3.961-11.761,7.392-14.791,2.991-2.641,7.632-3.16,11.238-1.452,3.606,1.709,5.403,6.757,5.334,10.724-.069,3.967-3.118,12.494-6.815,16.16-1.964,1.947-5.383,3.038-8.108,2.566-3.325-.576-5.259-1.928-7.313-4.605-1.576-2.054-2.253-5.689-1.727-8.602Z"/><path class="e" d="M82.734,146.887c-1.233-3.191-.217-8.767,1.817-11.281,3.282-4.058,10.525-3.076,14.434-.62,2.881,1.81,6.704,5.868,7.553,7.858,2.584,5.41.026,10.156-1.887,11.637-2.245,1.738-7.745,2.312-10.549,1.867-4.806-.763-9.472-4.552-11.368-9.46Z"/><path class="d" d="M2.609,13.6c23.014,6.276,61.308,16.276,71.1,19.251-9.441,36.742-16.939,88.452-24.921,109.339-8.053-1.861-32.659-8.18-47.157-11.797"/><path class="g" d="M366.674,2.207c-23.014,6.276-61.308,16.276-71.1,19.251,9.441,36.742,16.939,88.452,24.921,109.339,8.053-1.861,32.659-8.18,47.157-11.797"/><path class="e" d="M287.371,28.542c3.093-.982,6.592-2.029,8.969-2.714,0,0,.108-.031.31-.092,7.619,30.999,13.996,70.877,20.465,94.42-.286.082-.436.127-.436.127-4.037,1.22-10.274,2.158-14.952,3.388-5.236-11.375-20.06-81.086-20.849-92.829.81-.434,3.456-1.336,6.493-2.3Z"/><path class="e" d="M52.381,130.767c6.394-23.626,12.711-62.946,20.243-93.599.204.036.319.053.319.053,4.71,1.356,13.537,4.157,15.25,5.092-.789,11.743-15.402,81.376-20.637,92.751-4.678-1.23-10.915-2.168-14.952-3.388,0,0-.151-.045-.435-.13.071-.258.142-.518.212-.779Z"/><path class="f" d="M187.63,66.829c-3.845-.774-8.153.095-11.932.828-2.327.452-4.638,1.016-6.893,1.747-2.184.708-4.896,1.5-6.584,3.134-.972.941-1.523,2.185-2.127,3.372-.64,1.259-1.269,2.523-1.9,3.786-1.133,2.267-2.273,4.533-3.532,6.734-2.463,4.305-5.462,8.248-9.419,11.293-1.975,1.52-3.606,2.308-6.115,2.63-2.149.275-4.401.369-6.282-.405-2.002-.823-4.115-2.695-4.383-4.964-.155-1.307.107-2.742.162-4.053.069-1.642.12-3.284.161-4.926.127-5.168.12-10.344.534-15.5.218-2.717.559-5.418,1.018-8.105.49-2.866.971-5.924,2.326-8.53,2.5-4.806,7.614-8.144,12.649-9.782,5.193-1.689,10.156-3.944,15.1-6.249,10.17-4.743,20.853-9.891,32.356-9.485.746.026,1.479.097,2.219.187.271.033.541.067.811.102.141.018.283.037.424.055.182.024.115.015-.203-.028.119.016.238.032.357.049,1.389.193,2.776.397,4.162.611,3.495.54,6.983,1.126,10.469,1.723,8.183,1.401,16.353,2.873,24.531,4.302,7.492,1.309,14.988,2.623,22.518,3.692,2.635.374,5.279.744,7.933.955,2.558.204,4.828-.156,7.376-.607,2.911-.516,5.807-1.109,8.686-1.778,3.008-.699,1.735-5.328-1.276-4.629-3.03.704-6.079,1.323-9.144,1.858-.864.151-1.731.283-2.594.433-.89.155.477.025.016.001-.305-.016-.624.031-.93.029-2.14-.011-4.29-.301-6.409-.57-.322-.041-.644-.083-.965-.125-.644-.085.343.047-.063-.009-.171-.023-.342-.047-.513-.07-.829-.115-1.657-.234-2.484-.356-1.713-.253-3.424-.519-5.134-.793-3.994-.639-7.982-1.316-11.968-2.005-15.165-2.621-30.315-5.785-45.601-7.642-11.195-1.36-22.32,3.208-32.277,7.763-5.106,2.335-10.138,4.875-15.405,6.835-2.651.986-5.356,1.744-7.892,3.024-2.605,1.315-5.046,3.056-7.114,5.117-2.25,2.243-3.948,4.839-5.001,7.84-1.024,2.917-1.501,6.04-1.953,9.089-.803,5.415-1.119,10.847-1.232,16.316-.056,2.714-.095,5.428-.177,8.142-.05,1.642-.113,3.284-.195,4.925-.076,1.522-.136,3.006.358,4.476.934,2.78,3.088,5.117,5.655,6.496,2.354,1.264,4.947,1.627,7.59,1.526,2.599-.1,5.335-.496,7.69-1.66,2.395-1.184,4.624-3.203,6.516-5.065,3.664-3.607,6.413-7.989,8.792-12.516,1.279-2.435,2.478-4.91,3.722-7.363.472-.931.887-2.279,1.763-2.891.85-.594,1.813-.894,2.748-1.239,4.322-1.595,9.015-2.613,13.55-3.03.892-.082,1.788-.142,2.685-.146.347-.002.695.003,1.042.024.18.011.359.027.538.045-.679-.068-.186-.021-.033.01,1.27.255,2.592-.365,2.952-1.676.325-1.183-.399-2.695-1.676-2.952h0Z"/><path class="f" d="M186.351,71.455c.209.077.86.394.055.007.191.092.388.171.58.262.475.225.94.471,1.399.726,1.113.618,2.193,1.297,3.261,1.989,3.327,2.158,6.559,4.466,9.796,6.755,10.903,7.709,21.895,15.296,32.737,23.091,6.092,4.38,12.13,8.836,18.079,13.408,2.953,2.269,5.88,4.572,8.781,6.908,1.468,1.182,2.928,2.373,4.381,3.573s3.023,2.363,4.259,3.808c3.151,3.684,2.977,9.045.565,12.798-1.127,1.754-3.37,3.192-5.461,3.928-1.386.487-2.823.801-4.292.87-1.635.076-3.813.071-5.326-.655-.953-.457-1.852-1.244-2.726-1.842-1.209-.827-2.416-1.657-3.621-2.488-2.729-1.881-5.453-3.77-8.174-5.662-4.83-3.36-9.655-6.728-14.458-10.125-1.059-.749-2.669-.189-3.284.861-.703,1.202-.2,2.533.861,3.284,9.163,6.48,18.369,12.905,27.643,19.225,1.355.924,2.596,1.489,4.233,1.808,1.858.361,3.769.515,5.657.34,3.307-.307,6.625-1.339,9.338-3.299,4.582-3.31,6.828-8.972,6.071-14.561-.443-3.27-1.986-6.253-4.304-8.596-2.737-2.767-6.038-5.115-9.073-7.544-6.307-5.047-12.736-9.943-19.24-14.734-11.919-8.778-24.136-17.139-36.214-25.696-3.882-2.75-7.748-5.526-11.69-8.191-2.209-1.494-4.452-3.037-6.877-4.167-.551-.257-1.112-.497-1.682-.707-1.217-.448-2.629.501-2.952,1.676-.368,1.34.455,2.503,1.676,2.952h0Z"/><path class="f" d="M176.208,187.172c4.814,2.689,9.934,5.008,15.075,6.992,5.949,2.296,13.88,3.298,19.648-.054,3.153-1.833,5.039-4.959,5.332-8.566.105-1.294-1.178-2.4-2.4-2.4-1.386,0-2.295,1.103-2.4,2.4-.226,2.785-2.648,4.678-5.413,5.371-3.677.921-7.747.51-11.334-.611-2.79-.872-5.48-2.115-8.133-3.332-2.687-1.233-5.371-2.501-7.953-3.944-2.7-1.508-5.123,2.636-2.423,4.145h0Z"/><path class="f" d="M88.014,48.557c7.026,1.29,14.202,2.593,21.346,2.955,3.63.184,7.503-.128,11.041-.955,4.442-1.038,8.531-3.253,12.941-4.43,4.618-1.232,9.444-2.327,14.186-2.94,1.285-.166,2.4-.984,2.4-2.4,0-1.168-1.105-2.567-2.4-2.4-4.342.562-8.61,1.541-12.877,2.503-4.537,1.022-8.707,2.836-13.092,4.323-6.6,2.239-13.65,1.575-20.418.631-3.963-.553-7.916-1.192-11.852-1.915-1.274-.234-2.588.35-2.952,1.676-.32,1.166.395,2.717,1.676,2.952h0Z"/><path class="f" d="M273.742,130.95c4.231-2.598,8.63-4.908,12.884-7.468,4.301-2.587,8.576-5.181,13.137-7.296,1.176-.545,1.471-2.241.861-3.284-.706-1.206-2.103-1.408-3.284-.861-4.561,2.115-8.836,4.709-13.137,7.296-4.254,2.559-8.652,4.87-12.884,7.468-2.628,1.613-.22,5.767,2.423,4.145h0Z"/><path class="f" d="M206.208,154.801c8.323,5.564,16.804,10.912,25.3,16.209,2.039,1.271,4.054,2.427,6.401,3.048,2.475.655,5.104.855,7.646.559,5.563-.649,11.662-3.715,13.888-9.155,2.415-5.9-.163-13.221-4.993-17.096-1.01-.81-2.407-.987-3.394,0-.839.839-1.016,2.579,0,3.394,3.46,2.775,5.416,7.515,4.055,11.649-.595,1.806-2.382,3.443-4.292,4.573-1.88,1.113-4.047,1.773-6.214,1.925-2.284.16-4.353-.076-6.518-.809-1.615-.547-3.276-1.683-4.89-2.692-4.302-2.69-8.583-5.414-12.856-8.151-3.918-2.51-7.842-5.013-11.71-7.599-2.575-1.722-4.981,2.434-2.423,4.145h0Z"/><path class="f" d="M190.653,172.135c6.867,4.529,13.699,9.233,20.824,13.349,2.78,1.606,6.267,2.231,9.431,2.372,4.298.192,8.72-.85,12.175-3.485,3.875-2.955,6.083-8.883,4.503-13.613-.974-2.915-5.611-1.666-4.629,1.276.955,2.859-.333,6.695-2.738,8.526-2.832,2.155-6.474,2.713-9.942,2.459-1.381-.101-2.832-.384-4.25-.814-.265-.08-.529-.166-.79-.259-.12-.043-.897-.357-.41-.144-.427-.187-.826-.406-1.223-.648-3.245-1.979-6.458-4.008-9.653-6.066-3.64-2.344-7.262-4.715-10.876-7.098-2.586-1.705-4.993,2.449-2.423,4.145h0Z"/><path class="f" d="M69.374,132.476c6.102.484,12.24.914,18.011,3.121,1.211.463,2.632-.512,2.952-1.676.372-1.352-.461-2.487-1.676-2.952-6.148-2.352-12.784-2.777-19.287-3.292-1.294-.103-2.4,1.177-2.4,2.4,0,1.384,1.103,2.297,2.4,2.4h0Z"/><path class="f" d="M39.573,21.048c-11.879-3.18-23.764-6.341-35.629-9.572-1.504-.409-3.039.752-3.038,2.314.014,30.219-.375,60.438-.671,90.656C.151,113.04.07,121.634,0,130.229c-.008,1.031.749,2.061,1.762,2.314,13.061,3.262,26.048,6.808,39.088,10.15,2.428.622,4.858,1.244,7.3,1.81,1.355.314,2.474-.42,2.952-1.676,4.379-11.514,6.758-23.861,9.282-35.88,3.322-15.823,6.317-31.713,9.666-47.531,1.837-8.677,3.77-17.336,5.973-25.928.328-1.28-.415-2.57-1.676-2.952-11.492-3.481-23.176-6.384-34.773-9.488-2.987-.8-4.262,3.829-1.276,4.629,11.597,3.104,23.281,6.007,34.773,9.488l-1.676-2.952c-4.002,15.604-7.164,31.413-10.324,47.204-2.965,14.817-5.782,29.686-9.375,44.367-1.465,5.988-3.028,11.998-5.222,17.767l2.952-1.676c-11.981-2.778-23.835-6.149-35.738-9.239-3.547-.921-7.095-1.834-10.65-2.722l1.762,2.314c.252-30.952.654-61.903.834-92.856.046-7.861.075-15.722.072-23.582l-3.038,2.314c11.866,3.231,23.75,6.393,35.629,9.572,2.987.8,4.262-3.829,1.276-4.629Z"/><path class="f" d="M72.305,39.535c2.878.831,5.74,1.72,8.587,2.651,1.329.435,2.656.878,3.971,1.352.521.188,1.039.384,1.555.584.612.237-.418-.205.092.036.158.075.317.146.472.228l-1.189-2.072c-.049.715-.127,1.428-.214,2.139-.025.208-.053.416-.079.624-.083.667.076-.526-.022.166-.077.541-.154,1.083-.235,1.624-.38,2.532-.811,5.056-1.259,7.577-1.224,6.895-2.58,13.767-3.987,20.627-3.064,14.937-6.311,29.863-10.183,44.614-.779,2.968-1.586,5.93-2.485,8.863-.34,1.108-.692,2.213-1.077,3.306-.162.461-.33.921-.508,1.376-.077.198-.163.393-.239.592.202-.528.14-.324-.023.033l2.71-1.103c-4.947-1.282-10.049-1.935-14.952-3.388-2.968-.879-4.236,3.752-1.276,4.629,4.903,1.452,10.006,2.106,14.952,3.388.942.244,2.271-.142,2.71-1.103,1.88-4.117,3.012-8.603,4.188-12.957,1.857-6.876,3.514-13.807,5.112-20.748,3.43-14.896,6.606-29.867,9.336-44.908.919-5.063,1.973-10.206,2.329-15.349.055-.799-.489-1.704-1.189-2.072-2.154-1.133-4.613-1.82-6.914-2.577-2.953-.971-5.923-1.894-8.909-2.757s-4.243,3.771-1.276,4.629h0Z"/><path class="f" d="M330.986,14.284c11.879-3.18,23.764-6.341,35.629-9.572l-3.038-2.314c-.014,30.164.374,60.328.67,90.49.085,8.65.166,17.299.237,25.949l1.762-2.314c-13.061,3.262-26.048,6.808-39.088,10.15-2.428.622-4.858,1.244-7.3,1.81l2.952,1.676c-4.379-11.514-6.758-23.861-9.282-35.88-3.322-15.823-6.317-31.713-9.666-47.531-1.837-8.677-3.77-17.336-5.973-25.928l-1.676,2.952c11.492-3.481,23.176-6.384,34.773-9.488,2.981-.798,1.716-5.43-1.276-4.629-11.597,3.104-23.281,6.007-34.773,9.488-1.257.381-2.006,1.667-1.676,2.952,4.002,15.604,7.164,31.413,10.324,47.204,2.965,14.817,5.782,29.686,9.375,44.367,1.465,5.988,3.028,11.998,5.222,17.767.476,1.251,1.585,1.993,2.952,1.676,11.981-2.778,23.835-6.149,35.738-9.239,3.547-.921,7.095-1.834,10.65-2.722,1.012-.253,1.77-1.28,1.762-2.314-.252-31.023-.656-62.046-.836-93.07-.045-7.79-.074-15.579-.071-23.369,0-1.562-1.534-2.724-3.038-2.314-11.866,3.231-23.75,6.393-35.629,9.572-2.981.798-1.716,5.43,1.276,4.629Z"/><path class="f" d="M295.702,23.514c-3.026.873-6.041,1.783-9.042,2.737-2.325.739-4.814,1.396-6.993,2.518-.702.362-1.244,1.279-1.189,2.072.305,4.41,1.178,8.817,1.956,13.162,1.244,6.95,2.627,13.876,4.06,20.789,3.127,15.078,6.44,30.145,10.39,45.031,1.339,5.047,2.593,10.29,4.771,15.058.44.962,1.758,1.35,2.71,1.103,4.947-1.282,10.049-1.935,14.952-3.388,2.955-.875,1.697-5.509-1.276-4.629-4.903,1.452-10.006,2.106-14.952,3.388l2.71,1.103c-.058-.127-.101-.313-.187-.422.43.544.128.316.007.005-.157-.402-.311-.804-.458-1.21-.344-.951-.66-1.912-.964-2.876-.782-2.476-1.487-4.977-2.168-7.482-1.844-6.792-3.497-13.637-5.093-20.491-3.457-14.852-6.66-29.777-9.423-44.774-.553-3.004-1.088-6.012-1.559-9.03-.096-.616-.19-1.233-.279-1.85-.037-.257-.072-.515-.109-.773-.067-.462.063.524-.027-.212-.102-.832-.203-1.665-.261-2.502l-1.189,2.072c.133-.069.295-.176.441-.207-.621.132-.115.05.058-.013.497-.181.992-.368,1.492-.542,1.383-.482,2.777-.931,4.173-1.373,2.896-.917,5.806-1.794,8.724-2.636,2.962-.855,1.703-5.488-1.276-4.629h0Z"/><path class="f" d="M109.335,153.026c1.701-3.923,3.891-7.651,6.588-10.975,2.421-2.984,5.308-6.615,9.093-7.86,3.365-1.107,7.299-.579,10.121,1.631,2.501,1.959,3.704,5.295,3.736,8.393.013,1.303-.167,2.563-.61,3.789-.035.096-.264.679-.171.454.076-.186-.171.384-.233.517-.279.604-.58,1.197-.892,1.784-1.418,2.666-3.064,5.215-4.819,7.67-1.741,2.436-3.622,4.8-5.76,6.903-.458.45-.931.88-1.417,1.3-.089.077-.182.152-.274.226-.307.248.253-.183-.05.041-.224.165-.452.326-.688.474-1.44.908-3.136,1.331-4.829,1.37-3.51.081-6.892-1.76-8.769-4.724-2.282-3.604-2.399-7.635-.786-11.566.492-1.2-.534-2.638-1.676-2.952-1.377-.378-2.458.472-2.952,1.676-1.782,4.341-1.766,9.394.339,13.6,1.901,3.798,4.959,6.548,8.949,8.018s9.184.856,12.661-1.624c2.706-1.931,4.923-4.485,6.965-7.084,2.296-2.923,4.431-5.977,6.297-9.193,1.494-2.574,2.931-5.276,3.339-8.257.595-4.35-.497-8.904-3.223-12.374-2.818-3.587-7.45-5.496-11.966-5.434-5.763.079-10.091,3.406-13.794,7.514-3.833,4.251-7.044,9.001-9.324,14.259-.515,1.188-.351,2.575.861,3.284,1.014.593,2.765.335,3.284-.861Z"/><path class="f" d="M135.242,165.847c1.325-3.909,3.205-7.577,5.526-10.988,2.061-3.028,4.537-6.614,8.039-8.075,3.154-1.316,7.03-1.011,9.859.937,2.538,1.747,3.971,4.969,4.13,7.988.063,1.189-.026,2.315-.362,3.453-.306,1.038-.741,2.125-1.068,2.864-1.213,2.744-2.65,5.394-4.209,7.956-1.496,2.457-3.075,4.849-4.961,6.959-.36.402-.731.794-1.12,1.168-.19.183-.385.359-.583.534-.105.093-.215.184-.325.272.292-.234.045-.03-.115.072-1.371.869-2.871,1.431-4.5,1.568-3.322.279-6.63-1.239-8.642-3.891-2.411-3.178-2.868-7.036-1.67-10.817.936-2.951-3.697-4.215-4.629-1.276-1.345,4.244-1.121,9.191,1.193,13.054,2.123,3.545,5.171,6.067,9.155,7.26,4.151,1.243,9.071.234,12.441-2.45,2.475-1.97,4.395-4.689,6.147-7.291,1.963-2.915,3.725-5.98,5.246-9.148,1.3-2.706,2.541-5.484,2.78-8.509.335-4.229-1.179-8.667-4.015-11.811-3.005-3.331-7.822-4.881-12.23-4.39-2.648.295-5.179,1.177-7.327,2.778-2.219,1.654-3.941,3.735-5.607,5.923-3.37,4.425-5.996,9.313-7.783,14.584-.994,2.932,3.641,4.19,4.629,1.276Z"/><path class="f" d="M157.365,183.444c.441-2.337,1.235-4.633,2.224-6.792,1.003-2.191,2.17-4.47,3.835-6.239,3.096-3.29,9.166-3.445,11.606.675s1.611,8.267.123,12.434c-1.497,4.193-3.851,9.497-8.823,10.155-2.5.331-4.982-.772-6.672-2.564-1.934-2.05-2.745-4.867-2.292-7.669.207-1.278-.331-2.583-1.676-2.952-1.145-.314-2.744.389-2.952,1.676-.565,3.493-.18,7.513,1.969,10.452,1.969,2.692,4.539,4.734,7.827,5.519,3.561.85,7.391.112,10.321-2.117,2.418-1.84,4.062-4.65,5.335-7.362,2.569-5.477,4.417-11.69,2.119-17.587-1.231-3.16-3.271-5.769-6.486-7.041-3.319-1.313-7.118-1.059-10.324.442-3.261,1.527-5.43,4.684-7.072,7.771s-3.036,6.474-3.687,9.923c-.24,1.272.354,2.589,1.676,2.952,1.171.322,2.711-.396,2.952-1.676Z"/><path class="f" d="M85.048,146.249c-.708-1.962-.528-4.188.045-6.252.535-1.93,1.262-3.364,3.029-4.164,3.237-1.465,7.814-.258,10.666,1.922,3.382,2.586,7.184,6.418,6.334,11.08-.171.94-.506,1.821-1.005,2.634-.427.696-.814,1.079-1.399,1.401-1.528.842-3.936,1.154-5.87,1.212-2.383.071-4.33-.338-6.597-1.748s-4.203-3.59-5.204-6.085c-.482-1.202-1.602-2.047-2.952-1.676-1.142.314-2.162,1.742-1.676,2.952,2.42,6.033,7.921,10.795,14.546,11.321,2.768.219,5.861-.12,8.47-1.085,2.704-1,4.507-2.822,5.619-5.476,1.432-3.418,1.157-7.098-.348-10.44-1.112-2.468-3.245-4.604-5.232-6.391-4.23-3.803-10.146-6.145-15.848-4.518-3.359.959-5.554,3.348-6.761,6.553-1.148,3.049-1.569,6.92-.445,10.036.44,1.219,1.633,2.039,2.952,1.676,1.177-.323,2.118-1.727,1.676-2.952Z"/><path class="f" d="M226.186,128.805l-.073-.055.486.375c-.567-.44-1.058-.958-1.499-1.523l.375.486c-.784-1.022-1.397-2.163-1.898-3.348l.242.573c-.228-.546-.434-1.101-.605-1.667-.177-.587-.569-1.122-1.103-1.434-.514-.301-1.273-.429-1.849-.242-1.212.392-2.065,1.665-1.676,2.952.399,1.319.948,2.616,1.606,3.826.443.814.969,1.558,1.542,2.285.59.749,1.268,1.343,2.028,1.916.464.35,1.317.389,1.849.242.557-.153,1.16-.584,1.434-1.103.294-.557.442-1.232.242-1.849l-.242-.573c-.213-.361-.5-.648-.861-.861h0Z"/></g></svg>