<?xml version="1.0" encoding="UTF-8"?><svg id="b" xmlns="http://www.w3.org/2000/svg" width="398.039" height="247.094" viewBox="0 0 398.039 247.094"><defs><style>.e{fill:#3d8dcc;}.f{fill:#211715;}.g{fill:#fff;}.h{fill:#b3b3b3;}.i{fill:#645d5c;}.j{fill:#febe69;}</style></defs><g id="c"><g id="d"><path class="h" d="M121.518,137.446c-2.63-3.35-12.64-11.49-16.02-14.12-1.11,1.48-8,9.248-9.313,10.835l-1.524,1.842c.293,5.677.205,14.872.191,19.144l-.002.509c2.822-1.104,4.988-1.947,6.003-2.327.977,1.853,2.326,4.762,3.811,8.05l1.398-7.625c.345-1.883,1.172-4.501,2.078-5.647.959-1.214,2.722-1.731,3.929-2.683,2.437-1.921,4.628-4.069,7.005-6.019.808-.663,1.509-1.541,2.447-1.956"/><path class="g" d="M137.749,125.489c-.954,2.788-5.889,3.562-11.308,3.952-4.923.355-5.624,3.174-6.758,5.605,0,0-.046.099-.127.278-3.732-3.679-10.494-9.197-13.572-11.616l2.497-1.863c9.66-6.508,6.849-9.066,12.056-14.302,2.105-2.117,10.828-5.076,14.812-4.258l7.125,1.059c.46-.587,1.079-.961,1.914-.913,1.223.07,2.605,1.51,3.091,3.201.183-.089.294-.142.294-.142.752-.362,4.151-.67,4.869,1.038,1.459,3.472-3.553,5.691-5.252,6.438l-.418.215c-.188.934-.402,1.849-.603,2.734-.405,1.802-2.451,3.697-4.622,2.269-.065.472-.14.947-.216,1.422-.198,1.234-1.202,1.613-1.64,1.487,0,0-.71-.205-1.375-.396-.164,1.395-.297,2.549-.766,3.793"/><path class="g" d="M357.065,98.943c-1.607,3.797-12.134,10.537-13.364,11.173-5.179,2.679-18.251,5.336-21.073,2.775,2.33-2.457,4.656-7.238,5.551-10.832-.386-1.522-.659-2.601-.659-2.601-.603-2.327-1.711-4.78-1.753-4.9-.277-.736-1.059-1.162-1.823-.978-3.186.761-8.053.15-11.581-1.261-1.8-.72-3.518-2.071-4.816-4.716-.613-1.236-1.069-2.896-1.399-4.598-.5-2.584-.718-5.279-.755-6.817-.281-1.133-.744-2.189-1.547-3.106-1.212-1.388-3.201-2.5-2.1-4.815.418-.875,1.191-1.512,2.06-1.95,4.379-2.205,4.751-8.736,5.032-13.443-.063-3.896.421-7.284,1.326-10.233,7.054,6.68,15.175,12.231,23.96,16.378,1.794.847,3.66,1.647,5.639,1.793,0,0,1.243.092,2.696.198.283-.121.586-.219.916-.291,1.408-.308,2.763-.087,3.78.703,1.514,1.176,2.153,3.56,1.997,5.5l7.914,32.022Z"/><path class="h" d="M73.798,238.36c-6.861,0-10.262-.038-18.5-1.222-6.661-.958-17.549-3.456-26.14-6.285-1.301-.428-1.939-1.734-1.635-3.025,1.721-7.298,5.567-27.862,7.811-37.662h57.35l4.167,34.583-6.587,7.923c-2.995,3.603-7.438,5.687-12.124,5.687h-4.342Z"/><path class="j" d="M365.394,170.619c.674-3.193,1.041-6.434,1.439-9.187,1.786-12.359,5.899-26.036,2.555-38.378,0,0-.763-2.817-1.236-4.585-3.218-7.808-8.763-14.089-10.51-19.592,0,0-.118-.371-.236-.742-.171.403-.341.807-.341.807-1.607,3.797-12.134,10.537-13.364,11.173-5.342,2.763-19.079,5.503-21.314,2.512-4.121,4.959-8.361,13.984-10.76,21.466-.146.081-.285.185-.412.317-1.246,2.957-2.453,5.994-4.016,8.579-1.087,1.798-2.558,2.965-4.385,3.879-1.428.714-3.075,1.274-4.927,1.859,0,0-.5.158-.999.315,1.456.859,3.306,1.949,3.306,1.949,2.168,1.278,7.495,6.71,7.923,8.445,0,0,.058.237.161.652.716.054,1.239.094,1.239.094,1.239.135,2.428.257,3.589.375l.522,20.679,17.004,19.069h9.877c5.104,0,23.354-.394,28.314-.394l1.151-.08c.553-5.053-3.294-20.349-4.173-25.427-.222-1.282-.353-2.54-.409-3.785Z"/><path class="g" d="M81.979,188.208c16.902-18.406,36.928-40.585,45.191-50.884.382-.476.956-.754,1.566-.754h143.304c.605,0,1.179.272,1.558.745,12.833,15.998,54.095,60.71,67.88,75.348.174.184.358.62.358.873,0,1.813-.002,7.306-.002,9.868,0,1.109-.878,2.01-1.987,2.01-27.349,0-249.314,0-278.91.001-1.11,0-2.003-.902-1.994-2.012.025-3.012.009-7.799.014-9.877,0-.254.164-.679.338-.864,4.916-5.219,13.321-14.257,22.685-24.454Z"/><path class="h" d="M76.998,192.907c-2.136.819-4.338,1.618-6.626,2.402-14.599,5.002-30.855,6.871-36.771-12.559-3.265-10.723-4.031-30.836-4.586-42.833-.432-9.344-.661-14.625,1.128-24.396.035-.215.304-1.039.512-1.764,2.565-8.952,10.212-15.319,14.919-23.118.888-2.298,3.661-5.113,4.943-8.036-.661-.817,13.554,16.497,22.501,26.361,4.583,5.053,14.088,19.214,19.25,24.841l2.481,2.262c.499,5.648.119,14.256.102,19.081,0,0,.005.19.013.504,2.815-1.101,4.975-1.942,5.989-2.322,2.374,4.504,6.947,15.247,10.332,22.504-11.849,7.024-21.941,12.38-34.186,17.074Z"/><path class="g" d="M77.22,114.169c-1.611-2.119-3.06-3.945-4.203-5.205-7.311-8.06-18.138-21.093-21.492-25.145.49-1.377,1.018-2.856,1.138-3.044,6.932,2.172,21.22,8.401,26.71,9.286.87-.969,1.78-1.901,2.726-2.797.582,1.659.973,2.777.973,2.777.312.892.656,2.026,1.016,3.302h1.446c2.724,5.465,3.365,9.736,4.796,14.907,1.38,7.594,3.183,16.775,4.417,28.261l-2.482-2.705c-3.875-4.224-10.197-13.257-15.047-19.636Z"/><path class="g" d="M48.577,16.634c-2.55.635-4.208,1.673-7.169,5.341-3.662,4.535-4.322,9.96-4.587,11.02-2.376,9.52.867,22.088,9.547,30.964,1.579,2.033,4.267,4.207,6.177,6.595,1.054,1.318,1.448,2.93,1.448,4.366,0,1.064-.962,4.77-1.476,5.808,6.876,2.128,21.348,8.449,26.87,9.333,1.294-2.519,2.264-4.396,2.264-4.396,1.367-2.643,2.281-5.392,2.338-5.506.365-.703,1.198-1.035,1.941-.76,3.095,1.143,8.037,1.117,11.734.128,1.886-.504,3.768-1.65,5.383-4.139.761-1.163,1.416-2.768,1.951-4.431.81-2.525,1.352-5.194,1.573-6.728.417-1.1,1.007-2.1,1.92-2.921,1.379-1.243,3.502-2.117,2.678-4.564-.313-.925-1.01-1.655-1.827-2.198-4.116-2.732-3.704-9.308-3.419-14.05.38-2.788.448-5.348.252-7.702-.096-2.584-.279-3.486-.405-4.502-.233-1.878-.924-4.573-1.335-6.072-.648-2.365-1.511-3.679-2.873-6.073-4.089-7.187-12.214-11.733-20.597-13.472-8.383-1.739-17.923-.197-25.372,4.678-2.018,1.321-3.178,3.103-4.298,5.094l-2.719,4.184Z"/><path class="e" d="M89.302,130.279c-2.283-2.873-4.921-6.455-7.49-9.935-.81-5.741-.877-12.666-1.294-17.632,0,0-.038-.452-.09-1.053-.608-.355-2.889-3.355-3.466-3.827,0,0-.134-.157-.321-.377,1.226-3.202,2.594-6.677,3.032-7.99.764-.815,1.555-1.605,2.371-2.368.612,1.747,1.03,2.943,1.03,2.943.714,2.043,1.6,5.354,2.451,8.719.397.022.708.047.708.047,1.038,4.485,5.813,27.664,6.035,30.775,0,0,.164,2.289.327,4.579l-.327-.356c-.878-.957-1.882-2.161-2.966-3.526Z"/><path class="i" d="M36.582,45.058c-.759-4.217-.683-8.369.239-12.063.265-1.06.925-6.485,4.587-11.02,2.961-3.668,4.619-4.706,7.169-5.341l.553-.851,2.166-3.333c1.12-1.992,2.28-3.774,4.298-5.094,7.449-4.874,16.989-6.416,25.372-4.678,8.383,1.739,16.508,6.285,20.597,13.472,1.362,2.394,2.105,3.744,2.873,6.073l1.335,6.072c.115.66.212,1.277.292,2.347-7.366-.312-22.619,1.719-27.262,5.998-2.368,2.364-2.505,7.455-4.811,10.867-.962-1.494-1.847-2.713-3.551-3.306-1.372-.477-2.753-.419-3.865.25-1.655.995-2.58,3.302-2.657,5.261-.153,3.895,1.147,6.954,3.72,9.307-.218.296-.343.466-.343.466-2.652,3.592-9.994,8.257-15.385,9.561,0,0-.194.075-.504.194-1.736-1.879-3.753-3.625-5.037-5.278-5.312-5.433-8.588-12.248-9.786-18.902Z"/><path class="f" d="M65.566,58.474c.265-.353-.224.265-.317.37-.2.227-.408.448-.621.664-.494.499-1.016.97-1.555,1.421-1.044.874-2.256,1.72-3.556,2.528-2.641,1.643-5.191,2.926-8.141,3.659-2.497.62-1.439,4.478,1.063,3.857,3.291-.817,6.439-2.388,9.297-4.187,2.716-1.711,5.343-3.711,7.283-6.293.649-.864.139-2.235-.718-2.736-1.023-.598-2.086-.149-2.736.718h0Z"/><path class="f" d="M74.591,44.906c-1.585-2.05-4.108-3.291-6.727-2.949-2.655.347-4.407,2.303-5.338,4.693-1.485,3.813-.417,8.713,2.012,11.903,1.501,1.971,3.47,3.479,5.657,4.624,2.278,1.193,4.303-2.258,2.019-3.454-.831-.435-1.854-1.045-2.479-1.535-.64-.501-1.532-1.387-1.875-1.827-1.109-1.425-1.743-3.1-1.892-4.697-.172-1.836-.105-3.935,1.283-5.229.58-.541,1.485-.671,2.363-.401.961.296,1.533.902,2.15,1.699.661.855,2.133.695,2.828,0,.844-.844.663-1.971,0-2.828h0Z"/><path class="f" d="M100.391,46.796c.414,1.41.151,4.653-2.383,4.925-3.351-.026-3.536-3.948-2.411-5.789.921-1.508,3.635-2.132,4.795.864Z"/><path class="f" d="M104.005,28.613c-6.725.089-13.794.98-20.172,3.177-2.672.921-5.661,2.124-7.337,4.525-2.059,2.949-2.198,6.796-4.029,9.866-1.322,2.216,2.135,4.23,3.454,2.019,1.74-2.917,1.98-6.46,3.693-9.347,1.1-1.855,3.79-2.727,5.883-3.406,5.912-1.918,12.305-2.752,18.508-2.834,2.572-.034,2.579-4.034,0-4h0Z"/><path class="f" d="M48.045,14.706c-4.779,1.233-8.448,5.464-10.589,9.746-1.797,3.595-2.755,7.763-3.212,11.747-.569,4.962.198,10.125,1.845,14.822,1.892,5.396,4.917,9.983,8.723,14.208,1.016,1.128,2.025,2.239,3.105,3.31,1.159,1.149,2.519,2.304,3.373,3.708,1.371,2.253.363,4.958-.422,7.254-.834,2.441,3.028,3.489,3.857,1.063.697-2.038,1.438-4.384,1.21-6.559-.327-3.114-2.154-5.243-4.279-7.388-3.723-3.759-7.322-7.535-9.796-12.266-2.265-4.331-3.646-9.201-3.785-14.096-.101-3.568.553-7.218,1.596-10.63.873-2.856,2.322-5.377,4.305-7.609,1.488-1.675,2.97-2.896,5.13-3.453,2.491-.643,1.435-4.502-1.063-3.857h0Z"/><path class="f" d="M53.022,13.46c1.256-2.214,2.591-3.832,4.802-5.135s4.576-2.307,7.047-3.023c4.89-1.416,10.166-1.75,15.175-.774,9.53,1.858,18.142,7.372,21.924,16.601,1.699,4.146,2.028,8.276,2.264,12.507.269,4.844-.892,9.63-.274,14.476.27,2.114.817,4.248,2.103,5.988.691.935,1.486,1.499,2.361,2.24.482.408,1.168,1.057.824,1.714-.322.614-1.345,1.143-1.848,1.568-.992.837-1.786,1.88-2.33,3.059-.504,1.094-.612,2.231-.859,3.401-.31,1.465-.681,2.92-1.141,4.345-.839,2.604-2.081,5.367-4.638,6.683-2.236,1.151-5.206,1.233-7.663,1.134-1.251-.05-2.484-.204-3.686-.566-1.453-.437-2.884-.546-4.093.561-.728.666-.986,1.562-1.321,2.451-.51,1.355-1.089,2.675-1.745,3.966-1.162,2.291,2.288,4.318,3.454,2.019.664-1.308,1.253-2.651,1.796-4.013.183-.458.357-.92.528-1.383.032-.087.11-.244.126-.347.102-.642-.363.557-.43.397.092.22,1.236.374,1.456.424.59.134,1.187.225,1.787.303,1.444.188,2.894.252,4.348.177,2.515-.129,5.204-.478,7.461-1.668,2.554-1.347,4.353-3.797,5.472-6.4,1.164-2.706,1.924-5.593,2.431-8.49.207-1.186.644-2.122,1.553-2.95.7-.638,1.527-1.123,2.165-1.83,1.869-2.072,1.498-4.962-.335-6.937-.713-.768-1.69-1.212-2.343-2.045-.619-.789-.961-1.757-1.2-2.718-1.214-4.883.242-9.986.069-14.917-.169-4.819-.608-9.089-2.262-13.752-3.632-10.241-12.904-16.976-23.191-19.48-6.035-1.469-12.41-1.388-18.409.233-3.061.827-6.049,2.068-8.772,3.696-2.701,1.616-4.518,3.748-6.06,6.466-1.272,2.242,2.182,4.26,3.454,2.019h0Z"/><path class="f" d="M104.005,63.136l-4.094-.517c-.738-.093-1.446-.253-2.179-.035-.614.183-1.182.654-1.494,1.212-.272.487-.33,1.005-.33,1.554.002,2.542.559,5.085,1.59,7.403.191.429.763.8,1.195.919.479.132,1.116.072,1.541-.202.427-.275.803-.685.919-1.195.127-.557.029-1.023-.202-1.541-.158-.356.163.417.029.075-.041-.105-.083-.209-.122-.315-.088-.235-.169-.473-.245-.713-.145-.461-.268-.929-.372-1.401-.057-.261-.109-.523-.155-.787-.021-.122-.039-.244-.06-.366-.065-.389.051.464.004.043-.054-.482-.1-.964-.116-1.45-.007-.222.038-.486-.007-.702-.003.234-.08.441-.229.623-.132.351-.394.572-.788.663-.447.126-.355.044-.112.071.565.063,1.129.143,1.694.214l3.529.446c.471.06,1.095-.266,1.414-.586.347-.347.608-.916.586-1.414-.023-.517-.193-1.054-.586-1.414-.418-.383-.857-.515-1.414-.586h0Z"/><path class="f" d="M131.983,1.187c-2.708,2.212-5.423,4.416-8.131,6.628-.814.665-.741,2.148,0,2.828.864.794,1.96.709,2.828,0,2.708-2.212,5.423-4.416,8.131-6.628.814-.665.741-2.148,0-2.828-.864-.794-1.96-.709-2.828,0h0Z"/><path class="f" d="M138.964,14.464c-3.387.868-6.777,1.726-10.164,2.593-1.014.26-1.725,1.445-1.397,2.46.339,1.046,1.374,1.675,2.46,1.397,3.387-.868,6.777-1.726,10.164-2.593,1.014-.26,1.725-1.445,1.397-2.46-.339-1.046-1.374-1.675-2.46-1.397h0Z"/><path class="f" d="M141.115,27.971c-3.492-.173-6.984-.357-10.476-.53-1.047-.052-2.047.957-2,2,.051,1.128.879,1.944,2,2,3.492.173,6.984.357,10.476.53,1.047.052,2.047-.957,2-2-.051-1.128-.879-1.944-2-2h0Z"/><path class="f" d="M182.684,138.567h87.499c.49,0,1.042-.072,1.527,0,.916.135,1.457,1.284,2.058,1.966,1.315,1.492,2.634,2.982,3.955,4.469,1.713,1.928,4.534-.909,2.828-2.828-1.365-1.536-2.727-3.075-4.086-4.616-1.209-1.372-2.271-2.838-4.249-2.972-.278-.019-.554-.017-.834-.017h-76.606c-3.96,0-7.956-.157-11.914,0-.059.002-.119,0-.179,0-2.574,0-2.578,4,0,4h0Z"/><path class="f" d="M131.601,138.567h6.125c1.046,0,2.048-.92,2-2s-.879-2-2-2h-6.125c-1.046,0-2.048.92-2,2s.879,2,2,2h0Z"/><path class="f" d="M70.601,215.533c3.3,0,6.6-.001,9.901-.002,6.571-.002,13.141-.004,19.712-.006,9.057-.003,18.114-.006,27.171-.009,10.759-.004,21.518-.007,32.277-.011,11.677-.004,23.354-.008,35.03-.012,11.81-.004,23.621-.008,35.431-.012,11.16-.004,22.32-.008,33.479-.011,9.725-.003,19.45-.007,29.175-.01,7.506-.002,15.012-.005,22.518-.007,4.503-.001,9.005-.003,13.508-.003.551,0,1.101,0,1.652,0,2.574,0,2.578-4,0-4-3.657,0-7.315.001-10.972.002-6.851.002-13.701.004-20.552.006-9.26.003-18.519.006-27.779.009-10.884.004-21.768.007-32.653.011-11.725.004-23.45.008-35.174.012s-23.562.008-35.343.012c-11.053.004-22.106.008-33.16.011-9.541.003-19.082.007-28.623.01-7.245.002-14.49.005-21.734.007-4.164.001-8.328.003-12.493.003-.457,0-.914,0-1.371,0-2.574,0-2.578,4,0,4h0Z"/><path class="f" d="M15.733,140.992c-5.233,2.625-11.534,5.089-14.275,10.688-1.51,3.084-1.606,6.701-1.347,10.074.406,5.282,1.115,10.55,1.758,15.807,2,16.348,4.17,32.675,6.347,48.999.727,5.448,1.462,10.895,2.19,16.343.143,1.07.817,2,2,2,.969,0,2.144-.922,2-2-1.646-12.321-3.304-24.64-4.917-36.965-1.846-14.108-3.858-28.228-5.22-42.393-.24-2.493-.452-5.073-.036-7.556,1.077-6.44,8.418-8.985,13.518-11.543,2.301-1.154.278-4.606-2.019-3.454h0Z"/><path class="f" d="M380.284,144.163c2.874,1.448,5.792,2.874,8.444,4.711,2.006,1.39,3.979,3.306,4.732,5.694.786,2.493.613,5.245.44,7.832-.37,5.546-.927,11.082-1.454,16.615-1.552,16.304-3.225,32.598-4.965,48.883-.577,5.398-1.099,10.809-1.815,16.191-.143,1.073,1.021,2,2,2,1.199,0,1.857-.924,2-2,1.683-12.653,2.803-25.401,4.102-38.097,1.466-14.335,3.078-28.685,4.096-43.061.22-3.112.4-6.426-.546-9.426-2.107-6.678-9.257-9.895-15.014-12.796-2.293-1.155-4.321,2.294-2.019,3.454h0Z"/><path class="g" d="M176.95,155.234c0-5.293-9.635-7.532-17.232-7.532-8.057,0-18.646,3.056-18.646,8.12,0,5.985,8.978,7.303,17.955,7.303,6.906,0,17.922-1.905,17.922-7.891Z"/><path class="f" d="M178.95,155.234c-.19-6.862-9.285-8.654-14.595-9.265-6.722-.773-14.406-.035-20.42,3.278-2.354,1.297-4.59,3.323-4.838,6.152-.261,2.976,1.573,5.537,4.063,6.969,3.039,1.748,6.721,2.249,10.156,2.54s6.902.334,10.321-.04c5.584-.611,15.136-2.397,15.312-9.635.063-2.575-3.937-2.574-4,0-.015.632-.208,1.185-.585,1.67-.628.807-1.486,1.326-2.396,1.794-2.184,1.125-4.713,1.655-7.126,2.017-2.608.39-5.251.452-7.883.386-3-.075-6.042-.279-8.949-1.075-1.804-.494-4.189-1.374-4.788-3.194-.262-.796-.182-1.372.06-1.827.405-.761,1.117-1.351,1.922-1.862,4.529-2.876,10.667-3.6,15.914-3.416,3.224.113,6.489.576,9.532,1.685,1.115.406,2.272.948,3.166,1.74.748.662,1.112,1.325,1.132,2.082.071,2.569,4.071,2.579,4,0Z"/><path class="g" d="M169.902,149.898c1.69-3.62,2.647-8.386,2.554-11.915l-.113-.566c.051-2.345-6.744-3.237-12.602-3.382-7.382-.183-13.873.562-14.27,3.248-.155,6.019.066,10.092,1.813,13.684,1.882,3.869,5.736,6.143,10.856,6.143,5.659,0,8.55-1.996,10.552-5.027.436-.657.841-1.393,1.21-2.184Z"/><path class="f" d="M170.456,137.984c.059,3.422-.657,6.899-1.922,10.074-.976,2.45-2.461,4.811-4.887,6.015-2.742,1.361-6.445,1.379-9.322.483-2.737-.853-4.742-2.897-5.726-5.566-1.368-3.712-1.223-7.814-1.129-11.706.063-2.575-3.938-2.574-4,0-.184,7.564.175,16.976,8.2,20.518,3.677,1.623,8.298,1.789,12.112.51,3.372-1.131,5.88-3.573,7.501-6.7,2.131-4.11,3.251-9.001,3.172-13.628-.044-2.571-4.044-2.579-4,0h0Z"/><path class="f" d="M159.74,136.035c2.776.077,5.601.222,8.311.869.727.174,1.909.557,2.272.788.278.177.101-.019.098.06-.013.413.032-1.372-.035-.757-.016.143-.012.51.038-.059-.003.037-.131.279-.18.294.177-.057.286-.252,0-.038-.1.075-.191.175-.287.256.394-.33-.13.058-.294.15-.094.053-.814.377-.374.199-.323.131-.654.241-.988.34-1.55.46-2.764.603-4.226.713-3.414.256-7.184.09-10.355-.395-1.484-.227-2.97-.517-4.404-.967-.292-.092-.58-.194-.868-.299-.113-.041-.446-.193-.014.001-.127-.057-.258-.111-.381-.178-.181-.098-.361-.218-.545-.308-.435-.212.242.244-.155-.14.002.002.185.273.195.338-.007-.046.008,1.075.056.527-.017.188-.082.152.078.026.325-.255,1.483-.665,2.276-.846,3.173-.721,6.551-.648,9.784-.575,2.575.058,2.574-3.942,0-4-3.597-.081-7.319-.083-10.847.718-2.163.491-5.003,1.649-5.264,4.204-.349,3.42,4.607,4.501,7.072,5.008,4.246.873,8.697,1.192,13.023.91,3.23-.211,7.927-.6,9.939-3.577,1.712-2.534-.309-4.744-2.692-5.678-3.472-1.362-7.548-1.482-11.231-1.584-2.575-.071-2.573,3.929,0,4Z"/><path class="g" d="M190.75,181.078c1.671-8.818,5.484-32.057,6.642-37.965.142-.726-.545-1.359-1.264-1.154-8.746,2.498-41.361,16.157-47.379,18.257-.36.125-.627.409-.695.78-.715,3.894-1.675,9.887-2.647,16.086-9.019,4.304-24.459,11.682-30.207,14.497-.819.401-.704,1.495.131,1.864,6.568,2.905,25.847,10.618,27.778,10.527,2.384-.112,37.659-16.507,46.804-20.738.274-.127.485-.356.544-.65.088-.437.186-.942.293-1.505Z"/><path class="f" d="M143.321,203.315c1.638-10.051,3.134-20.124,4.733-30.181.377-2.372.758-4.744,1.152-7.114.154-.928.311-1.855.472-2.782.065-.375.131-.75.198-1.124.014-.077.133-.448.091-.505.051.07-.935.451-.417.44.447-.009,1.095-.404,1.515-.564.647-.247,1.293-.498,1.939-.75,1.723-.674,3.442-1.359,5.159-2.046,9.053-3.619,18.081-7.302,27.187-10.785,3.428-1.311,6.865-2.641,10.371-3.735.126-.039.756-.141.813-.246.072-.134-1.137-1.13-1.108-1.158-.05.046-.023.195-.05.262-.061.145-.066.346-.095.501-.137.734-.27,1.469-.402,2.204-.364,2.035-.717,4.072-1.068,6.108-1.629,9.447-3.153,18.916-4.922,28.337-.132.705-.205,1.475-.468,2.143l.514-.883c-.25.292-.915.475-1.272.64-.604.28-1.208.559-1.811.839-1.352.626-2.705,1.252-4.057,1.877-3.368,1.556-6.738,3.109-10.111,4.654-7.059,3.233-14.122,6.461-21.249,9.542-2.202.952-4.047,1.786-6.464,2.648-.28.1-.563.189-.846.282-.095.031-.21.041-.301.081-.391.169.515-.034.228-.03-.408.005.53.156.037.008-.194-.058-.403-.088-.6-.138-.625-.157-1.241-.35-1.855-.547-4.016-1.284-7.956-2.829-11.875-4.379-2.24-.886-4.472-1.792-6.694-2.72-.934-.39-1.866-.786-2.796-1.188-.462-.199-.923-.4-1.383-.603-.407-.179-1.105-.679-1.547-.689l-.131,1.59c.178-.087.356-.174.534-.261.276-.135.553-.269.829-.403.583-.283,1.166-.565,1.75-.846,1.265-.609,2.531-1.213,3.798-1.816,2.736-1.301,5.477-2.591,8.22-3.878,4.795-2.25,9.6-4.481,14.391-6.738,2.327-1.096.299-4.546-2.019-3.454-5.023,2.366-10.059,4.704-15.085,7.064-2.73,1.282-5.459,2.568-8.182,3.864-1.248.594-2.494,1.19-3.739,1.791-1.22.589-2.898,1.086-3.644,2.294-.853,1.38-.319,3.238,1.008,4.097.948.614,2.143.993,3.18,1.441,2.609,1.127,5.235,2.218,7.871,3.282,4.632,1.87,9.292,3.724,14.042,5.276,1.205.394,2.596.961,3.889.951.717-.005,1.42-.272,2.084-.512,2.875-1.04,5.679-2.299,8.48-3.519,8.35-3.639,16.629-7.441,24.902-11.249,3.396-1.563,6.789-3.132,10.181-4.703,1.677-.777,3.307-1.283,3.773-3.309.359-1.562.596-3.162.879-4.739,1.693-9.45,3.247-18.924,4.899-28.381.281-1.606.562-3.212.861-4.814.169-.907.443-1.835.147-2.746-.557-1.714-2.29-2.308-3.914-1.895-3.21.816-6.351,2.159-9.442,3.329-8.859,3.352-17.634,6.923-26.425,10.448-3.197,1.282-6.39,2.577-9.61,3.8-1.685.64-3.372,1.079-3.801,3.113-.377,1.791-.628,3.618-.925,5.424-1.667,10.144-3.195,20.311-4.79,30.467-.292,1.857-.585,3.713-.887,5.568-.174,1.065.277,2.152,1.397,2.46.955.262,2.286-.325,2.46-1.397h0Z"/><path class="g" d="M134.807,148.012c-.261-.858-.838-1.615-1.748-2.026-1.583-.715-4.392.252-6.051.605-1.868.397-4.495,1.204-6.724,1.667,1.685-.989,2.602-2.986,3.974-4.377,1.278-1.295,2.494-2.513,1.79-4.518-.517-1.472-2.186-2.309-3.699-2.146-1.39.15-2.246,1.343-3.275,2.188-2.376,1.951-4.568,4.098-7.005,6.019-1.207.952-2.97,1.468-3.929,2.683-.906,1.147-1.733,3.764-2.078,5.647l-3.086,2.856c2.621,4.435,5.753,10.84,8.308,16.262,4.114-.162,8.581.446,10.002.135,2.516-.551,5.246-.741,7.549-1.838,1.972-.94,3.499-4.324,3.546-4.604.352-2.103,1.251-5.914-.083-7.425,1.239-1.197,2.01-2.025,1.756-3.369-.28-1.478-1.356-2.54-2.15-2.591,1.05-.376,2.05-1.016,2.719-2.454.387-.832.455-1.827.185-2.713Z"/><path class="f" d="M32.629,233.847c.369,3.932.807,7.88,1.482,11.773.179,1.034,1.502,1.707,2.46,1.397,1.113-.36,1.589-1.353,1.397-2.46-.094-.541-.178-1.084-.259-1.627-.057-.38-.112-.76-.165-1.14-.032-.227-.063-.453-.094-.68-.032-.233-.014-.109.007.051-.018-.139-.037-.278-.055-.417-.3-2.293-.557-4.593-.773-6.895-.097-1.039-.85-2.052-2-2-1,.045-2.105.884-2,2h0Z"/><path class="f" d="M51.931,81.188c-.116-.144-.019-.018.29.377l-3.141,2.424c1.474,1.625,2.813,3.396,4.218,5.081,3.141,3.766,6.299,7.518,9.488,11.243s6.506,7.308,9.666,11.037c2.969,3.503,5.627,7.277,8.351,10.97,3.224,4.373,6.385,8.877,10.05,12.899,1.738,1.907,4.56-.929,2.828-2.828-6.492-7.122-11.549-15.466-17.624-22.932-2.968-3.647-6.229-7.071-9.296-10.638-3.227-3.753-6.42-7.535-9.594-11.333-1.753-2.097-3.422-4.303-5.259-6.328-1.496-1.649-4.533.599-3.141,2.424.111.145.22.291.335.433.679.841,2.122.707,2.828,0,.831-.831.681-1.985,0-2.828h0Z"/><path class="f" d="M84.304,99.339c1.99,8.628,3.702,17.348,5.286,26.058.17.933.336,1.867.488,2.803.059.363.113.726.166,1.09-.09-.621.005.059.024.292.199,2.55,4.201,2.571,4,0-.282-3.614-1.179-7.242-1.871-10.791-.989-5.073-2.02-10.137-3.084-15.194-.374-1.776-.744-3.553-1.152-5.322-.578-2.507-4.436-1.446-3.857,1.063h0Z"/><path class="f" d="M81.145,90.573c1.254,3.617,2.124,7.379,3.044,11.092l1.397-2.46c-.677.133-1.356.254-2.037.359-.606.093.397-.04-.188.025-.142.016-.285.032-.427.047-.271.027-.543.048-.815.062-.258.014-.516.021-.775.021-.126,0-.252-.001-.378-.005-.107-.003-.508-.082-.121.018.09.023.763.305.555.178.558.339.356.299.219.161-.1-.1-.203-.196-.301-.299-1.014-1.063-1.824-2.398-2.942-3.353-.795-.679-2.059-.839-2.828,0-.686.747-.85,2.103,0,2.828,1.214,1.037,2.017,2.513,3.188,3.601.368.342.755.645,1.25.774.635.166,1.402.11,2.053.079,1.549-.074,3.091-.342,4.61-.64,1.08-.212,1.641-1.475,1.397-2.46-.919-3.712-1.79-7.474-3.044-11.092-.342-.986-1.386-1.745-2.46-1.397-.976.316-1.764,1.402-1.397,2.46h0Z"/><path class="f" d="M78.518,102.712c.4,4.848.473,9.716.934,14.56.102,1.075.846,2,2,2,1.002,0,2.103-.918,2-2-.461-4.844-.534-9.712-.934-14.56-.089-1.077-.856-2-2-2-1.013,0-2.089.917-2,2h0Z"/><path class="f" d="M41.043,113.307c7.679-.614,16.696,4.23,18.946,11.928.721,2.466,4.582,1.416,3.857-1.063-2.724-9.318-13.344-15.621-22.804-14.864-1.077.086-2,.858-2,2,0,1.015.917,2.087,2,2h0Z"/><path class="f" d="M48.484,84.865c-.011,3.961-.53,7.984-1.292,11.867-.169.859.106,1.811.919,2.259,3.229,1.776,6.313,3.815,9.62,5.448l-.919-2.259c-.475,1.866-1.04,3.713-1.386,5.61-.173.95.136,1.708.919,2.259,3.547,2.494,6.901,5.364,10.302,8.133,4.379,3.566,8.737,7.159,13.164,10.665.846.67,2.003.826,2.828,0,.696-.696.851-2.154,0-2.828-4.523-3.582-8.974-7.255-13.448-10.897-3.554-2.893-7.075-5.89-10.827-8.527l.919,2.259c.346-1.897.911-3.744,1.386-5.61.206-.809-.124-1.866-.919-2.259-3.307-1.633-6.391-3.672-9.62-5.448l.919,2.259c.829-4.224,1.423-8.621,1.435-12.931.007-2.574-3.993-2.578-4,0h0Z"/><path class="f" d="M83.809,94.352c3.48,7.086,4.767,15.17,6.132,22.877,1.472,8.312,2.997,16.763,3.06,25.222.032,4.233-.13,8.463-.15,12.696-.012,2.574,3.988,2.577,4,0,.018-3.826.155-7.651.154-11.477,0-4.472-.401-8.838-.987-13.271-.571-4.322-1.242-8.629-1.99-12.924-.637-3.661-1.157-7.405-2.102-10.998-1.275-4.851-2.439-9.613-4.664-14.143-1.135-2.31-4.586-.286-3.454,2.019h0Z"/><path class="f" d="M148.782,108.216c-.771.354-.306.125-.063.068.085-.02.17-.037.256-.052.465-.082-.522.051-.14.016.475-.043.949-.058,1.425-.013.449.043-.432-.077-.131-.019.118.023.235.044.352.072.114.028.227.06.338.098.425.146-.442-.249-.061-.025.094.055.185.115.279.17.192.113-.412-.382-.212-.158.028.031.068.073.099.098.203.169-.292-.478-.104-.126.039.074.141.302-.003-.039-.155-.367-.022-.04.005.045.039.122.066.244.096.368.073.299-.047-.578-.019-.135.007.116.001.231,0,.347-.001.173-.097.376.044-.269-.016.073-.026.147-.042.22-.023.097-.054.191-.082.286-.122.423.226-.438.045-.098-.114.216-.236.418-.374.619-.154.225.176-.222.171-.219-.029.016-.075.092-.1.121-.086.101-.176.199-.269.293-.17.174-.351.338-.537.494-.052.044-.107.085-.159.13-.184.156.446-.332.177-.137-.089.064-.177.13-.267.193-.212.148-.429.288-.649.422-.791.481-1.628.878-2.475,1.25-.428.188-.801.765-.919,1.195-.132.479-.072,1.116.202,1.541.275.427.685.803,1.195.919.558.127,1.022.027,1.541-.202,2.125-.934,4.228-2.105,5.59-4.046.864-1.231,1.148-2.875.703-4.316-.503-1.629-1.832-2.692-3.5-2.971-1.475-.247-3.051-.23-4.429.403-.43.197-.799.757-.919,1.195-.132.479-.072,1.116.202,1.541.634.984,1.716,1.186,2.736.718h0Z"/><path class="f" d="M143.104,109.09c.028-.3.06-.599.098-.898-.069.549.004.001.019-.084.033-.192.067-.383.107-.574.077-.366.169-.73.286-1.086.045-.136.186-.488.042-.163.089-.203.21-.388.305-.586.172-.36-.217.213.061-.1.065-.073.346-.46.045-.084.082-.056.167-.106.256-.149-.227.09-.269.113-.126.069.145-.036.097-.036-.146.001.112-.009.224-.011.337-.004-.365-.031.119.163-.124-.006-.006-.004.494.348.285.175.392.324.61.632.833,1.105.413.878.328,1.967.262,3.035-.078,1.256-.298,2.491-.552,3.722-.142.689-.298,1.375-.455,2.061-.065.285-.123.576-.196.859-.002.008-.199.585-.081.319-.049.11-.379.599-.3.506-.037.044-.443.402-.257.267-.035.026-.511.242-.304.174-.243.058-.281.07-.115.036-.152.005-.303-.004-.453-.027-1.076-.114-2,1.001-2,2,0,1.176.921,1.886,2,2,2.63.278,4.827-1.942,5.4-4.353.67-2.818,1.336-5.72,1.351-8.631.013-2.592-.973-5.404-3.398-6.702-2.126-1.138-4.47-.319-5.732,1.641-1.03,1.6-1.271,3.628-1.447,5.478-.102,1.077.992,2,2,2,1.167,0,1.897-.92,2-2h0Z"/><path class="f" d="M139.359,124.021c1.152.245,2.282-.13,3.108-.968.919-.933,1.047-2.182,1.221-3.411.386-2.739.715-5.671.115-8.406-.455-2.071-2.266-4.404-4.569-4.26-2.454.153-4.228,1.7-4.883,4.054-.28,1.007.346,2.221,1.397,2.46,1.059.241,2.16-.318,2.46-1.397.001-.005.205-.632.063-.286.068-.166.168-.314.254-.47l.094-.138c-.132.17-.151.202-.057.098-.006-.118.302-.241-.007-.034.117-.079.261-.141.373-.224-.303.223-.156.057.056-.003.115-.033.236-.045.35-.079.225-.066-.402.006-.029.014.242.005.466.091-.012-.043-.258-.123-.318-.145-.182-.069.119.074.084.041-.105-.1.102.091.199.186.295.284.105.106.233.3.076.076.105.15.204.305.294.465.025.044.262.568.107.169.106.273.187.616.22.851.241,1.701.086,3.623-.102,5.381-.082.764-.291,1.533-.359,2.364-.02.25.123-.269-.034.051.155-.186.183-.228.084-.126-.11.105-.06.07.15-.105-.372.192.428-.093.059-.015l.338-.039c-.215,0-.119.017.287.051-1.021-.217-2.211.301-2.46,1.397-.229,1.005.303,2.227,1.397,2.46h0Z"/><path class="f" d="M121.355,124.11c.35-.203.704-.4,1.065-.583.131-.066.262-.131.395-.194.102-.048.68-.352.177-.09.57-.297,1.271-.467,1.895-.599.153-.032.307-.058.461-.086.221-.033.176-.027-.134.018.089-.01.178-.018.267-.025.315-.025.631-.032.946-.021.184.006.367.025.551.037.413.027-.417-.084.029.002.389.075.772.156,1.153.264,1.006.286,2.222-.35,2.46-1.397.242-1.064-.32-2.154-1.397-2.46-1.733-.492-3.504-.563-5.269-.216-1.633.321-3.187,1.066-4.619,1.895-.906.525-1.301,1.831-.718,2.736.589.913,1.767,1.279,2.736.718h0Z"/><path class="f" d="M133.467,122.377c.288-.796.559-1.597.85-2.392.149-.406.303-.811.466-1.212.044-.109.089-.217.134-.325-.11.246-.123.289-.039.129.112-.17.07-.121-.127.147.048-.056.098-.11.151-.161.054-.053.111-.103.169-.151-.255.191-.296.227-.123.106.138-.077.274-.157.413-.234.193-.089.142-.069-.153.061.072-.028.145-.053.218-.076.136-.043.298-.053.427-.105-.361.042-.438.054-.23.036.062-.003.124-.004.186,0-.386-.064-.48-.076-.282-.037.086.021.171.044.256.069.083.024.165.051.246.079.203.076.16.055-.128-.063.062.086.329.164.426.224.066.041.131.084.194.13-.249-.199-.296-.23-.139-.093.056.052.109.106.159.163.134.159.1.115-.102-.133.043.065.083.131.12.199.093.189.075.139-.054-.149-.023.041.11.395.127.459.034.204.025.137-.025-.203.009.083.016.166.022.249.013.179.02.358.024.537.007.348.001.696-.024,1.043-.028.383-.084.764-.129,1.145-.025.209-.051.419-.076.628-.03.23-.026.204.012-.078-.014.099-.028.197-.043.296-.12.783-.299,1.549-.573,2.293-.362.984.404,2.234,1.397,2.46,1.131.258,2.073-.344,2.46-1.397.564-1.533.697-3.169.892-4.779.178-1.467.165-3.068-.502-4.417-.738-1.491-2.531-2.526-4.171-2.619-1.423-.08-3.089.645-4.008,1.732-.687.812-1.011,1.852-1.376,2.838-.312.842-.598,1.694-.904,2.538-.357.985.401,2.233,1.397,2.46,1.126.257,2.078-.342,2.46-1.397h0Z"/><path class="f" d="M135.821,124.957c.149-.398-.034.054-.095.142-.252.366.176-.148-.12.145-.055.054-.415.375-.155.172-.182.142-.386.261-.587.374-.73.413-1.431.613-2.366.84-2.287.556-4.61.607-6.932.904-2,.256-3.964.975-5.339,2.515-1.051,1.177-1.619,2.575-2.271,3.986-.453.98-.277,2.154.718,2.736.863.505,2.281.268,2.736-.718.308-.667.583-1.35.919-2.004.157-.306.329-.599.513-.888.03-.047.369-.472.099-.151.113-.135.232-.266.357-.391.128-.127.262-.254.406-.363-.298.227.16-.084.225-.122.484-.286.518-.284,1.028-.429,1.095-.312,2.242-.313,3.37-.422,3.988-.384,9.708-.89,11.35-5.264.38-1.011-.422-2.192-1.397-2.46-1.122-.308-2.079.382-2.46,1.397h0Z"/><path class="f" d="M130.676,114.723c.679-.333,1.368-.645,2.064-.94l-.478.202c1.24-.522,2.555-1.091,3.899-1.272l-.532.071c.121-.014.241-.024.363-.024,1.046-.002,2.048-.918,2-2s-.879-2.002-2-2c-1.196.002-2.405.437-3.51.853-1.299.489-2.58,1.044-3.826,1.657-.941.463-1.274,1.874-.718,2.736.622.964,1.73,1.212,2.736.718h0Z"/><path class="f" d="M97.599,135.576c3.151-3.788,6.642-7.317,9.626-11.24l-3.141.405c2.817,2.196,5.577,4.469,8.291,6.79,2.664,2.279,5.53,4.577,7.729,7.33.675.845,2.125.704,2.828,0,.835-.835.676-1.982,0-2.828-2.198-2.753-5.064-5.051-7.729-7.33-2.714-2.321-5.474-4.594-8.291-6.79-1.105-.861-2.293-.71-3.141.405.444-.584-.345.412-.484.578-.377.451-.759.898-1.142,1.344-.908,1.058-1.823,2.11-2.739,3.162-1.549,1.778-3.128,3.534-4.636,5.347-1.635,1.966,1.18,4.81,2.828,2.828h0Z"/><path class="f" d="M107.989,154.286c.267-1.394.623-2.849,1.248-4.13.539-1.104,1.332-1.508,2.414-2.11,2.93-1.628,5.317-4.232,7.847-6.397.621-.531,1.245-1.051,1.844-1.607.357-.331.739-.77,1.247-.849.694-.108,1.569.387,1.658,1.11.129,1.056-1.219,1.924-1.822,2.618-1.028,1.184-1.804,2.555-3.027,3.561-.835.687-.712,2.117,0,2.828.826.826,1.992.689,2.828,0,1.14-.938,1.904-2.189,2.827-3.322.904-1.11,2.062-2.012,2.684-3.334,1.415-3.01-.428-6.561-3.648-7.29-3.416-.773-5.645,1.908-7.977,3.938-1.299,1.131-2.57,2.295-3.881,3.411-1.112.946-2.228,1.635-3.479,2.37-2.932,1.722-4.008,4.951-4.62,8.139-.203,1.06.297,2.158,1.397,2.46.979.269,2.256-.331,2.46-1.397h0Z"/><path class="f" d="M121.222,150.098c2.119-.473,4.198-1.106,6.317-1.578.882-.197,1.753-.444,2.639-.624.241-.049.483-.095.726-.13.144-.023.138-.021-.018.005.134-.014.268-.025.402-.032.225-.011.448-.008.674.002.151.012.124.006-.081-.019.113.02.225.046.336.079.211.072.212.07.002-.004l.161.091c.194.131.204.132.031.003.088.076.172.158.251.244.285.274-.049-.187.095.148.058.099.11.2.157.303-.092-.215-.1-.214-.024.003.012.072.1.613.059.14.02.23,0,.456.009.685-.016-.396,0-.004-.038.143-.028.11-.061.219-.099.326.106-.233.097-.219-.027.042-.105.188-.206.373-.328.551.173-.252-.259.264-.312.32-.264.286.204-.082-.149.119-.196.112-.387.224-.589.326.305-.155.027-.012-.134.044-.179.062-.361.116-.543.166-.38.106-.765.192-1.148.285-1.05.255-1.677,1.442-1.397,2.46.294,1.071,1.407,1.652,2.46,1.397,1.658-.402,3.308-.884,4.524-2.164,1.453-1.53,2.113-3.672,1.614-5.737-.495-2.048-2.211-3.611-4.29-3.888-1.93-.257-3.841.356-5.702.789-2.222.517-4.415,1.154-6.641,1.651-1.055.235-1.673,1.456-1.397,2.46.298,1.086,1.403,1.633,2.46,1.397h0Z"/><path class="f" d="M131.846,155.169c-.884-.102-.252-.157-.155.097.104.273.387.517.404.831.035.666-.776,1.204-1.212,1.629-.84.819-.661,1.987,0,2.828.17.216.131,1.537.094,2.078-.069.98-.259,1.943-.435,2.908-.411,2.247-1.592,3.537-3.738,4.33-2.322.858-4.688,1.12-7.142,1.209-2.828.102-5.658.065-8.476-.201-1.077-.102-2,.992-2,2,0,1.166.92,1.898,2,2,3.177.3,6.366.302,9.551.157,3.246-.149,6.897-.707,9.707-2.466,2.506-1.568,3.608-3.988,4.107-6.789.484-2.716.988-5.729-.838-8.054v2.828c1.603-1.563,2.841-3.322,2.19-5.655-.543-1.943-2.022-3.494-4.055-3.729-1.075-.124-2,1.008-2,2,0,1.185.922,1.875,2,2h0Z"/><path class="f" d="M48.79,81.593c-.755,1.644-1.807,3.105-2.85,4.576-.94,1.326-1.608,2.787-2.498,4.116-1.941,2.898-4.061,5.623-6.219,8.361-2.193,2.783-4.373,5.61-6.065,8.735s-2.785,6.459-3.35,9.962c-1.165,7.227-1.17,14.361-.836,21.652.293,6.391.569,12.784,1.033,19.166.483,6.642,1.097,13.323,2.388,19.864,1.147,5.813,3.07,11.682,7.138,16.136,7.442,8.147,19.208,7.214,28.897,4.481,14.211-4.009,27.74-10.69,40.504-18.011,1.761-1.01,3.514-2.037,5.261-3.071.992-.588,1.177-1.75.718-2.736-3.478-7.472-6.506-15.199-10.332-22.504-.378-.722-1.468-1.216-2.259-.919-10.503,3.939-20.883,8.207-31.365,12.2-2.295.874-4.59,1.758-6.914,2.554-2.422.829-1.382,4.694,1.063,3.857,10.938-3.743,21.64-8.265,32.403-12.476,1.956-.765,3.909-1.54,5.876-2.278l-2.259-.919c3.826,7.304,6.853,15.032,10.332,22.504l.718-2.736c-12.888,7.633-26.133,14.42-40.334,19.274-8.392,2.869-19.631,5.883-27.416-.114-4.243-3.269-6.346-8.495-7.572-13.546-1.438-5.923-2.065-12.039-2.577-18.101-.532-6.305-.846-12.625-1.135-18.945-.301-6.575-.731-13.167-.074-19.734.344-3.438.827-6.877,1.997-10.14,1.119-3.12,2.967-5.956,4.916-8.615,2.011-2.742,4.212-5.34,6.255-8.059,1.954-2.602,3.4-5.457,5.274-8.098,1.004-1.416,2.008-2.831,2.735-4.414.451-.981.279-2.154-.718-2.736-.862-.504-2.283-.269-2.736.718h0Z"/><path class="f" d="M62.303,136.569c.064,4.865-.114,9.728-.276,14.589-.175,5.242.004,10.461.07,15.702.032,2.572,4.032,2.579,4,0-.066-5.242-.245-10.461-.07-15.702.162-4.861.34-9.724.276-14.589-.034-2.572-4.034-2.579-4,0h0Z"/><path class="f" d="M73.798,236.36c-6.043,0-11.982-.28-17.968-1.151-6.114-.889-12.168-2.297-18.13-3.905-1.638-.442-3.27-.906-4.894-1.397-.786-.238-1.571-.482-2.353-.734-.503-.162-.913-.163-1.005-.703-.099-.579.327-1.521.451-2.088.234-1.065.461-2.133.684-3.2,1.079-5.159,2.098-10.33,3.134-15.498,1.138-5.67,2.257-11.348,3.545-16.987.572-2.506-3.283-3.576-3.857-1.063-2.451,10.732-4.4,21.575-6.651,32.349-.419,2.003-1.141,4.123-1.288,6.167-.298,4.126,4.017,4.946,7.078,5.854,6.572,1.948,13.277,3.575,20.038,4.719,7.053,1.193,14.074,1.636,21.216,1.637,2.574,0,2.578-4,0-4h0Z"/><path class="f" d="M311.394,182.641c7.627,8.467,15.264,16.926,22.981,25.311,1.414,1.537,2.832,3.071,4.257,4.597.279.299.558.598.838.896.078.084.506.642.365.283.251.637,0,1.913,0,2.602,0,2.074-.001,4.149-.002,6.223,0,1.004.073.86-.804.86-5.987,0-11.974,0-17.961,0-9.942,0-19.884,0-29.826,0-12.627,0-25.253,0-37.88,0-14.187,0-28.374,0-42.561,0-14.433,0-28.866,0-43.298,0-13.567,0-27.135,0-40.702,0-11.429,0-22.857,0-34.286,0-8.069,0-16.138,0-24.207,0-1.341,0-2.681,0-4.022,0-.559,0-1.117,0-1.676,0-.36,0-1.123.152-1.443,0-.389-.185-.221-.27-.218-.928.006-1.174.008-2.347.008-3.521,0-1.147,0-2.295-.001-3.442,0-.422.057-.906,0-1.325-.012-.088-.024-.418-.021-.437-.036.211-.126.274.062.008.826-1.172,2.035-2.201,3.004-3.258,1.383-1.509,2.764-3.02,4.145-4.532,2.572-2.814,5.138-5.633,7.731-8.428,1.749-1.885-1.073-4.721-2.828-2.828-2.722,2.935-5.417,5.896-8.117,8.851-1.431,1.566-2.862,3.132-4.296,4.694-.959,1.045-2.054,2.049-2.911,3.181-1.246,1.647-.768,4.295-.767,6.243,0,1.132,0,2.264-.003,3.396-.003,1.241-.176,2.609.281,3.786.986,2.541,3.439,2.54,5.701,2.54,6.843,0,13.686,0,20.529,0,10.745,0,21.49,0,32.235,0,13.411,0,26.822,0,40.233,0,14.728,0,29.456,0,44.184,0s29.458,0,44.187,0c13.413,0,26.826,0,40.239,0,10.749,0,21.497,0,32.246,0,6.848,0,13.697,0,20.545,0,1.408,0,3.111.213,4.374-.473,2.237-1.216,2.124-3.52,2.125-5.725,0-2.117.001-4.233.002-6.35,0-.849.051-1.676-.259-2.482-.376-.976-1.2-1.682-1.901-2.431-1.452-1.554-2.897-3.116-4.338-4.681-3.612-3.923-7.203-7.866-10.787-11.815-4.119-4.539-8.227-9.087-12.329-13.641-1.727-1.917-4.548.919-2.828,2.828h0Z"/><path class="g" d="M296.934,167.311c0-5.293-9.635-7.532-17.232-7.532-8.057,0-18.646,3.056-18.646,8.12,0,5.985,8.978,7.303,17.955,7.303,6.906,0,17.922-1.905,17.922-7.891Z"/><path class="f" d="M298.934,167.311c-.19-6.862-9.285-8.654-14.595-9.265-6.722-.773-14.406-.035-20.42,3.278-2.354,1.297-4.59,3.323-4.838,6.152-.261,2.976,1.573,5.537,4.063,6.969,3.039,1.748,6.721,2.249,10.156,2.54s6.902.334,10.321-.04c5.584-.611,15.136-2.397,15.312-9.635.063-2.575-3.937-2.574-4,0-.015.632-.208,1.185-.585,1.67-.628.807-1.486,1.326-2.396,1.794-2.184,1.125-4.713,1.655-7.126,2.017-2.608.39-5.251.452-7.883.386-3-.075-6.042-.279-8.949-1.075-1.804-.494-4.189-1.374-4.788-3.194-.262-.796-.182-1.372.06-1.827.405-.761,1.117-1.351,1.922-1.862,4.529-2.876,10.667-3.6,15.914-3.416,3.224.113,6.489.576,9.532,1.685,1.115.406,2.272.948,3.166,1.74.748.662,1.112,1.325,1.132,2.082.071,2.569,4.071,2.579,4,0Z"/><path class="g" d="M293.366,160.669c1.818-3.893,2.846-9.019,2.747-12.815l-.122-.609c.054-2.522-7.253-3.482-13.554-3.638-7.94-.197-14.921.604-15.347,3.493-.167,6.474.071,10.854,1.95,14.717,2.024,4.161,6.169,6.607,11.676,6.607,6.086,0,9.196-2.147,11.349-5.407.469-.706.904-1.498,1.302-2.349Z"/><path class="f" d="M294.113,147.854c.066,3.728-.718,7.538-2.118,10.989-1.083,2.67-2.726,5.231-5.401,6.506-2.976,1.418-6.943,1.443-10.046.466-2.989-.941-5.19-3.188-6.249-6.116-1.451-4.009-1.311-8.401-1.209-12.599.063-2.575-3.937-2.574-4,0-.195,7.991.136,18.138,8.649,21.898,3.953,1.746,8.876,1.948,12.982.581,3.554-1.183,6.212-3.743,7.939-7.026,2.324-4.417,3.541-9.713,3.453-14.699-.046-2.571-4.046-2.579-4,0h0Z"/><path class="f" d="M282.437,145.608c3.045.084,6.149.243,9.118.974.792.195,2.085.63,2.451.922.393.314,0,.049.036-.002l.082.142c-.16-.242-.189-.516-.087-.821-.013.115-.196.543.043-.057-.048.12-.145.304-.24.392.478-.438-.177.118-.292.216.429-.365-.15.076-.285.154-.131.076-.936.442-.507.269-.378.153-.766.281-1.158.394-1.639.475-2.847.62-4.44.742-3.726.285-7.838.1-11.31-.437-1.609-.249-3.22-.566-4.772-1.063-.264-.085-.524-.181-.786-.272-.089-.031-.569-.244-.086-.027-.128-.057-.258-.112-.382-.178-.22-.117-.432-.257-.653-.369-.434-.222.265.292-.152-.14-.246-.255.257.433.102.136-.211-.405.107.428.055.133-.002-.011-.019,1.047.057.523-.027.182-.082.14.06.007.125-.116.442-.328.848-.503.455-.197,1.088-.359,1.621-.484,3.459-.81,7.149-.73,10.677-.65,2.575.058,2.574-3.942,0-4-3.842-.087-7.816-.09-11.587.759-2.312.521-5.571,1.824-5.628,4.67-.068,3.415,5.123,4.463,7.607,4.969,4.522.921,9.257,1.257,13.863.96,3.42-.221,8.474-.62,10.601-3.788,1.77-2.638-.352-4.903-2.819-5.873-3.718-1.462-8.092-1.589-12.036-1.697-2.575-.071-2.573,3.929,0,4Z"/><path class="g" d="M282.614,166.326c-.45-1.077-.491-2.4-.128-3.344.572-1.488.626-1.981,1.18-2.727-.878-.314-1.712-.869-2.337-2.025-.802-1.483.271-3.916,1.949-4.8,1.434-.756,3.347.281,4.914.516.243.036.499.079.766.127-2.217-7.513,8.688-4.584,11.238-3.081,2.168,1.278,7.495,6.71,7.923,8.445l.596,2.417c-1.231,3.289-2.877,10.188-3.391,14.696-4.309.595-8.813,1.924-10.305,1.691-2.376-.372-4.931-.394-7.139-1.287-1.891-.764-4.004-2.596-4.488-3.532-.795-1.539-1.038-4.332.119-5.816-.388-.332-.687-.78-.896-1.282Z"/><path class="f" d="M330.633,202.306c10.695-.005,21.393-.234,32.087-.346,2.035-.021,4.07-.048,6.105-.048,2.574-.001,2.578-4.001,0-4-10.671.005-21.343.235-32.014.346-2.059.021-4.119.048-6.178.048-2.574.001-2.578,4.001,0,4h0Z"/><path class="f" d="M355.713,99.41c1.22,3.734,3.446,7.047,5.495,10.362,2.411,3.899,4.729,7.874,6.112,12.269.77,2.447,4.633,1.402,3.857-1.063-1.418-4.505-3.694-8.637-6.157-12.644-1.964-3.194-4.276-6.393-5.45-9.987-.796-2.436-4.66-1.393-3.857,1.063h0Z"/><path class="f" d="M322.025,114.91c2.34,1.282,5.332,1.122,7.898.866,3.387-.338,6.758-1.026,10.006-2.043,4.801-1.503,8.742-4.26,12.681-7.333,2.228-1.738,4.989-3.795,6.182-6.448.443-.984.284-2.151-.718-2.736-.855-.5-2.291-.273-2.736.718-.837,1.861-2.803,3.412-4.499,4.797-1.938,1.582-3.995,3.026-6.09,4.391-3.962,2.581-8.635,3.759-13.277,4.462-1.528.231-3.085.368-4.631.343-.498-.008-1.308-.064-1.555-.106-.276-.047-.543-.116-.813-.188-.436-.115.016.068-.428-.175-2.259-1.238-4.279,2.215-2.019,3.454h0Z"/><path class="f" d="M349.973,122.205c1.67-3.505,4.742-5.517,8.667-5.288,4.193.244,6.865,3.802,8.605,7.244,1.161,2.298,4.613.275,3.454-2.019-2.432-4.813-6.389-8.895-12.059-9.225-5.21-.303-9.891,2.589-12.121,7.27-.464.975-.27,2.159.718,2.736.872.51,2.27.262,2.736-.718h0Z"/><path class="f" d="M367.459,123.587c2.727,10.346.259,21.131-1.58,31.407-.711,3.973-1.198,7.971-1.836,11.953-.526,3.285-1.171,6.7-2.608,9.725-1.583,3.332-4.007,5.764-7.688,6.556-2.515.541-1.451,4.398,1.063,3.857,7.994-1.719,11.269-9.472,12.68-16.738.763-3.928,1.153-7.919,1.822-11.863.956-5.64,2.119-11.244,2.806-16.927.767-6.345.838-12.812-.802-19.033-.656-2.487-4.515-1.432-3.857,1.063h0Z"/><path class="f" d="M343.608,126.809c-2.831,11.977-3.687,24.119-2.824,36.385.18,2.553,4.181,2.573,4,0-.839-11.921-.07-23.68,2.681-35.322.592-2.503-3.264-3.571-3.857-1.063h0Z"/><path class="f" d="M366.891,200.146c1.218,7.446,2.071,14.993,2.353,22.535.135,3.599.228,7.321-.304,10.894-.551,3.698-2.253,6.69-5.394,8.787-2.131,1.422-.13,4.889,2.019,3.454,2.925-1.953,5.149-4.497,6.384-7.81,1.015-2.722,1.198-5.72,1.315-8.597.279-6.877-.355-13.806-1.163-20.629-.384-3.241-.826-6.477-1.353-9.698-.174-1.067-1.498-1.661-2.46-1.397-1.133.311-1.572,1.39-1.397,2.46h0Z"/><path class="f" d="M363.422,171.148c.355,5.082,1.777,10.088,2.786,15.066.527,2.598,1.028,5.204,1.413,7.828.278,1.895.542,3.873.354,5.789-.106,1.077.995,2,2,2,1.17,0,1.894-.92,2-2,.2-2.035-.118-4.123-.395-6.134-.366-2.65-.86-5.282-1.385-7.905-.968-4.829-2.429-9.718-2.773-14.644-.178-2.554-4.18-2.573-4,0h0Z"/><path class="f" d="M321.214,110.931c-4.072,4.807-6.873,10.643-9.249,16.433-2.582,6.294-4.828,13.008-4.144,19.898.466,4.691,1.834,9.189,3.351,13.632.827,2.422,4.692,1.382,3.857-1.063-1.617-4.738-3.204-9.624-3.345-14.671-.111-3.958.918-7.725,2.165-11.446,1.239-3.699,2.741-7.309,4.489-10.796,1.603-3.198,3.383-6.418,5.703-9.158,1.654-1.953-1.162-4.796-2.828-2.828h0Z"/><path class="f" d="M310.046,158.907c-.527-1.855-2.134-3.462-3.408-4.835-1.522-1.64-3.166-3.263-5.016-4.535-1.303-.896-2.925-1.405-4.446-1.788-2.023-.509-4.172-.795-6.241-.415-2.467.453-4.097,2.248-4.27,4.744-.074,1.079.972,2,2,2,1.144,0,1.925-.918,2-2,.02-.245.017-.242-.01.008.021-.107.047-.212.08-.316.076-.215.067-.198-.027.052.045-.087.095-.171.15-.253-.407.245.051-.022.173-.124-.401.339.106-.022.218-.08-.453.234.141-.035.26-.067.216-.059.437-.103.658-.134-.488.07.268-.003.356-.006.249-.009.499-.007.749.002.257.009.514.028.77.053.13.013.26.027.389.043-.206-.028-.189-.024.054.012.515.085,1.027.189,1.534.314.478.118.953.253,1.421.406.214.07.428.143.639.221.099.036.749.304.231.08.298.129.593.266.873.431.166.097.322.208.482.315.091.064.18.129.269.196-.169-.133-.16-.125.028.024.934.751,1.812,1.572,2.66,2.418.89.888,1.752,1.809,2.548,2.783.088.108.176.217.263.327-.107-.14-.092-.118.045.065.138.189.275.38.401.577.104.162.185.356.3.508.224.299-.126-.433.008.038.702,2.472,4.563,1.421,3.857-1.063h0Z"/><path class="f" d="M294.699,153.132c-1.88-.302-3.734-.746-5.612-1.056s-3.706-1.18-5.649-.805c-1.91.369-3.311,2.085-3.993,3.803-.757,1.906-.31,3.781.971,5.324,1.205,1.452,2.968,1.925,4.739,2.242,1.026.184,2.205-.278,2.46-1.397.222-.976-.296-2.263-1.397-2.46-.691-.124-1.372-.244-2.04-.464-.455-.15.322.202-.095-.048-.078-.047-.635-.424-.276-.135-.137-.11-.254-.239-.382-.358-.276-.257.032.127-.156-.197-.076-.117-.148-.238-.214-.361.097.261.109.287.036.077-.022-.07-.039-.141-.052-.213-.029-.15-.022-.096.023.162.007-.051.038-.655-.006-.353-.042.296.084-.305.103-.365.049-.158.203-.443.045-.144.107-.202.221-.394.339-.59.204-.339-.204.162.108-.131.042-.04.476-.455.29-.3-.179.15.283-.175.345-.207-.323.162.133-.017.215-.029-.43.067.21.039.307.046.144.013.128.01-.048-.009.131.023.262.05.392.08.872.196,1.712.501,2.597.643,1.971.318,3.915.783,5.887,1.1,1.029.165,2.202-.265,2.46-1.397.219-.96-.292-2.283-1.397-2.46h0Z"/><path class="f" d="M281.785,159.461c-1.758,2.867-2.346,7.038.31,9.561l-.313-2.424c-1.504,2.138-1.388,5.601-.119,7.835,1.372,2.416,4.397,4.202,7.007,4.88,1.614.419,3.293.549,4.944.743,1.244.146,2.24.225,3.484.044,2.996-.437,5.922-1.267,8.929-1.645,1.072-.135,2-.823,2-2,0-.976-.921-2.136-2-2-2.701.34-5.35.909-8.017,1.439-.839.167-1.662.377-2.483.375-1.165-.003-2.378-.253-3.534-.397-2.435-.303-4.576-1.042-6.339-2.808-1.002-1.004-1.357-3.11-.417-4.446.494-.702.29-1.851-.313-2.424-.572-.543-.79-1.383-.662-2.161.146-.884.634-1.995.977-2.553,1.349-2.2-2.109-4.212-3.454-2.019h0Z"/><path class="j" d="M354.278,185.156c-6.747,1.769-20.142.369-27.068-.619-9.37-1.336-18.047-4.888-22.038-6.139.195-5.091,3.034-16.565,4.345-18.214,6.376.693,11.47,1.073,18.088,1.927,6.635.856,13.745,1.537,17.111,1.778l9.562,21.268Z"/><path class="f" d="M353.747,183.227c-2.721.69-5.568.775-8.362.775-3.356,0-6.712-.209-10.053-.515-6.967-.639-13.747-1.822-20.436-3.92-3.086-.968-6.109-2.121-9.191-3.097l1.468,1.929c.149-3.323.903-6.643,1.683-9.866.391-1.617.818-3.228,1.329-4.812.192-.594.388-1.192.629-1.768-.141.338.075-.164.133-.27.093-.169.183-.334.298-.489l-1.727.991c6.184.668,12.38,1.202,18.552,1.986,5.532.703,11.085,1.314,16.647,1.718,2.568.187,2.556-3.814,0-4-8.71-.633-17.349-1.913-26.034-2.78-2.221-.222-4.442-.433-6.662-.66-1.057-.108-2.549-.554-3.513.009-.506.296-.824.826-1.08,1.336-1.239,2.468-1.869,5.323-2.505,7.99-.826,3.465-1.59,7.046-1.75,10.615-.04.898.654,1.671,1.468,1.929,6.639,2.102,13.084,4.587,19.977,5.809,6.518,1.155,13.25,1.786,19.866,1.862,3.436.039,6.978-.064,10.325-.913,2.494-.632,1.437-4.491-1.063-3.857h0Z"/><path class="f" d="M311.716,128.553c-2.135,4.102-3.508,8.562-5.765,12.604-.828,1.483-1.795,2.632-3.231,3.486-1.666.991-3.526,1.573-5.364,2.156-2.445.775-1.4,4.638,1.063,3.857,4.085-1.295,8.155-2.838,10.508-6.657,2.594-4.212,3.966-9.053,6.243-13.428,1.187-2.281-2.264-4.306-3.454-2.019h0Z"/><path class="f" d="M326.526,100.208c-.149.914-.384,1.812-.666,2.694-.159.497-.333.988-.52,1.475-.107.28-.219.558-.334.835.078-.188.053-.124-.013.025-.062.139-.123.279-.186.418-.451.995-.95,1.969-1.503,2.912-.264.449-.54.891-.832,1.322-.139.206-.282.409-.429.61-.063.087-.128.172-.193.258.288-.384-.031.031-.075.085-.661.809-.85,2.048,0,2.828.732.672,2.121.865,2.828,0,1.492-1.825,2.685-3.851,3.657-5.996.925-2.042,1.76-4.18,2.122-6.402.168-1.028-.266-2.203-1.397-2.46-.963-.219-2.28.293-2.46,1.397h0Z"/><path class="i" d="M343.371,21.335c-1.285-.122-2.628-.194-4.036-.216-4.473-.068-9.149,1.123-11.186,1.756-7.357,2.289-13.498,8.048-16.823,14.543-.692,1.352-1.307,2.92-1.816,4.605.513.484.816.769.816.769,7.016,6.612,15.08,12.11,23.798,16.224,1.794.847,3.66,1.647,5.639,1.793,0,0,1.243.092,2.693.198.284-.12.588-.218.919-.29,1.408-.308,2.763-.087,3.78.703,1.514,1.176,2.153,3.56,1.997,5.5-.409,5.097-3.147,8.454-7.838,10.418,1.314,3.738,2.71,7.547,2.785,11.454.054,2.792-1.459,8.707-4.377,10.941,10.197,7.054,22.275,6.134,27.055,4.872,3.603-.951,6.115-3.258,6.612-7.228.359-2.87.191-5.144-.393-8.039-.75-3.72-1.293-11.865,1.203-23.158.758-3.43,1.332-7.747,1.21-11.668-.155-4.986-1.735-12.186-6.265-17.958-6.62-8.435-13.528-14.062-25.772-15.222Z"/><path class="f" d="M341.839,63.897c1.179-1.197,3.329-2.031,4.538-.44.948,1.248.91,3.302.552,4.906-.81,3.632-3.329,5.988-6.881,7.337-1.009.383-1.702,1.349-1.397,2.46.266.967,1.445,1.782,2.46,1.397,4.064-1.543,7.44-4.121,9.092-8.242,1.567-3.908,1.543-10.1-2.919-12.133-2.902-1.322-6.12-.3-8.273,1.886-1.808,1.836,1.019,4.666,2.828,2.828h0Z"/><path class="f" d="M313.546,59.734c-.575,1.341-.7,4.568,1.766,5.136,3.306.37,3.952-3.473,3.061-5.421-.729-1.595-3.331-2.531-4.828.285Z"/><path class="f" d="M305.717,81.109c2.229.102,4.469-.179,6.483-1.183.432-.215.794-.743.919-1.195.132-.479.072-1.116-.202-1.541-.619-.96-1.733-1.218-2.736-.718-.139.069-.279.134-.421.196l.478-.202c-.76.32-1.559.515-2.375.626l.532-.071c-.889.113-1.783.129-2.677.088-1.047-.048-2.047.954-2,2,.05,1.125.879,1.949,2,2h0Z"/><path class="f" d="M329.448,98.926c-.344-1.272-.777-2.514-1.269-3.737-.173-.431-.355-.859-.536-1.287-.068-.161-.239-.561.052.124-.185-.437-.348-.808-.662-1.178-1.771-2.085-4.448-.887-6.788-.946-2.435-.062-5.119-.493-7.35-1.512-2.001-.914-3.339-2.768-4.027-4.817-.893-2.657-1.264-5.507-1.428-8.297-.154-2.624-1.148-4.613-3.013-6.463-.468-.465-1.194-.934-.901-1.659.357-.886,1.59-1.222,2.304-1.748,1.788-1.32,2.9-3.2,3.628-5.271,1.851-5.268.904-10.959,1.972-16.35.498-2.514-3.357-3.59-3.857-1.063-.979,4.947-.325,10.07-1.56,14.967-.449,1.783-1.179,3.677-2.818,4.681-2.192,1.344-4.325,3.293-3.647,6.171.528,2.24,2.826,3.202,3.634,5.255.39.989.291,2.151.393,3.201.156,1.598.373,3.198.69,4.772.569,2.819,1.555,5.532,3.487,7.711,1.649,1.861,3.901,2.846,6.256,3.493,2.761.759,5.768,1.15,8.625.835.347-.038.696-.081,1.039-.142.164-.024.327-.053.49-.087.199-.045.146-.096-.159-.153-.029.012-.519-1.173.054.188.032.076.143.341.054.126.575,1.389,1.086,2.799,1.479,4.251.672,2.482,4.532,1.429,3.857-1.063h0Z"/><path class="f" d="M309.966,51.304c.252-6.42,2.187-12.83,6.312-17.837,3.818-4.634,8.799-7.85,14.632-9.277,10.748-2.629,22.584-.442,30.824,7.153,3.986,3.674,7.691,8.082,9.627,13.196,2.181,5.761,2.473,11.807,1.521,17.862-.557,3.548-1.426,7.028-1.897,10.594-.376,2.848-.606,5.717-.617,8.59-.009,2.221.121,4.434.427,6.634.386,2.778.945,5.388.695,8.223-.247,2.793-1.588,4.952-4.289,5.942-2.012.738-4.145.945-6.251,1.05-6.815.339-13.62-1.213-19.406-4.885-2.18-1.384-4.189,2.077-2.019,3.454,5.77,3.663,12.57,5.443,19.382,5.477,4.704.023,10.777-.43,14.056-4.275,2.231-2.616,2.718-6.065,2.602-9.406-.061-1.767-.368-3.502-.689-5.236-.187-1.01-.222-1.303-.318-2.331-.573-6.19.094-12.494,1.362-18.557,1.418-6.779,2.147-13.594.475-20.398-1.585-6.447-5.119-11.794-9.628-16.575-3.742-3.967-8.146-7.167-13.253-9.13-6.163-2.37-13.231-2.982-19.733-2.014-6.598.982-12.628,3.544-17.546,8.122-5.12,4.766-8.371,10.992-9.624,17.851-.348,1.906-.569,3.837-.645,5.774-.101,2.574,3.899,2.57,4,0h0Z"/><path class="f" d="M339.578,78.421c1.327,3.773,3.031,8.263,2.39,12.132-.432,2.609-1.435,6.337-3.737,7.781-2.175,1.365-.17,4.827,2.019,3.454,3.275-2.055,4.87-6.277,5.531-9.921.906-4.995-.703-9.837-2.346-14.509-.849-2.412-4.714-1.374-3.857,1.063h0Z"/><path class="f" d="M308.912,44.206c4.385,4.112,9.151,7.826,14.228,11.047,2.467,1.565,5.009,3.012,7.614,4.334,2.872,1.457,5.765,2.901,9.009,3.223,1.076.107,2-.996,2-2,0-1.17-.921-1.893-2-2-2.738-.272-5.371-1.83-7.77-3.077-2.462-1.28-4.867-2.672-7.203-4.169-4.66-2.986-9.013-6.4-13.049-10.186-1.876-1.76-4.711,1.063-2.828,2.828h0Z"/><path class="f" d="M52.6,86.748c.358-.885.658-1.797.978-2.696.187-.525.374-1.051.567-1.574.07-.188.143-.375.211-.563.174-.478-.191.349.016-.034l-2.259.919c4.77,1.507,9.409,3.432,14.086,5.198,4.076,1.539,8.363,3.452,12.713,4.053l-1.397-2.46c-1.563,4.27-3.42,8.451-4.793,12.787-.779,2.46,3.081,3.512,3.857,1.063,1.374-4.337,3.231-8.518,4.793-12.787.338-.922-.385-2.32-1.397-2.46-4.35-.601-8.636-2.514-12.713-4.053-4.677-1.766-9.316-3.691-14.086-5.198-.817-.258-1.85.166-2.259.919-.978,1.802-1.409,3.926-2.177,5.822-.405,1.002.441,2.198,1.397,2.46,1.143.314,2.053-.392,2.46-1.397h0Z"/><path class="f" d="M80.956,91.02c1.276-1.37,2.626-2.669,4.044-3.89.371-.32.586-.94.586-1.414,0-.491-.218-1.076-.586-1.414-.381-.35-.882-.61-1.414-.586-.552.025-.994.224-1.414.586-1.418,1.222-2.768,2.52-4.044,3.89-.357.384-.586.882-.586,1.414,0,.491.218,1.076.586,1.414.381.35.882.61,1.414.586.519-.023,1.05-.195,1.414-.586h0Z"/><path class="f" d="M109.49,123.573c2.942-2.002,5.797-4.229,7.759-7.244,1.168-1.794,1.887-3.837,3.144-5.578,1.533-2.124,3.235-3.055,5.831-3.993,2.561-.924,6.07-2.01,8.592-1.544s3.595-3.39,1.063-3.857-5.124-.037-7.583.584c-2.498.631-5.051,1.514-7.289,2.81-3.653,2.114-4.94,5.905-7.036,9.28-1.563,2.516-4.045,4.417-6.501,6.088-2.116,1.44-.117,4.907,2.019,3.454h0Z"/></g></g></svg>